<?xml version="1.0" standalone="no"?>
<!DOCTYPE svg PUBLIC "-//W3C//DTD SVG 1.1//EN" "http://www.w3.org/Graphics/SVG/1.1/DTD/svg11.dtd" >
<svg xmlns="http://www.w3.org/2000/svg">
<metadata>
This is a custom SVG webfont generated by Font Squirrel.
</metadata>
<defs>
<font id="webfont0v2kTw9u" horiz-adv-x="1040" >
<font-face units-per-em="2048" ascent="1591" descent="-457" />
<missing-glyph horiz-adv-x="437" />
<glyph unicode=" "  horiz-adv-x="437" />
<glyph unicode="&#x09;" horiz-adv-x="437" />
<glyph unicode="&#xa0;" horiz-adv-x="437" />
<glyph unicode="!" horiz-adv-x="510" d="M140 102q0 10 21 34t32 33q16 12 36 31.5t33 28t28 8.5q6 0 13 -6t13 -13l18 -23l20 -26q38 -44 38 -56q0 -9 -4.5 -18t-17.5 -23l-18 -18l-23 -22l-15 -14l-16 -16l-13 -12q-7 -7 -12.5 -10t-8.5 -3q-25 0 -64 46l-20 23l-20 22q-8 8 -14 17.5t-6 16.5zM273 432 q0 11 4 57l52 795q0 2 1 19t2 23.5t4.5 22t10 23t17 17t27 13.5t37.5 4q73 0 73 -66q0 -29 -8 -62t-26.5 -122t-37.5 -221q-36 -255 -87 -497q-3 -13 -14.5 -27t-27.5 -14q-27 0 -27 35z" />
<glyph unicode="&#x22;" horiz-adv-x="840" d="M423 900q0 15 13 28t30.5 24t40.5 39t38 68q24 60 24 93q0 41 -16.5 71t-35.5 43.5t-35.5 30.5t-16.5 35t44 68t72 50q6 0 17.5 -5.5t27.5 -21t30 -37.5t24 -61t10 -86q0 -62 -21 -121.5t-52 -102t-65.5 -75.5t-62 -49.5t-40.5 -16.5q-26 0 -26 26zM73 900q0 15 13 28 t30.5 24t40.5 39t38 68q24 60 24 93q0 41 -16.5 71t-35.5 43.5t-35.5 30.5t-16.5 35t44 68t72 50q6 0 17.5 -5.5t27.5 -21t30 -37.5t24 -61t10 -86q0 -62 -21 -121.5t-52 -102t-65.5 -75.5t-62 -49.5t-40.5 -16.5q-26 0 -26 26z" />
<glyph unicode="#" horiz-adv-x="1092" d="M120 284v6q0 17 1.5 25t8 13.5t20.5 5.5h168q6 0 6 4q38 269 38 276q0 10 -14 10h-194q-18 0 -26 8.5t-8 33.5q0 23 7.5 33.5t26.5 10.5h208q16 0 18 16q29 204 46 342q5 39 8 44q10 15 46 15q40 0 40 -25q0 -7 -27 -191.5t-27 -190.5q0 -10 14 -10h200q16 0 18 14 q54 382 56 386l2 4q9 13 46 13q34 0 34 -21q0 -10 -26 -193t-26 -193t10 -10h142q21 0 28.5 -11.5t7.5 -38.5q0 -22 -7 -29t-23 -7h-166q-6 0 -10 -12q-36 -264 -36 -266q0 -12 14 -12h194q18 0 26 -8.5t8 -33.5q0 -24 -7 -34t-27 -10h-200q-13 0 -17.5 -5t-6.5 -16 l-24 -181q-19 -145 -29 -165q-17 -17 -41 -17q-38 0 -38 27q0 7 23 173.5t23 171.5q0 12 -14 12h-134q-40 0 -57 -1.5t-21.5 -4.5t-5.5 -10q-47 -346 -50 -351q-10 -17 -48 -17q-36 0 -36 27q0 6 24 172t24 171q0 14 -18 14h-142q-19 0 -24.5 9t-5.5 27zM412 344 q0 -10 16 -10h194q20 0 22 15q36 259 36 265q0 9 -12 10h-202q-15 0 -18 -13q-36 -264 -36 -267z" />
<glyph unicode="$" horiz-adv-x="999" d="M40 186q0 23 24.5 90.5t45.5 67.5q20 0 32 -20.5t24 -62.5t20 -59q35 -76 91 -121.5t108 -45.5q13 0 18.5 8t8.5 31q14 120 33 262l30 224q11 81 11 86q0 18 -24 36t-60 34.5t-78 43.5t-78 59t-60 86t-24 120q0 93 35.5 166.5t93.5 116t124.5 64.5t136.5 24q21 0 28.5 24 t6 52.5t6.5 52t31 23.5q52 0 52 -37q0 -19 -11 -53.5t-11 -57.5q0 -6 11 -9.5t29 -6t23 -3.5q63 -19 111.5 -44.5t72.5 -49.5t35.5 -42t11.5 -29q0 -29 -4.5 -51.5t-11.5 -35.5t-15 -21.5t-14 -11.5t-10 -3q-9 0 -18 11.5t-22.5 38t-21.5 39.5q-29 47 -85.5 92.5t-89.5 45.5 q-12 0 -20 -20.5t-10 -38.5q-13 -127 -27 -225l-19 -138q-6 -39 -6 -64q0 -17 21 -31.5t55 -28.5l75 -32q41 -17 82.5 -46.5t75.5 -68t55 -100.5t21 -140q0 -189 -125.5 -302t-330.5 -113q-14 0 -24.5 -7t-11.5 -15l-9 -78q-4 -41 -6 -65t-5 -50t-6.5 -39t-9 -25t-13 -16.5 t-18.5 -4.5q-27 0 -36.5 9t-9.5 27q0 30 20.5 131.5t20.5 103.5q0 20 -19 23h-2q-127 20 -230.5 89t-103.5 131zM268 1088q0 -49 26 -94.5t63 -69.5q118 -77 133 -77q14 0 18.5 10.5t7.5 34.5q51 400 51 409q0 31 -41 31q-19 0 -46 -5t-66 -21t-70 -41t-53.5 -71.5 t-22.5 -105.5zM480 57q0 -33 44 -33q15 0 40 6.5t59.5 20.5t68.5 41t63.5 62t47.5 89.5t18 119.5q0 56 -24 104t-57 78t-69 51.5t-59 30.5t-28 9q-18 0 -24.5 -8t-9.5 -24q-11 -70 -40.5 -298.5t-29.5 -248.5z" />
<glyph unicode="%" horiz-adv-x="1578" d="M120 705q0 76 30 159t81.5 154t130.5 117.5t167 46.5q42 0 77.5 -14.5t60.5 -35.5l49 -42q24 -21 54.5 -35.5t65.5 -14.5q34 0 72 11t76 32.5t71 43t70 51.5l59 50l50 46q29 28 34 32q18 17 36 17q19 0 19 -18q0 -20 -17 -44l-897 -1365l-43 -66q-7 -11 -14 -13 q-14 -4 -21 -4q-25 0 -45.5 16.5t-20.5 33.5q0 5 0.5 9.5t2.5 10t4 9.5t6.5 12t7.5 14l12 16l12 20l18 24l19 28l338 486l218 306l153 210q42 59 42 66t-8 7q-3 0 -41 -22.5t-96.5 -44.5t-113.5 -22q-22 0 -45 5t-37.5 10t-16.5 5t-2 -3q0 -1 1.5 -13t1.5 -25 q0 -115 -21.5 -189t-83.5 -167q-21 -32 -43.5 -56.5t-57.5 -51.5t-83.5 -42t-105.5 -15q-30 0 -66.5 15t-73.5 44t-61.5 80.5t-24.5 115.5zM268 746q0 -113 32.5 -176.5t90.5 -63.5q67 0 118.5 68.5t75.5 164.5t24 195q0 81 -27 134.5t-71 53.5q-78 0 -135 -58.5t-82.5 -142 t-25.5 -175.5zM790 131q0 65 17.5 131t52.5 126.5t83 108t114 75.5t140 28q111 0 166 -70t55 -182q0 -83 -29.5 -172.5t-78.5 -164t-121 -122.5t-150 -48q-120 0 -184.5 83t-64.5 207zM936 150q0 -113 33 -179t90 -66q62 0 115 69.5t80.5 168t27.5 195.5q0 81 -29.5 139.5 t-73.5 58.5q-78 0 -135 -61.5t-82.5 -147t-25.5 -177.5z" />
<glyph unicode="&#x26;" horiz-adv-x="1709" d="M80 448q0 112 60.5 222.5t137.5 175.5q30 26 64 45l47 27q14 9 14 20q0 4 -3.5 17.5t-6.5 41t-3 65.5q0 85 29.5 157t76 119t105 79.5t114 47t105.5 14.5q22 0 47 -3.5t57 -15t56.5 -29.5t41.5 -50.5t17 -73.5q0 -60 -30.5 -102t-103.5 -42q-25 0 -25 15q0 8 14 40.5 t14 53.5q0 31 -37 59.5t-89 28.5q-83 0 -148 -34t-102 -88t-56 -112t-19 -114q0 -38 24 -38q11 0 60 10.5t88 10.5q81 0 126 -41t45 -96q0 -54 -43.5 -94t-120.5 -40q-42 0 -78 14.5t-58 35.5t-39 42l-29 36q-11 14 -18 14q-13 0 -39.5 -24.5t-55.5 -65t-50 -104t-21 -129.5 q0 -85 31.5 -168t90 -153.5t154.5 -114.5t214 -44q126 0 239.5 59t181.5 155.5t68 202.5q0 86 -49.5 143t-135.5 57q-73 0 -123.5 -43.5t-50.5 -119.5q0 -52 29 -80.5t56 -28.5q24 0 39 11t24.5 22t19.5 11q14 0 14 -17q0 -27 -33.5 -54t-83.5 -27q-56 0 -97 36.5t-57 78.5 t-16 77q0 41 11.5 76t29.5 61.5t49.5 52.5t61.5 44t76.5 39.5t83.5 36.5l93 39q56 23 96 41q161 72 241 149.5t80 183.5q0 54 -44 101t-116 47q-22 0 -44.5 -6.5t-45.5 -32t-23 -67.5q0 -22 15 -36.5t33 -20t33 -15t15 -21.5q0 -34 -22 -58.5t-74 -24.5q-45 0 -70 36.5 t-25 92.5q0 89 73.5 149t156.5 60q89 0 155.5 -70t66.5 -164q0 -80 -33.5 -150t-84.5 -116.5t-109.5 -85.5t-109.5 -62t-84.5 -41.5t-33.5 -27.5q0 -6 19.5 -19.5t42.5 -32t42.5 -62t19.5 -102.5q0 -89 -35 -176.5t-103 -154.5q-121 -120 -248.5 -175t-305.5 -55 q-120 0 -221.5 29.5t-179 86.5t-121.5 147.5t-44 205.5zM503 881q0 -26 35 -59.5t78 -33.5q30 0 54 21t24 50q0 41 -35 59t-69 18q-33 0 -60 -17t-27 -38z" />
<glyph unicode="'" horiz-adv-x="490" d="M73 900q0 15 13 28t30.5 24t40.5 39t38 68q24 60 24 93q0 41 -16.5 71t-35.5 43.5t-35.5 30.5t-16.5 35t44 68t72 50q6 0 17.5 -5.5t27.5 -21t30 -37.5t24 -61t10 -86q0 -62 -21 -121.5t-52 -102t-65.5 -75.5t-62 -49.5t-40.5 -16.5q-26 0 -26 26z" />
<glyph unicode="(" horiz-adv-x="590" d="M130 424q0 142 27 282t70 251.5t97 213t108.5 175t104 128t84 81.5t47.5 27q35 0 35 -35q0 -12 -14 -30t-38 -42l-55 -55q-32 -32 -68 -75.5t-73.5 -95.5t-73.5 -123t-66.5 -151t-55 -185.5t-36.5 -221.5q-9 -88 -9 -168q0 -146 29 -277t70 -216.5t82 -149.5t70 -103 t29 -52q0 -16 -15.5 -28t-27.5 -12q-18 0 -55 41t-82.5 120.5t-86.5 181t-69 240t-28 279.5z" />
<glyph unicode=")" horiz-adv-x="590" d="M-113 -403q0 12 14 30t38 42l55 55q32 32 68 75.5t73.5 95.5t73.5 123t66.5 151t55 185.5t36.5 221.5q9 88 9 168q0 146 -29 277t-70 216.5t-82 149.5t-70 103.5t-29 51.5q0 16 15.5 28t27.5 12q18 0 55 -41t82.5 -120.5t86.5 -181t69 -240t28 -279.5q0 -142 -27 -282 t-70 -251.5t-97 -213t-108.5 -175t-104 -128t-84 -81.5t-47.5 -27q-35 0 -35 35z" />
<glyph unicode="*" horiz-adv-x="883" d="M120 784q0 20 56 49t111.5 52.5t55.5 30.5q0 9 -55.5 33.5t-111.5 53.5t-56 48t20 45.5t47 26.5q18 0 98.5 -55t87.5 -55q9 0 9 39q0 20 -3 77t-3 85q0 26 11.5 35t43.5 9q48 0 61 -12t13 -62q0 -18 -3.5 -66t-3.5 -68q0 -37 9 -37q11 0 93.5 55.5t95.5 55.5 q25 0 46 -25.5t21 -45.5q0 -18 -55.5 -47.5t-111.5 -54.5t-56 -33q0 -9 56 -33.5t111.5 -52.5t55.5 -47q0 -20 -20.5 -46.5t-48.5 -26.5q-17 0 -98 55t-87 55q-10 0 -10 -40q0 -20 3 -62.5t3 -56.5q0 -58 -11 -72t-61 -14q-28 0 -42.5 10t-14.5 40q0 17 3 70t3 78 q0 47 -9 47q-8 0 -91 -55t-96 -55q-26 0 -46 26.5t-20 45.5z" />
<glyph unicode="+" d="M43 434q0 16 1.5 23t10 13t26.5 6h348q27 0 35.5 9.5t8.5 29.5v359q0 21 9 26.5t34 5.5q18 0 26.5 -1.5t16 -11t7.5 -28.5v-335q0 -26 6.5 -40t28.5 -14h362q23 0 28 -9t5 -34q0 -20 -2 -28.5t-11.5 -14t-29.5 -5.5h-352q-16 0 -24 -5t-9.5 -11.5t-1.5 -20.5v-358 q0 -16 -6.5 -24.5t-13.5 -10t-21 -1.5q-33 0 -42.5 5.5t-9.5 31.5v357q0 25 -9.5 31t-38.5 6h-346q-25 0 -30.5 9.5t-5.5 39.5z" />
<glyph unicode="," horiz-adv-x="462" d="M87 -313q0 12 11 24t29.5 27t25.5 22q77 85 77 186q0 31 -11.5 55.5t-28 39.5t-33.5 27t-28.5 24t-11.5 23q0 10 46.5 68.5t70.5 58.5q40 0 79 -61.5t39 -180.5q0 -70 -46.5 -152.5t-102 -135t-87.5 -52.5q-12 0 -20.5 7.5t-8.5 19.5z" />
<glyph unicode="-" horiz-adv-x="577" d="M80 379q0 28 17 46.5t72 34.5q73 22 130.5 41.5t79 28t39.5 13.5t34 5q45 0 45 -45q0 -18 -0.5 -28t-6 -20t-10 -14t-19.5 -11t-26 -10l-40 -14q-29 -9 -51 -17q-50 -17 -96 -35l-64 -24q-18 -8 -36 -13t-33 -5q-35 0 -35 67z" />
<glyph unicode="." horiz-adv-x="455" d="M100 94q0 19 67 78q5 4 16 14.5t18 16.5l17 13q9 8 17.5 11.5t16.5 3.5q3 0 6 -1t6 -3l6 -4q3 -2 6 -6l6 -7q3 -3 7 -9l7 -9l7 -12l8 -11q5 -7 17.5 -18.5t19.5 -24t7 -31.5q0 -12 -8 -22.5t-29.5 -28t-27.5 -23.5l-17 -17q-12 -13 -18.5 -18.5t-16.5 -11t-20 -5.5 q-15 0 -25 8.5t-22.5 26t-21.5 26.5l-16 16q-11 10 -15 14l-9 11q-6 7 -7.5 12t-1.5 11z" />
<glyph unicode="/" horiz-adv-x="851" d="M40 -348q0 9 5 25t17.5 47.5t16.5 43.5q624 1686 629 1701q7 22 19.5 29t40.5 7q43 0 43 -24q0 -12 -29 -90l-623 -1702q-16 -44 -27.5 -54t-36.5 -10q-55 0 -55 27z" />
<glyph unicode="0" horiz-adv-x="1060" d="M65 349q0 97 35.5 192t99 173t163.5 126t219 48q172 0 292.5 -115.5t120.5 -296.5q0 -100 -30.5 -186.5t-82.5 -148.5t-120 -106t-143 -65.5t-151 -21.5q-80 0 -151.5 25t-128.5 73t-90 126t-33 177zM186 348q0 -144 83 -221t206 -77q73 0 144.5 28t130 79.5t95 133.5 t36.5 180q0 150 -88 232.5t-214 82.5q-57 0 -113 -17.5t-106.5 -53.5t-89 -87t-61.5 -123.5t-23 -156.5z" />
<glyph unicode="1" horiz-adv-x="632" d="M40 29q0 25 52 25q25 0 45 9.5t33.5 28.5t23 38.5t15.5 49.5t9.5 50t7 51t5.5 43q12 76 22 168.5t14.5 147.5t4.5 65q0 90 -115 98q-22 1 -46.5 14t-24.5 37q0 28 30 28q14 0 48 -8t60 -8q27 0 56.5 -0.5t72.5 -0.5q49 0 109.5 5.5t81.5 5.5q24 0 36 -10t12 -20 q0 -36 -70 -36q-32 0 -53 -15.5t-35.5 -49t-24.5 -97t-19 -149.5t-20 -215q-3 -33 -4 -50l-3 -20q-2 -13 -3 -25t-1 -23q0 -76 75 -100q1 0 36.5 -4t61.5 -14t26 -29q0 -27 -39 -27q-28 0 -99.5 7.5t-119.5 7.5q-47 0 -117.5 -7.5t-94.5 -7.5q-48 0 -48 37z" />
<glyph unicode="2" horiz-adv-x="922" d="M40 23q0 13 44.5 36.5t137 78.5t176.5 124q299 244 299 386q0 46 -25 81.5t-62 54t-70.5 27.5t-57.5 9q-190 0 -190 -96q0 -23 16 -63.5t16 -52.5q0 -10 -8.5 -18t-21.5 -8q-30 0 -50.5 2t-42.5 9t-33.5 22t-11.5 39q0 18 11.5 45t40.5 60t70 61t107.5 47t146.5 19 q60 0 116 -12.5t105 -37t78.5 -69t29.5 -101.5q0 -61 -52.5 -132.5t-127.5 -132.5t-149 -115l-128 -94q-52 -39 -52 -52q0 -18 92 -18h135q38 0 69.5 6t50 12t38.5 21t26.5 21.5t22.5 26.5t18 23q21 24 34 24q24 0 24 -22q0 -7 -8.5 -18.5t-29 -46t-42.5 -85.5l-4 -12 q-5 -13 -10 -23t-13 -22.5t-18 -19.5t-21 -7h-302q-134 0 -226 -2.5t-99 -2.5q-49 0 -49 28z" />
<glyph unicode="3" horiz-adv-x="798" d="M-40 -238q0 19 10.5 32t29.5 13q6 0 26 -16l44 -35q25 -18 67 -34t87 -16q75 0 146 34.5t120 85.5t78.5 109t29.5 107q0 94 -80 160t-174 66q-18 0 -55 -4t-67 -8.5t-31 -4.5q-26 0 -26 26q0 14 16.5 22.5t66 28.5t98.5 48q233 131 233 270q0 74 -62.5 123t-159.5 49 q-38 0 -71 -10t-51.5 -22.5t-37 -22.5t-31.5 -10q-28 0 -28 29q0 33 104.5 71.5t201.5 38.5q46 0 89.5 -8.5t87 -28t69.5 -58.5t26 -93q0 -39 -13 -75t-29.5 -61t-46 -52t-48.5 -41t-51 -35l-42 -28l-22 -16l-17 -11l-12 -8l-9 -6l-4 -4q-3 -2 -3.5 -3.5t-0.5 -3.5 q0 -6 33 -12.5t80 -20t94 -36t80 -70t33 -112.5q0 -52 -25.5 -115.5t-79.5 -129t-127 -119.5t-177.5 -88.5t-221.5 -34.5q-47 0 -71 3.5t-43.5 17.5t-26 42t-6.5 77z" />
<glyph unicode="4" horiz-adv-x="1016" d="M20 28q0 12 5.5 24t17.5 26.5t23 25.5l30 30q20 20 31 32l578 598q3 3 14 15t18 19l19 18q12 12 21.5 19.5t20 15t20 11.5t17.5 4q27 0 27 -34q0 -21 -8 -50t-25.5 -104.5t-34.5 -185.5l-18 -116q-36 -229 -36 -237q0 -33 55 -33q53 0 84 8t38 17t15 17t22 8q22 0 22 -24 q0 -19 -35 -92q-20 -40 -65 -40q-33 0 -66.5 1.5t-55 3t-23.5 1.5q-13 0 -16.5 -12t-6.5 -56q-3 -60 -8 -107q-2 -22 -4.5 -57.5t-4 -51t-5.5 -39t-10 -32.5t-16.5 -20.5t-25.5 -15t-36 -3.5q-32 0 -48 16.5t-16 33.5q0 15 27 158.5t27 151.5q0 25 -24 30.5t-107 5.5 q-132 0 -235 -6t-157 -6q-45 0 -45 32zM214 142q0 -21 27.5 -27.5t107.5 -6.5q24 0 81 1t83 1q8 0 22.5 0.5t21.5 0.5h11q11 0 18 1.5t12.5 3.5t9.5 8.5t6.5 11.5t4.5 18l3 22l5 30q3 21 6 37q53 325 53 365q0 31 -9 31q-5 0 -11.5 -4t-13.5 -11l-14 -14l-16 -16l-13 -14 q-96 -96 -245.5 -261t-149.5 -177z" />
<glyph unicode="5" horiz-adv-x="763" d="M-72 -236q0 48 34 48q14 0 33.5 -16t40 -36t66.5 -36t107 -16q46 0 96.5 17.5t99 52.5t87 83t62.5 115.5t24 143.5q0 66 -23 123t-69.5 103t-126.5 73.5t-185 28.5q-51 1 -61 7q-13 7 -13 34q0 7 53 163l56 167q7 19 10.5 26.5t20 17t43.5 9.5q7 0 60.5 -5.5t133.5 -5.5 q120 0 171 6.5t67 25.5q1 2 12.5 18.5t22 26t19.5 9.5q17 0 17 -18q0 -11 -5.5 -22t-25.5 -43t-39 -69q-11 -20 -17 -29.5t-18 -18.5t-27 -9q-71 0 -161 -0.5t-112 -0.5q-33 0 -53.5 0.5t-29 1t-10.5 0.5q-35 0 -43 -39q-4 -17 -11 -40l-10 -38q-4 -15 -4 -18 q0 -16 19.5 -24.5t51 -11.5t74.5 -11t86.5 -20t91 -41t83.5 -72q77 -89 77 -222q0 -106 -51 -216t-143 -200q-78 -76 -185.5 -122t-284.5 -46q-45 0 -67 24q-15 16 -29.5 52.5t-14.5 69.5z" />
<glyph unicode="6" horiz-adv-x="1003" d="M65 504q0 108 37 222.5t99 213.5t144 188t169.5 152.5t179 100.5t169.5 37q17 0 31.5 -8.5t14.5 -18.5q0 -13 -7.5 -20t-25 -11t-39 -7.5t-56 -14t-68.5 -26.5q-102 -48 -207.5 -147.5t-172 -203.5t-66.5 -170q0 -10 7 -10q6 0 29 17l52 38q29 20 81.5 37t110.5 17 q99 0 177.5 -34.5t126.5 -93t72.5 -131.5t24.5 -155q0 -93 -31 -181.5t-88 -160.5t-147 -116t-198 -44q-419 0 -419 530zM211 490q0 -106 28 -193.5t74.5 -143t103 -85.5t115.5 -30q83 0 144 54t90 136t29 178q0 78 -20 150t-58.5 131t-101 94.5t-140.5 35.5q-89 0 -150 -47 t-87.5 -118.5t-26.5 -161.5z" />
<glyph unicode="7" horiz-adv-x="968" d="M-48 -311q0 48 60 121l182 230q148 191 239 298l45 53l108 127l80 96q45 55 63.5 81t18.5 33q0 11 -48 11q-9 0 -36 -0.5t-45 -0.5h-161q-32 0 -113.5 -3t-110.5 -3q-27 0 -46.5 -2t-30 -4t-18.5 -9t-10 -9t-5.5 -11.5t-4.5 -11.5q-2 -4 -5.5 -14.5t-6 -14t-9.5 -7.5 t-18 -4q-40 0 -40 34q0 23 41 124q5 13 10.5 32.5t9 25.5t15 11.5t33.5 5.5h34q21 0 194 -5t302 -5q88 0 133 1q29 1 55 16t40 15q21 0 21 -24q0 -13 -9 -28t-31 -41t-30 -37l-171 -238l-75 -103l-56 -76l-36 -48l-29 -40l-21 -30l-26 -39l-32 -46l-48 -74l-66 -98 q-99 -149 -120 -186.5t-21 -67.5v-10q0 -20 -11.5 -31.5t-21 -14t-18.5 -2.5q-6 0 -43 0.5t-66 0.5q-45 0 -45 22z" />
<glyph unicode="8" horiz-adv-x="1077" d="M85 303q0 65 19 122.5t50 97.5t68.5 73.5t74.5 54.5t68 36t50 22.5t19 9.5t-23 18t-56 44t-66 64.5t-56 90t-23 110.5q0 58 26 119.5t75 117t132 91t184 35.5q74 0 140.5 -18t122 -54t88 -96t32.5 -137q0 -74 -29 -133t-70 -91.5t-82 -54t-70 -32.5t-29 -15t29 -19.5 t70.5 -44.5t83 -69t70.5 -104.5t29 -140.5q0 -132 -69.5 -236t-186 -159.5t-258.5 -55.5q-184 0 -298.5 98.5t-114.5 255.5zM207 323q0 -57 17 -110.5t51.5 -99.5t94 -74t136.5 -28q66 0 113 13.5t113 58.5q140 96 140 281q0 154 -178 256q-29 16 -109.5 46t-89.5 30 q-21 0 -94 -44.5t-108 -97.5q-86 -130 -86 -231zM314 1092q0 -57 34.5 -107.5t82.5 -82t100.5 -55t88 -33.5t44.5 -10q25 0 64 21t78.5 57t67.5 93t28 120q0 41 -18 84.5t-51.5 82t-90.5 63.5t-127 25q-81 0 -147.5 -27.5t-110 -87.5t-43.5 -143z" />
<glyph unicode="9" horiz-adv-x="1029" d="M65 377q0 82 32 169.5t89 164.5t150 127t202 50q84 0 159 -27.5t135.5 -81t96 -143t35.5 -204.5q0 -264 -159 -495q-132 -190 -357 -299q-121 -58 -273 -58q-30 0 -45.5 6t-18 12.5t-2.5 17.5q0 20 10.5 25.5t30.5 5.5q74 0 155.5 31t147 76.5t120 96t84.5 91.5t30 60 q0 9 -9 9q-13 0 -41.5 -12.5t-72.5 -25t-93 -12.5q-78 0 -148 23t-129 70t-94 130t-35 193zM210 443q0 -68 20 -136t58.5 -128t105.5 -97.5t151 -37.5q63 0 111 22t76 56t45.5 81.5t23.5 92t6 94.5q0 174 -95.5 302t-208.5 128q-84 0 -152 -53.5t-104.5 -139.5t-36.5 -184z " />
<glyph unicode=":" horiz-adv-x="611" d="M143 102q0 10 22.5 33.5t35.5 33.5q16 12 36 31.5t33 28t28 8.5q6 0 13 -6t13 -13l18 -23l20 -26l10 -12l11 -11l8.5 -11t6.5 -10.5t2 -8.5q0 -25 -63 -84q-8 -8 -24 -25.5t-26 -26.5t-15 -9t-10 1.5t-9.5 4.5t-8.5 6t-9.5 9t-8.5 9t-9 11t-9 11q-9 11 -27.5 28.5 t-28 29.5t-9.5 21zM214 753q0 17 60 71t78 54q14 0 59 -52t45 -61q0 -27 -62.5 -79t-78.5 -52q-6 0 -14.5 9.5t-20 24.5t-18.5 22l-12 12q-7 6 -10.5 10t-8.5 9t-7.5 8.5t-5 7.5t-3.5 8t-1 8z" />
<glyph unicode=";" horiz-adv-x="611" d="M135 -313q0 12 11 24t29.5 27t25.5 22q77 85 77 186q0 31 -11.5 55.5t-28 39.5t-33.5 27t-28.5 24t-11.5 23q0 10 46.5 68.5t70.5 58.5q40 0 79 -61.5t39 -180.5q0 -70 -46.5 -152.5t-102 -135t-87.5 -52.5q-12 0 -20.5 7.5t-8.5 19.5zM204 753q0 9 65.5 69.5t72.5 60.5 q14 0 61.5 -59t47.5 -68q0 -24 -62 -79t-78 -55q-6 0 -16 11t-22.5 28t-19.5 24q-49 49 -49 68z" />
<glyph unicode="&#x3c;" d="M63 433q0 17 5 25t27 16l648 237q188 69 196 69q38 0 38 -51q0 -22 -32 -32l-626 -229q-86 -33 -86 -42q0 -3 4.5 -6t14.5 -7t19 -7l24 -8l24 -8l636 -230q22 -8 22 -27q0 -16 -11.5 -32.5t-36.5 -16.5q-9 0 -274 97l-562 205q-21 7 -25.5 15.5t-4.5 31.5z" />
<glyph unicode="=" d="M43 234q0 16 1.5 23t10 13t26.5 6h882q23 0 28 -9t5 -34q0 -20 -2 -28.5t-11.5 -14t-29.5 -5.5h-874q-25 0 -30.5 9.5t-5.5 39.5zM43 634q0 16 1.5 23t10 13t26.5 6h882q23 0 28 -9t5 -34q0 -20 -2 -28.5t-11.5 -14t-29.5 -5.5h-874q-25 0 -30.5 9.5t-5.5 39.5z" />
<glyph unicode="&#x3e;" d="M63 133q0 19 22 27l636 230l24 8l24 8q9 3 19 7t14.5 7t4.5 6q0 9 -86 42l-626 229q-32 10 -32 32q0 51 38 51q8 0 196 -69l648 -237q22 -8 27 -16t5 -25q0 -23 -4.5 -31.5t-25.5 -15.5l-562 -205q-265 -97 -274 -97q-25 0 -36.5 16.5t-11.5 32.5z" />
<glyph unicode="?" horiz-adv-x="845" d="M207 102q0 7 6 16t16.5 18t19.5 16t18.5 13.5t10.5 7.5q17 13 33 30t26 24t25 7q5 0 10 -3t11 -9l11 -14q6 -6 15 -18t17 -21q4 -4 11.5 -13t12.5 -14.5t10.5 -13t8.5 -13t3 -9.5q0 -9 -9 -19.5t-31.5 -29.5t-28.5 -25l-24 -25q-17 -18 -27.5 -27t-15.5 -9 q-7 0 -13.5 2.5t-14.5 10t-12 12t-13.5 16.5t-12.5 15q-10 11 -27.5 27.5t-26.5 27.5t-9 20zM296 1245q0 16 27.5 44t78 52.5t102.5 24.5q62 0 120 -28.5t97.5 -85.5t39.5 -129q0 -34 -9 -67.5t-26.5 -62t-30.5 -47t-33 -41.5t-23 -27l-57 -72l-54 -67l-42 -55 q-28 -37 -37 -55l-23 -46q-14 -28 -18.5 -50.5t-4.5 -46.5q0 -12 3 -37t3 -32q0 -20 -19 -20q-51 0 -51 133q0 49 28 115t67 131l80 126q39 63 67 120.5t28 93.5q0 64 -53.5 110t-110.5 46q-40 0 -79.5 -20t-51.5 -20q-18 0 -18 13z" />
<glyph unicode="@" horiz-adv-x="1681" d="M90 586q0 143 35 264.5t92 206t134 151.5t156.5 107t164.5 66.5t152 36t125 9.5q142 0 263.5 -49.5t203.5 -134t128.5 -198.5t46.5 -242q0 -111 -38.5 -211.5t-102.5 -172t-149.5 -113.5t-175.5 -42q-53 0 -89 17t-49.5 41t-19.5 48t-8.5 41t-6.5 17t-22 -20l-46 -50 q-27 -30 -62.5 -59.5t-85.5 -50t-101 -20.5q-97 0 -144 54t-47 145q0 87 39.5 187.5t103 185.5t152.5 142t179 57q38 0 90.5 -9t55.5 -9q13 0 26 20.5t28 41t33 20.5q17 0 17 -40q0 -7 -25.5 -106.5t-51 -223t-25.5 -190.5v-25q0 -51 21 -86.5t64 -35.5q156 0 256.5 117.5 t100.5 339.5q0 128 -44 231t-121 169t-177 101.5t-215 35.5q-202 0 -369.5 -90.5t-268 -261t-100.5 -389.5q0 -192 81 -343t230 -236.5t342 -85.5q82 0 155.5 13.5t122 33t84.5 39.5t57 33.5t27 13.5q23 0 23 -24q0 -12 -22 -33.5t-67.5 -47.5t-104 -49t-141 -38.5 t-170.5 -15.5q-160 0 -295 48.5t-234 138t-155 226t-56 304.5zM581 465q0 -60 36 -91t92 -31q58 0 112 35t74 63q17 24 25.5 47t25.5 88q82 308 82 316q0 13 -45 27t-82 14q-34 0 -75.5 -19t-84.5 -59t-79 -94t-58.5 -132t-22.5 -164z" />
<glyph unicode="A" horiz-adv-x="1580" d="M40 19q0 15 12 23.5t34 16.5q4 1 6 2q20 7 33 15t27.5 20t30.5 36l35 56q20 32 51 90l67 123l94 171l122 222l160 285l200 351q17 29 23.5 34.5t22.5 5.5t23 -11q6 -11 48 -157q21 -77 45 -155l171 -537q121 -374 132 -402q35 -90 54 -111.5t76 -39.5q17 -6 25 -14t8 -26 q0 -12 -12 -17t-52 -5q-22 0 -62 3.5t-70 3.5q-38 0 -97 -5.5t-84 -5.5q-65 0 -65 24q0 19 21 30.5t46.5 16t46.5 22.5t21 49q0 46 -42 189t-43 147l-2 7q-1 6 -1.5 8t-2.5 8.5t-4.5 9t-6.5 8t-9 8.5l-12 5q-7 3 -16.5 4.5t-20.5 1.5t-90.5 -1t-157.5 -1q-157 0 -207.5 2.5 t-67.5 2.5q-54 0 -71 -30q-58 -100 -100.5 -187.5t-57.5 -127t-15 -46.5q0 -39 21.5 -59t47.5 -22.5t47.5 -10t21.5 -24.5q0 -14 -4 -21t-9 -8t-17 -1q-140 4 -179 4q-35 0 -154 -4q-41 0 -41 24zM556 640q0 -18 66 -18q10 0 29 0.5t49 0.5t121 0.5t227 0.5q16 0 24 6t9 11 t1 15q0 24 -90 294t-108 270q-11 0 -169.5 -285.5t-158.5 -294.5z" />
<glyph unicode="B" horiz-adv-x="1253" d="M40 18q0 10 8 21.5t22 11.5q23 0 41.5 6.5t31 21.5t20.5 27t14 36.5t8.5 36t6 39t4.5 32.5q24 162 68 574.5t44 457.5q0 51 -52 88q-17 12 -42 17t-43 6t-31.5 8.5t-13.5 24.5q0 11 9.5 17.5t17.5 6.5q5 0 54 -4t85 -4q41 0 124.5 1t96.5 1q46 0 120 1t108 1 q86 0 159 -18t131.5 -56t92 -102t33.5 -150q0 -68 -29.5 -129t-72 -101t-85 -69.5t-72 -45.5t-29.5 -18q0 -5 30.5 -13.5t73.5 -27.5t86 -50t73.5 -93t30.5 -145q0 -49 -19 -105.5t-56 -114t-102 -107t-147 -76.5q-99 -32 -261 -32q-72 0 -167.5 3.5t-109.5 3.5 q-19 0 -95 -6t-122 -6q-44 0 -44 30zM336 152q0 -31 17.5 -50t74.5 -32t158 -13q86 0 157 24.5t115.5 61.5t75.5 84.5t43.5 90.5t12.5 82q0 61 -19 115t-58.5 100.5t-106.5 77t-155 37.5q-109 9 -167 9h-60q-13 0 -20.5 -40t-21.5 -157l-15 -130zM426 828q0 -22 26 -28 q34 -9 249 -9q65 0 117.5 22t84.5 55.5t53.5 75t30 78t8.5 67.5q0 120 -90 195q-53 45 -118 66t-194 21q-59 0 -79.5 -17.5t-28.5 -69.5l-24 -167q-35 -236 -35 -289z" />
<glyph unicode="C" horiz-adv-x="1560" d="M80 638q0 121 30 237t94.5 221.5t156 184.5t224.5 126t291 47q79 0 157.5 -16t135 -39t101.5 -46t72 -39t31 -16q7 0 21 16.5t23 16.5q8 0 12.5 -1.5t8.5 -9.5t4 -22q0 -89 3 -149.5t6 -82.5t6 -40.5t3 -32.5q0 -49 -28 -49q-9 0 -16.5 7.5t-15 22.5t-12.5 30l-15 40 q-9 25 -16 42q-25 63 -52 96t-77 67q-188 127 -385 127q-140 0 -254.5 -59.5t-186 -158t-110 -220.5t-38.5 -253q0 -122 30.5 -228t83.5 -183.5t124 -133t153.5 -83.5t170.5 -28q119 0 234 53t208 157q24 27 44.5 71t35 70t33.5 26q5 0 11 -2t13.5 -11t7.5 -25 q0 -15 -5 -34.5t-15.5 -50.5t-13.5 -42q-7 -24 -13 -51t-8.5 -40t-9 -24.5t-17.5 -17.5q-141 -74 -270.5 -115t-276.5 -41q-139 0 -255 37.5t-196 102t-135.5 152.5t-81.5 187t-26 207z" />
<glyph unicode="D" horiz-adv-x="1571" d="M40 27q0 17 16.5 24.5t38.5 10t47 24.5t39 64q9 29 18 88l139 1023q4 34 4 37q0 31 -29 57t-63 28q-95 8 -95 44q0 15 14.5 26.5t49.5 11.5q34 0 95.5 -12t112.5 -12q50 0 141.5 10.5t177.5 10.5q201 0 350.5 -46.5t236 -128t127.5 -182t41 -220.5q0 -126 -42.5 -256.5 t-117.5 -247.5q-46 -71 -131 -151.5t-137 -112.5q-193 -117 -463 -117q-53 0 -137 3t-181 3q-72 0 -134 -8.5t-72 -8.5q-19 0 -32.5 12t-13.5 26zM353 146q0 -39 20 -58t77 -19h180q89 0 211.5 43.5t206.5 119.5q67 61 118 141t77.5 151t43 147.5t21 124t4.5 87.5 q0 65 -14.5 128t-55 131t-103.5 118.5t-170.5 83.5t-245.5 33q-56 0 -82.5 -1.5t-55 -6.5t-41 -18t-24 -33t-20.5 -55t-46 -314l-69 -539q-32 -259 -32 -264z" />
<glyph unicode="E" horiz-adv-x="1293" d="M40 29q0 10 12 19t34 10q65 4 91 56q20 40 43 180q6 36 7 40q38 244 42 273l73 620q3 29 3 42q0 39 -11.5 64t-29 35t-38 15.5t-38 7t-29 8.5t-11.5 21q0 16 10 22.5t37 6.5q18 0 85 -1t182.5 -2t251.5 -1q44 0 244.5 4.5t228.5 4.5q36 0 36 -39q0 -11 -3.5 -46t-3.5 -62 q0 -15 3 -51.5t3 -59.5q0 -20 -8 -39t-19 -19q-19 0 -25 14.5t-5.5 35t-8.5 51.5t-30 56q-8 10 -29 22.5t-72.5 26.5t-114.5 15q-76 1 -165 3.5t-151 2.5q-85 0 -107 -18q-20 -16 -31 -79q-2 -8 -7 -41q-7 -48 -28.5 -223t-21.5 -193q0 -20 13.5 -24.5t74.5 -4.5 q187 0 268 4.5t105.5 13.5t43.5 32q16 20 28 42t16 34.5t10 21t15 8.5q25 0 25 -23q0 -19 -17.5 -96.5t-22.5 -116.5q-3 -21 -4 -79.5t-8 -91t-26 -32.5q-21 0 -21 34q0 97 -36 123q-60 43 -218 43q-61 0 -99 0.5t-48 0.5t-16.5 0.5t-12.5 0.5q-37 0 -56.5 -7t-21.5 -29 q-7 -62 -25 -183l-34 -216q-15 -95 -15 -109q0 -49 49 -62t209 -13q120 0 215.5 15t149.5 37.5t94 48.5t58 48.5t33.5 37.5t26.5 15q21 0 21 -27q0 -34 -39.5 -99t-97.5 -119.5t-102 -54.5q-148 0 -367.5 11t-264.5 11q-58 0 -120 -3t-110 -3q-33 0 -50 5.5t-19.5 10.5 t-2.5 13z" />
<glyph unicode="F" horiz-adv-x="1199" d="M40 17q0 12 12 22t32 12q30 3 53 21.5t37.5 47.5t25.5 73.5t18.5 91.5t15.5 108q5 40 8 60q26 182 51 378.5t38 311t13 126.5q0 47 -19.5 73.5t-47.5 33.5t-55.5 9.5t-47 10.5t-19.5 28q0 17 10.5 25t36.5 8q18 0 93 -3t198.5 -6t259.5 -3q44 0 192.5 2t176.5 2 q38 0 38 -34v-108q0 -15 4.5 -51.5t4.5 -59.5q0 -56 -25 -56q-16 0 -23 13.5t-8.5 34.5t-16.5 53.5t-44 62.5q-49 51 -198 59q-133 7 -152 7h-69q-31 0 -50.5 -1.5t-34.5 -8t-22.5 -12.5t-14 -23.5t-9.5 -32t-8 -46.5q-2 -12 -3 -19q-8 -51 -29.5 -220t-21.5 -187 q0 -22 14.5 -30t71.5 -8h125q143 0 193 5q36 4 59.5 18.5t33.5 33t16.5 37t15 30.5t23.5 12q20 0 20 -22t-20 -118.5t-20 -182.5q0 -27 -0.5 -40.5t-2.5 -31.5t-8 -25.5t-15 -7.5q-33 0 -33 43v23q0 75 -31 101q-37 32 -175 37q-62 3 -211 3q-71 0 -75 -46q-6 -59 -21 -173 l-26 -196q-11 -84 -11 -99q0 -47 22.5 -75t55 -36.5t65 -12.5t55 -12.5t22.5 -26.5q0 -14 -6.5 -19t-24.5 -5q-6 0 -74 5t-137 5q-50 0 -109 -4t-98.5 -8.5t-40.5 -4.5q-26 0 -39.5 8t-13.5 20z" />
<glyph unicode="G" horiz-adv-x="1584" d="M80 735q0 59 12.5 127t46 152.5t85 159t138 142t195.5 104.5q136 47 267 47q91 0 177.5 -15.5t146 -38t105.5 -45t72.5 -38t30.5 -15.5q7 0 29 20.5t31 20.5q15 0 20 -8.5t5 -29.5q0 -8 -1.5 -43t-1.5 -63q0 -40 7 -102t7 -70q0 -47 -35 -47q-17 0 -25 19.5t-22 61.5 t-38 77q-78 117 -226 178.5t-315 61.5q-71 0 -139 -15.5t-142.5 -60.5t-129 -115.5t-90.5 -191t-36 -276.5q0 -137 41 -260.5t114 -216.5t182 -148t237 -55q75 0 127.5 7.5t107.5 34.5t88.5 74t54.5 130t21 199v13q0 59 -4 96q-4 40 -34 54t-63.5 10.5t-61 3.5t-27.5 34 q0 12 20 19.5t46 7.5q25 0 94 -2.5t95 -2.5q42 0 82.5 2t65 3.5t25.5 1.5q39 0 39 -25q0 -15 -14.5 -23t-33 -11t-36.5 -20t-23 -49q-18 -111 -31.5 -236.5t-13.5 -156.5v-64q0 -23 -0.5 -32t-6.5 -16t-12.5 -8t-27 -7t-40.5 -14l-31 -13l-53 -20q-21 -8 -66.5 -21t-85 -21 t-95 -14.5t-109.5 -6.5q-183 0 -326 56t-234 157.5t-138 239t-47 303.5z" />
<glyph unicode="H" horiz-adv-x="1610" d="M40 23q0 16 10 22.5t24.5 8t37 11t41.5 28.5q7 7 13 16.5t11 25.5t9 32t8.5 45.5t7.5 56.5l10 73l9.5 88t12.5 109l15 128l33 275l30 238q11 86 11 87q0 41 -24 67t-52 33t-61 12t-39 8q-15 6 -15 24q0 30 55 30q22 0 83.5 -6.5t126.5 -6.5q51 0 115 6.5t78 6.5 q36 0 36 -30q0 -13 -19.5 -19t-46.5 -12.5t-40 -21.5q-23 -26 -33.5 -75.5t-25.5 -170.5t-32 -215q-10 -56 -10 -79q0 -17 5.5 -21.5t19.5 -4.5h42q23 0 72 -0.5t110 -1.5l186 -1q126 -1 272 -2q11 0 23.5 -0.5t18.5 -0.5q34 0 44.5 14.5t16.5 70.5q39 334 39 368 q0 49 -23 84t-59 50q-11 5 -41 8t-50 9.5t-20 20.5q0 27 55 27q22 0 88 -3.5t131 -3.5q51 0 107 4t70 4q44 0 44 -31q0 -11 -11 -17t-25.5 -8t-32 -9t-27.5 -19q-40 -46 -60 -238q-24 -230 -53 -449l-44 -326q-15 -108 -15 -138q0 -26 2.5 -47t8 -36.5t10.5 -26.5t15 -18 l16 -12q7 -5 19.5 -7.5t18.5 -3.5t20 -2t18 -1q68 -7 68 -38q0 -24 -38 -24q-39 0 -102 9.5t-107 9.5q-60 0 -116 -9t-69 -9q-65 0 -65 28q0 16 9.5 22t30.5 9q20 2 36 9.5t26.5 21t17.5 25t11.5 32.5t6.5 31.5t4 33t3 28.5q59 428 59 443q0 21 -12 27t-58 6q-13 0 -80.5 -1 t-125.5 -1h-481h-18q-6 0 -11.5 -2t-7.5 -2.5t-4.5 -6.5t-2.5 -8.5t-1.5 -14.5t-2.5 -18l-15 -106q-42 -297 -42 -342q0 -30 3 -52.5t12 -37.5l14 -25q6 -10 20 -16.5t20.5 -9t24 -6.5t22.5 -5q6 -1 18.5 -4t18 -4.5t12.5 -4.5t10 -7.5t3 -11.5q0 -19 -33 -19 q-41 0 -100.5 2.5t-116.5 2.5q-23 0 -79 -6t-81 -6q-71 0 -71 30z" />
<glyph unicode="I" horiz-adv-x="666" d="M40 23q0 16 16 22t37 8t46.5 25t41.5 69q1 2 71.5 558t70.5 562q0 41 -24 67t-52 33t-61 12t-39 8q-15 6 -15 24q0 30 55 30q22 0 83.5 -8t126.5 -8q51 0 115 6.5t78 6.5q36 0 36 -30q0 -13 -19.5 -19t-46.5 -12.5t-40 -21.5q-40 -46 -60 -238q-24 -231 -54 -448.5 t-46.5 -326.5t-16.5 -139q0 -39 5.5 -66.5t12.5 -42.5t21 -24.5t23 -12t27.5 -6t26.5 -5.5t18.5 -3.5t17.5 -3t13.5 -3.5t9.5 -6t3 -11q0 -14 -6 -21t-13 -8t-24 -1q-7 0 -82 6.5t-125 6.5q-31 0 -85.5 -6.5t-73.5 -6.5q-72 0 -72 34z" />
<glyph unicode="J" horiz-adv-x="829" d="M-20 -79q0 23 23.5 90t52.5 67q13 0 24.5 -17.5t21 -38.5t32.5 -38.5t57 -17.5q107 0 164 309q19 105 54 423q2 15 3 28l62 512q6 46 6 51q0 27 -13.5 46t-39.5 28t-42.5 12t-44.5 6q-51 5 -51 37q0 13 14 22t40 9q24 0 77.5 -8.5t121.5 -8.5t131.5 8t68.5 8q47 0 47 -25 q0 -17 -8.5 -24t-22.5 -6t-31.5 -5.5t-34 -19.5t-32.5 -50.5t-26 -95.5q-4 -23 -37.5 -314.5t-66.5 -507.5q-22 -143 -75 -264q-53 -120 -164.5 -198.5t-204.5 -78.5q-48 0 -77 17.5t-29 44.5z" />
<glyph unicode="K" horiz-adv-x="1585" d="M40 26q0 16 12 22t31.5 9.5t40 12t41 36.5t32.5 75q22 88 77 563t55 525q0 49 -39.5 82.5t-99.5 37.5q-20 1 -28.5 12t-8.5 23t12.5 18t24.5 6q1 0 11 -1l29 -3q19 -2 45.5 -4t66.5 -3t84 -1q51 0 106 3.5t67 3.5q38 0 38 -20q0 -10 -7.5 -14.5t-26 -11t-33.5 -15.5 q-46 -27 -64 -66q-23 -51 -44 -239q0 -1 -24 -229l-8 -72q0 -18 15 -18q17 0 239 165l393 298q1 1 10 8t12.5 10t13.5 11t15 12.5t14 13.5l14 14q5 5 11 13t9.5 14.5t6 13t2.5 12.5q0 19 -15.5 29.5t-33.5 13.5t-33.5 11.5t-15.5 23.5q0 7 2 11.5t15 9t38 4.5q5 0 82 -6 t108 -6q40 0 98.5 5.5t71.5 5.5q43 0 43 -32q0 -29 -28 -38q-11 -4 -38 -8t-52 -12.5t-92.5 -48t-164.5 -109.5l-443 -319l-29 -20l-32 -22q-13 -8 -26.5 -19t-20 -20t-6.5 -17q0 -4 2 -8t4 -6.5t6 -6.5l6 -6l191 -215l148 -170l108 -122q58 -63 90.5 -91t75 -54.5t80.5 -35 t89 -11.5q48 -3 48 -30q0 -28 -36 -28q-7 0 -87 4t-116 4h-67q-26 0 -36 -0.5t-13 -0.5q-20 0 -54 36.5t-183 214.5l-208 248q-140 167 -154 179q-13 12 -29 12q-19 0 -40 -19q-13 -11 -18 -17t-12.5 -36t-13.5 -87q-2 -22 -11.5 -91.5t-15.5 -126t-6 -85.5q0 -30 0.5 -51.5 t4.5 -39.5l6 -28q3 -11 13 -20t15.5 -13.5t23.5 -9t28 -5.5l37 -6q64 -9 64 -32q0 -26 -48 -26q-60 0 -101.5 3.5t-70.5 3.5q-62 0 -141.5 -5.5t-90.5 -5.5q-61 0 -61 30z" />
<glyph unicode="L" horiz-adv-x="1196" d="M40 20q0 15 10 22.5t24 9t36 10t39 24.5q12 11 18.5 19t12.5 19.5t10 34.5l8 50q5 27 11 80.5l13 112.5l22 161l28 209q59 430 59 522q0 57 -31 83.5t-93 28.5q-25 1 -42.5 13.5t-17.5 27.5q0 26 33 26q4 0 30.5 -4t79.5 -8t123 -4q65 0 121.5 3.5t65.5 3.5q43 0 43 -26 q0 -14 -13 -21t-33 -12.5t-40.5 -15t-38.5 -36t-24 -68.5q-11 -70 -78 -570.5t-67 -524.5q0 -37 5.5 -56t29 -33.5t66.5 -18.5t121 -4q118 0 211.5 11t149 29t95.5 39.5t59.5 43t32 39.5t22 29t20.5 11q25 0 25 -31q0 -43 -46 -120t-69 -97q-36 -31 -61.5 -40t-63.5 -9h-97 q-96 0 -272.5 11.5t-230.5 11.5q-58 0 -134 -6.5t-124 -6.5t-48 27z" />
<glyph unicode="M" horiz-adv-x="1865" d="M40 21q0 5 0.5 8t1.5 5.5t4 5.5l7 4q3 2 10 4l13 6l20 7q12 5 23 9q50 20 77 102q16 49 55 259q2 15 5 29q5 28 36.5 181t49 259.5t17.5 162.5q0 14 -1 44t-1 45q0 106 -63 190q-24 32 -49.5 41.5t-74.5 9.5q-4 0 -15.5 -0.5t-14.5 -0.5q-12 0 -21.5 8t-9.5 24 q0 35 145 35h13q30 0 71.5 0.5t58.5 0.5q31 0 53 -39.5t86 -198.5l21 -52l175 -413l165 -359q67 -140 75 -140q11 0 85 142l246 484l43 84l57 113l49 101l46 102l34 79q11 25 23.5 48.5t22.5 31t24 7.5q1 0 24 -0.5t38 -0.5q22 0 65 4.5t47 4.5q24 0 36.5 -8.5t12.5 -20.5 q0 -8 -9 -18t-19 -12t-25 -4l-23 -3q-8 -1 -20 -6.5t-19 -14t-16 -25.5t-15 -42t-12.5 -62t-11.5 -86q-10 -94 -10 -226v-160q0 -60 -2.5 -159.5t-2.5 -131.5q0 -15 -0.5 -26.5t-1 -25t-1 -67t-0.5 -143.5q0 -53 7 -84.5t26.5 -50t45 -25.5t72.5 -11q14 -1 22 -9t8 -17 q0 -29 -56 -29q-20 0 -92 6t-121 6q-27 0 -79 -6t-91 -6q-20 0 -31.5 8t-11.5 17q0 16 16.5 24.5t38 13t45 25t34.5 56.5q13 43 21 204t9.5 272.5t1.5 186.5q0 237 -13 237q-21 0 -80 -115l-299 -581l-113 -225q-38 -79 -48.5 -93t-29.5 -14q-14 0 -73 128l-340 767 q-35 81 -42.5 94.5t-14.5 13.5t-17.5 -35t-12.5 -55q-17 -142 -71.5 -427t-54.5 -347q0 -34 18.5 -54t44.5 -26.5t52 -10t44.5 -11t18.5 -23.5q0 -25 -42 -25q-40 0 -111.5 3.5t-80.5 3.5q-4 0 -50 -4t-99 -4q-48 0 -48 26z" />
<glyph unicode="N" horiz-adv-x="1647" d="M40 13q0 14 12.5 19.5t35 12.5t38.5 21q15 13 26.5 29t20.5 31.5t17 44.5t13.5 51.5t13.5 69t13 80.5l16 104l18 122q3 16 21.5 129.5t27 170t18 140t9.5 132.5q0 27 -4.5 49t-8 35t-17.5 30.5t-18 22t-26 23.5t-26 23q-25 23 -72 26t-79 6.5t-32 29.5q0 39 137 39 q13 0 42.5 -3t43.5 -3q4 0 28 0.5t33 0.5t16 -1t12.5 -1.5t11 -5t9 -7t10.5 -11.5l11 -15l15 -20l17 -24q484 -670 714 -1037q29 -46 36.5 -56t16.5 -10q27 0 67 251.5t66.5 490.5t26.5 259q0 48 -17 76.5t-41 38.5t-48.5 15t-41.5 15t-17 31t50 21q9 0 66.5 -5t89.5 -5 q49 0 89.5 5t53.5 5q31 0 42 -6.5t11 -23.5q0 -5 -3.5 -9.5t-10.5 -7.5t-13.5 -5t-17 -4.5t-16.5 -4.5q-55 -17 -79.5 -88.5t-40.5 -208.5q-81 -682 -161 -1057q-13 -57 -42 -57q-21 0 -53 48l-134 213q-102 166 -227 346l-126 180l-93 130l-58 82l-38 56.5t-18 31.5 q-12 24 -34 24q-29 0 -39 -96q-24 -225 -66.5 -489t-42.5 -351q0 -48 26 -74.5t56.5 -31.5t56.5 -14.5t26 -27.5q0 -24 -36 -24q-11 0 -53.5 3t-150.5 3q-42 0 -84 -3.5t-49 -3.5q-46 0 -46 24z" />
<glyph unicode="O" horiz-adv-x="1669" d="M80 644q0 121 33.5 239t102 223.5t163.5 186t226.5 127.5t282.5 47q141 0 258 -38.5t198 -104t137 -155t82 -190t26 -209.5q0 -96 -21.5 -191t-62.5 -186t-107.5 -169t-151 -137.5t-197.5 -93t-243 -33.5q-329 0 -527.5 188t-198.5 496zM257 710q0 -161 48 -292.5 t128 -214t180 -126.5t208 -44q109 0 204.5 43t165 116t119.5 168.5t75 202.5t25 216q0 177 -44 289q-60 153 -189 245t-316 92q-117 0 -218 -44t-170.5 -116t-119 -163.5t-73 -186.5t-23.5 -185z" />
<glyph unicode="P" horiz-adv-x="1180" d="M40 21q0 15 11 21t28 9t35.5 10t36.5 31.5t28 66.5q4 17 12 80t21 178.5t21 180.5l5 34l10 89l16 123l16 140q9 72 15.5 135.5t11 113t4.5 69.5q0 46 -28.5 77.5t-111.5 34.5q-37 1 -37 28q0 24 47 24q38 0 173 -6t148 -6q46 0 117 7t105 7q172 0 274 -86.5t102 -253.5 q0 -130 -70 -248t-191 -169q-80 -34 -217 -34q-57 0 -98.5 10t-41.5 24q0 4 6 4q2 0 15 -1l39 -1q25 -1 58 -1q52 0 109.5 26.5t109.5 74t85.5 125t33.5 168.5q0 52 -13 93.5t-38.5 71t-45 45.5t-49.5 35q-78 49 -189 49q-26 0 -43.5 -1.5t-27.5 -2t-16 -4.5l-8 -6 q-2 -1 -4 -9t-3 -9q-23 -60 -38.5 -163t-66.5 -526l-42 -351q-1 -8 -6.5 -46.5t-10 -73t-4.5 -43.5q0 -36 19.5 -60t46.5 -35t54.5 -17.5t47 -13.5t19.5 -18q0 -31 -38 -31q-13 0 -82 7.5t-130 7.5q-14 0 -85 -6.5t-80 -6.5q-26 0 -45.5 7.5t-19.5 21.5z" />
<glyph unicode="Q" horiz-adv-x="1653" d="M79 -82q0 62 17 109.5t40.5 72t47.5 40.5t41 25t17 16q0 10 -26 45l-55 78q-30 44 -55.5 128.5t-25.5 182.5q0 66 10.5 138t38 156.5t68.5 162t107 151t149 127t200 86t254 32.5q44 0 85 -4t75 -11.5t63.5 -16t55.5 -20.5l44 -22q19 -9 38 -22l28 -20q9 -7 21 -17.5 t14 -11.5q69 -55 106 -105q76 -102 111 -227t35 -239q0 -151 -52 -289.5t-138 -238.5t-198.5 -165t-232.5 -79q-50 -6 -75.5 -12.5t-30.5 -11.5t-5 -13q0 -5 96 -58t227 -107.5t202 -54.5q46 0 81 16t51 35l30 34q15 16 24 16q17 0 17 -20q0 -35 -36 -85t-97.5 -89.5 t-121.5 -39.5q-96 0 -224 50t-248 122l-230 142q-111 72 -198.5 122t-123.5 50q-64 0 -111 -57t-47 -125q0 -45 12 -80.5t23.5 -56t11.5 -29.5q0 -10 -6.5 -19t-18.5 -9q-15 0 -28 8.5t-27 30t-22 67.5t-8 112zM253 667q0 -126 34.5 -238t102.5 -203t181 -144.5t257 -53.5 q113 0 209.5 46t163 123t114 177t69.5 207t22 215q0 209 -77 342q-27 47 -70 92.5t-100.5 86.5t-133 66t-155.5 25q-124 0 -235 -49.5t-196.5 -140.5t-135.5 -234t-50 -317z" />
<glyph unicode="R" horiz-adv-x="1304" d="M40 18q0 21 13.5 29.5t44 16t50.5 18.5q21 12 29.5 33.5t18 87t27.5 231.5q27 251 50 442q6 52 19 152l23 169q9 69 9 81q0 30 -11.5 52t-31.5 34t-40.5 17.5t-44.5 7.5q-51 4 -59 11q-6 5 -6 13q0 22 14 29t47 7q21 0 80.5 -5.5t86.5 -5.5q51 0 150 8.5t187 8.5 q84 0 138 -5q139 -12 220.5 -101t81.5 -209q0 -118 -82.5 -223t-242.5 -161q-19 -6 -19 -22q0 -34 106 -273.5t158 -309.5q41 -55 79 -76.5t90 -21.5q39 0 39 -22q0 -11 -11.5 -21t-46 -18.5t-86.5 -8.5q-64 0 -101.5 7t-69 33.5t-52.5 63t-54 109.5q-56 124 -110 270 t-78 198.5t-48 52.5q-6 0 -47 -1t-47 -1q-16 0 -39.5 1t-33.5 1q-23 0 -32 -34t-21 -147l-29 -288q0 -4 -2 -21t-3 -31.5t-1 -19.5q0 -39 18.5 -64t45.5 -35.5t54 -17t45.5 -15.5t18.5 -24q0 -26 -69 -26q-33 0 -89.5 6.5t-63.5 6.5q-58 0 -136 -9.5t-80 -9.5q-20 0 -38 7.5 t-18 22.5zM426 844q0 -32 17.5 -42.5t46.5 -10.5h28q188 0 246 13q54 12 94 50t60.5 87.5t30 94t9.5 82.5q0 107 -77 187t-216 80q-91 0 -136 -24.5t-51 -102.5q-7 -89 -20 -186.5t-22.5 -157.5t-9.5 -70z" />
<glyph unicode="S" horiz-adv-x="985" d="M40 275q0 14 8 30t26 16q16 0 23 -21q16 -49 44 -92.5t71 -80.5t106.5 -59t139.5 -22q71 0 125.5 17.5t84.5 42.5t49.5 57.5t25.5 59t6 50.5q0 69 -35 127.5t-110 135.5l-239 238q-196 201 -196 363q0 61 11.5 107.5t34 77.5t42 48.5t49.5 37.5q87 58 208 58 q54 0 120.5 -18t116.5 -35.5t63 -17.5q3 0 27 16.5t35 16.5q27 0 27 -43q0 -11 -0.5 -35t-0.5 -37q0 -5 -0.5 -17.5t-0.5 -18.5q0 -30 12 -98t12 -78q0 -18 -11 -29.5t-22 -11.5q-19 0 -28.5 19.5t-16 49t-33.5 77.5t-73 92q-102 99 -243 99q-47 0 -82.5 -13.5t-55.5 -33 t-32 -46t-15.5 -47.5t-3.5 -43q0 -57 21.5 -110.5t65.5 -105.5t87 -94l111 -105q68 -63 112 -109q50 -53 75.5 -82.5t55.5 -76.5t42.5 -96.5t12.5 -110.5q0 -40 -12 -83t-46 -92.5t-85 -88t-139 -64t-199 -25.5q-214 0 -295 45q-27 16 -51.5 109t-24.5 150z" />
<glyph unicode="T" horiz-adv-x="1418" d="M60 1174q0 27 7 46l24 62q17 45 34 110q9 34 28 44t66 10q33 0 148.5 -3.5t380.5 -3.5q209 0 392 4l182 4q27 0 41 -7t16 -14t2 -20q0 -70 3.5 -143t3.5 -83q0 -48 -39 -48q-10 0 -14.5 2.5t-7.5 12t-5 21.5t-9.5 39t-18.5 57q-6 17 -12 27t-21.5 18.5t-31.5 12t-54 6 t-76 3t-110 0.5h-92q-49 0 -59.5 -21.5t-21.5 -129.5l-8 -78q-19 -183 -48 -404l-44 -349q-15 -127 -15 -172q0 -46 18 -72.5t43.5 -33.5t51.5 -10t44 -10t18 -25q0 -31 -50 -31q-14 0 -91 7t-128 7q-36 0 -99 -6t-78 -6q-66 0 -66 29q0 20 16.5 27.5t38.5 7t49.5 10.5 t43.5 36q15 23 23 83q140 1080 140 1116q0 23 -27 28t-118 5q-138 0 -209.5 -8.5t-94.5 -20.5t-48 -41q-21 -24 -34 -52.5t-17 -46t-13.5 -30t-26.5 -12.5q-27 0 -27 46z" />
<glyph unicode="U" horiz-adv-x="1693" d="M90 1421q0 12 8.5 21t26.5 9q1 0 72.5 -6.5t161.5 -6.5q17 0 76.5 6t107.5 6q40 0 40 -29q0 -16 -13.5 -23.5t-33.5 -12t-41 -13.5t-37.5 -35t-20.5 -69q-10 -106 -34 -303.5t-37.5 -337.5t-13.5 -234q0 -40 7.5 -80t32.5 -89t65 -86t113 -62t169 -25q401 0 531 325 q46 115 97.5 449t51.5 439q0 50 -28 76.5t-61 31.5t-61 15.5t-28 30.5q0 26 50 26q11 0 50.5 -4.5t60.5 -4.5q49 0 124.5 4.5t88.5 4.5q15 0 26.5 -8t11.5 -18q0 -13 -16 -20.5t-36.5 -13t-43.5 -28.5t-35 -63q-4 -13 -30 -211t-66 -423.5t-81 -322.5q-45 -109 -109 -171.5 t-182 -134.5q-48 -29 -147.5 -48.5t-161.5 -19.5q-178 0 -281.5 34t-174.5 106q-61 62 -79 134t-18 204q0 29 38.5 422t38.5 421q0 49 -28 73t-61.5 26t-61.5 10t-28 29z" />
<glyph unicode="V" horiz-adv-x="1597" d="M40 1413q0 31 74 31q21 0 77.5 -4.5t86.5 -4.5q20 0 80 4t81 4q72 0 72 -26q0 -15 -11.5 -21.5t-27.5 -10t-32 -11.5t-27.5 -33t-11.5 -67q0 -45 141.5 -550t165.5 -505q10 0 152 252l279 523q138 271 138 312q0 33 -25 50.5t-55 21.5t-55 13.5t-25 28.5q0 15 7.5 21 t33.5 6q10 0 97.5 -4.5t126.5 -4.5q10 0 34.5 1.5t69.5 1.5q71 0 71 -22q0 -16 -8.5 -22.5t-21 -7.5t-34 -9t-41.5 -25q-41 -34 -102.5 -145.5t-147 -282.5t-146.5 -273l-146 -252l-174 -296q-64 -104 -96 -138q-12 -12 -24 -12q-18 0 -27.5 20t-23.5 73q-5 20 -8 31 l-281 1016l-24 84q-7 24 -23.5 66t-35.5 66t-44 40q-18 11 -40 16t-36 6t-23.5 10t-9.5 29z" />
<glyph unicode="W" horiz-adv-x="2156" d="M40 1434q0 21 42 21q6 0 70 -7.5t119 -7.5q20 0 80 4t81 4q26 0 39.5 -4t16 -8.5t2.5 -11.5q0 -11 -12 -17t-28 -7.5t-35.5 -7.5t-31.5 -18q-20 -20 -20 -87q0 -46 132 -561.5t155 -515.5q9 0 141.5 220.5t132.5 251.5q0 15 -0.5 24t-1 12.5t-4 13.5t-5.5 18l-87 347 q-2 10 -11 47t-13 50l-12 42q-9 31 -16 44l-16 34q-11 21 -23.5 34t-27.5 22q-22 14 -50.5 22.5t-41.5 15t-13 21.5q0 11 11.5 16t47.5 5q21 0 74.5 -5t83.5 -5q20 0 80.5 3.5t81.5 3.5q39 0 51 -5t12 -18q0 -18 -17.5 -24t-39 -7t-39 -21t-17.5 -62q0 -24 92 -361 q2 -6 3.5 -13.5t3.5 -12.5l2 -11q2 -5 3 -8t2.5 -6t3.5 -4t4 -1q13 0 46 64q163 320 163 354q0 35 -21.5 54.5t-47.5 24.5t-47.5 14.5t-21.5 25.5q0 19 54 19q10 0 65 -3t94 -3q10 0 48 4t83 4q29 0 45.5 -8.5t16.5 -20.5q0 -16 -8 -21.5t-20 -5.5t-33 -7t-41 -24 q-11 -9 -23 -22.5t-26 -34.5l-25 -37l-27 -48l-26 -46l-29 -54l-29 -52l-91 -164q-50 -89 -58.5 -107.5t-8.5 -38.5q0 -37 78 -295.5t93 -258.5q9 0 152 258l282 534q140 277 140 318q0 36 -23.5 54t-51.5 20t-51.5 10.5t-23.5 27.5q0 26 42 26q10 0 83.5 -4t112.5 -4 q18 0 73 4t63 4q30 0 50 -9t20 -21q0 -16 -11 -23t-27 -7.5t-40.5 -8.5t-44.5 -25q-41 -34 -102.5 -147t-146.5 -284.5t-146 -274.5l-142 -248l-152 -270q-65 -112 -104 -166q-15 -21 -43 -21q-11 0 -18.5 5t-12.5 18t-8 25t-8.5 38t-10.5 45l-121 458q-11 41 -15 41 q-2 0 -7 -7l-271 -451q-74 -124 -88.5 -144.5t-28.5 -20.5q-23 0 -36 40q-6 16 -23 84l-142 571q-136 549 -163 628q-20 58 -44 75q-4 2 -12 8q-4 2 -7 4q-20 13 -49 23t-40.5 18.5t-11.5 26.5z" />
<glyph unicode="X" horiz-adv-x="1509" d="M40 20q0 20 13 28t36 12t69 32t98 80l50 53q26 28 62 73l54 67l70 88l67 85q142 179 146 188q1 3 1 7q0 2 -14 33l-38 94l-48 116q-57 145 -124.5 247.5t-117.5 114.5q-1 0 -9 3t-16 5.5t-22.5 5t-28.5 2.5q-76 0 -119.5 -53.5t-43.5 -119.5q0 -32 14.5 -62t37.5 -43 q5 -3 17 -7t19 -7t13 -13t6 -25q0 -18 -16.5 -28t-39.5 -10q-54 0 -90.5 69t-36.5 155q0 62 21 110.5t51.5 76t70 45.5t71.5 24t61 6q133 0 210 -69.5t156 -234.5q38 -80 68 -156l40 -104q10 -28 18 -28q5 0 21 21q9 13 16 21l135 177q79 104 113 161t34 86q0 27 -19 41 t-41.5 16.5t-41.5 10t-19 22.5q0 30 34 30q47 0 90 -3t76 -3q41 0 98 3t73 3q62 0 62 -36q0 -25 -27 -30q-42 -7 -63 -15t-63.5 -45t-95.5 -102l-154 -194l-174 -219q-18 -22 -18 -26q0 -24 87 -216.5t161 -322.5q27 -46 46 -74t50 -58.5t70 -45t88 -14.5q36 0 66.5 15 t47.5 15q21 0 21 -22q0 -38 -63 -64t-138 -26q-71 0 -120 8t-83 22t-61 45t-45.5 64t-44.5 92l-138 319q-29 70 -38 87.5t-16 17.5q-10 0 -61 -68l-190 -253q-54 -74 -80.5 -119.5t-26.5 -77.5q0 -12 8 -24t37.5 -25.5t78.5 -17.5q34 -2 34 -32q0 -18 -12.5 -23.5 t-43.5 -5.5q-20 0 -118.5 6t-105.5 6q-18 0 -80 -10.5t-84 -10.5q-58 0 -58 34z" />
<glyph unicode="Y" horiz-adv-x="1414" d="M40 1434q0 28 68 28q12 0 93 -4t99 -4q25 0 96 4t86 4q61 0 61 -30q0 -14 -16 -23.5t-35.5 -15t-35.5 -17.5t-16 -30q0 -41 29.5 -112.5t60.5 -127.5q32 -60 77 -156l73 -156q27 -58 33 -58q5 0 99 127.5t188 278t94 198.5q0 29 -22.5 41t-50 11t-50 7.5t-22.5 30.5 q0 17 12 23t41 6q10 0 50.5 -2.5t57.5 -2.5q48 0 110.5 3t99.5 3q24 0 37 -5.5t15 -11t2 -14.5q0 -13 -22 -23l-56 -24q-33 -14 -52 -33q-47 -50 -224 -307t-210 -294q-42 -47 -59.5 -90.5t-28.5 -149.5q-32 -313 -32 -347q0 -42 46 -80q22 -17 50.5 -26t49 -10t35 -7.5 t14.5 -21.5q0 -9 -2 -14.5t-11 -9.5t-27 -4q-10 0 -102 7t-128 7q-53 0 -103 -8t-69 -8q-55 0 -55 26q0 13 7.5 21t15.5 10.5t26 6t27 6.5q29 9 41.5 36t20.5 90q55 377 55 436q0 13 -2.5 26t-12 36.5t-20.5 45.5l-34 68l-47 90l-65 124l-83 159q-62 120 -101.5 166.5 t-77.5 58.5q-6 2 -34.5 3t-46 9.5t-17.5 29.5z" />
<glyph unicode="Z" horiz-adv-x="1202" d="M40 9q0 10 6 21.5t22 33.5t35 45l55 69l72 94l226 302l218 295q147 201 216.5 304t69.5 121q0 8 -68 8q-12 0 -42.5 -0.5t-65.5 -0.5q-41 0 -123 9.5t-107 9.5q-123 0 -189 -16q-81 -20 -131.5 -73t-50.5 -111q0 -36 7.5 -58.5t18 -31t21 -14t18 -12.5t7.5 -21t-13 -23.5 t-33 -9.5q-27 0 -47 17t-29 43.5t-12.5 48.5t-3.5 41q0 57 31 136q14 36 38.5 64.5t70.5 73.5q34 33 68.5 52t79 27t76.5 10t95 2q119 0 257.5 -15t181.5 -15q15 0 49 6.5t53 6.5q16 0 24 -1.5t14.5 -9t6.5 -22.5q0 -24 -445.5 -628.5t-445.5 -624.5q0 -16 25.5 -19.5 t122.5 -3.5h89q114 0 234.5 -5.5t148.5 -5.5q72 0 112.5 11t40.5 43q0 11 -18 20t-39.5 15.5t-39.5 24t-18 43.5q0 42 32 67.5t67 25.5q46 0 69.5 -35.5t23.5 -64.5q0 -79 -31.5 -130t-90.5 -100l-5 -6q-6 -5 -13.5 -10.5t-20.5 -13t-31.5 -14t-42.5 -12.5t-57.5 -9.5 t-71.5 -3.5q-192 0 -314 6t-126 6q-46 0 -106 -5t-117 -5q-54 0 -54 28z" />
<glyph unicode="[" horiz-adv-x="544" d="M113 -366q0 20 5 73l13 125q17 161 73 645.5t78 689.5q10 90 18 169l11 121q4 42 5 54q4 34 24 43t75 9h82q44 0 72 0.5t39 0.5h15q12 0 19.5 -10.5t7.5 -26.5q0 -18 -8 -32.5t-20 -14.5q-35 -1 -176 -1h-31q-11 0 -13.5 -11.5t-9.5 -91.5l-23 -232q-13 -124 -55 -486 l-71 -638q-30 -275 -30 -311q0 -34 18 -34q19 0 92.5 0.5t79.5 0.5q23 0 32.5 -7t9.5 -25q0 -40 -23 -51t-84 -11h-170q-33 0 -44 9.5t-11 42.5z" />
<glyph unicode="\" horiz-adv-x="851" d="M40 1481q0 24 43 24q28 0 40.5 -7t19.5 -29l629 -1701q6 -16 17 -43t16.5 -43t5.5 -24q0 -33 -67 -33q-16 0 -26.5 11.5t-25.5 52.5l-623 1702q-29 78 -29 90z" />
<glyph unicode="]" horiz-adv-x="544" d="M-105 -381q0 18 8 32.5t20 14.5q34 1 197 1h10q11 0 13.5 11.5t9.5 91.5l23 232q13 124 54 486l72 638q30 275 30 311q0 34 -18 34q-19 0 -92.5 -0.5t-79.5 -0.5q-23 0 -32.5 7t-9.5 25q0 23 9.5 40t28.5 18q128 4 239 4q33 0 44 -9.5t11 -42.5q0 -20 -5 -73l-13 -125 q-17 -161 -73 -645.5t-78 -689.5q-10 -90 -17 -169l-12 -121q-4 -42 -5 -54q-4 -34 -24 -43t-75 -9h-82q-44 0 -72 -0.5t-40 -0.5h-14q-12 0 -19.5 10.5t-7.5 26.5z" />
<glyph unicode="^" horiz-adv-x="681" d="M60 677q0 11 25 52l69 117q90 152 117 187t61 35t60 -33.5t105 -167.5l81 -138q23 -37 23 -55q0 -17 -37 -17q-6 0 -17 0.5t-14 0.5q-10 0 -17.5 3.5t-14.5 12.5t-10.5 14.5t-10.5 19.5l-9 18l-29 52l-24 46l-20 38q-10 19 -17 31l-14 24q-7 12 -11.5 19t-9 12.5t-8 7.5 t-6.5 2q-4 0 -9 -3.5t-11.5 -13t-13.5 -21.5l-18 -32l-22 -42l-30 -54l-35 -66q-2 -3 -7 -13t-7 -13.5t-7 -11.5t-9 -12l-9 -8q-6 -4 -12 -6t-13 -2q-3 0 -12.5 -0.5t-15.5 -0.5q-41 0 -41 18z" />
<glyph unicode="_" horiz-adv-x="437" d="M0 -77q0 16 1.5 23t10 13t26.5 6h366q23 0 28 -9t5 -34q0 -20 -2 -28.5t-11.5 -14t-29.5 -5.5h-358q-25 0 -30.5 9.5t-5.5 39.5z" />
<glyph unicode="`" horiz-adv-x="900" d="M269 1299q0 25 42 38.5t64 13.5q23 0 34 -36q33 -107 64 -179.5t44 -96t13 -31.5q0 -9 -6.5 -14.5t-15.5 -5.5q-14 0 -73 66t-112.5 143t-53.5 102z" />
<glyph unicode="a" horiz-adv-x="1061" d="M65 234q0 151 115 334q121 191 276 266q73 36 151 36q31 0 85.5 -11t88.5 -11q13 0 27.5 15.5t25 34.5t25 34.5t28.5 15.5q22 0 22 -30q0 -14 -6.5 -35.5t-17 -52.5t-16.5 -54q-8 -34 -16 -76t-17 -98.5t-15 -87.5l-12 -66l-13 -72q-4 -24 -8 -60.5t-4 -63.5 q0 -42 21 -81t48 -39q23 0 46.5 21t40 45.5t34 45.5t30.5 21q17 0 17 -23q0 -41 -35 -89q-44 -62 -103 -114.5t-97 -52.5q-45 0 -73 36t-35 78.5t-11 78.5t-7 36q-2 0 -23.5 -25t-57.5 -61.5t-80.5 -72.5t-102 -61t-111.5 -25q-56 0 -97.5 15t-64.5 38.5t-36.5 60t-17.5 71 t-4 79.5zM209 246q0 -74 46.5 -119t113.5 -45q51 0 99.5 23t81.5 56.5t52 59.5t29 45q22 44 48 164t41 214t15 103q0 20 -14.5 35t-36.5 23t-43 11.5t-40 3.5q-66 0 -138 -45.5t-117 -120.5q-105 -175 -127 -298q-10 -62 -10 -110z" />
<glyph unicode="b" horiz-adv-x="964" d="M90 146q0 46 8.5 115.5t17.5 122.5l26 144l24 127q15 86 45 282.5t47 280.5q30 147 30 209q0 26 -50 26q-16 0 -42.5 -3t-41.5 -3q-14 0 -20.5 1t-12.5 8t-6 20q0 9 3 15t10.5 10.5t15.5 7.5t23 5.5t27 4t34 4t38 4.5q34 5 64.5 10.5t45.5 9t20 3.5q18 0 28.5 -9.5 t10.5 -26.5q0 -5 -65.5 -356.5t-65.5 -438.5q0 -10 3 -20.5t6 -10.5q7 0 25 19.5t46.5 47.5t67 56t97 47.5t124.5 19.5q109 0 167.5 -75.5t58.5 -184.5q0 -83 -27 -173.5t-79 -173.5t-119 -150t-154.5 -107t-179.5 -40q-100 0 -175 44.5t-75 127.5zM225 170q0 -140 158 -140 q89 0 176.5 83.5t141.5 207.5t54 241q0 86 -58 147t-142 61q-24 0 -51.5 -6.5t-65.5 -25t-73 -61.5t-58 -105q-27 -73 -47 -170.5t-27.5 -156t-7.5 -75.5z" />
<glyph unicode="c" horiz-adv-x="856" d="M65 306q0 104 41 209.5t109.5 188.5t166.5 135.5t203 52.5q13 0 42 -7t68 -21.5t67.5 -46t28.5 -71.5q0 -30 -20.5 -55t-47.5 -25q-24 0 -45.5 15t-40 37t-39 44t-53 37t-72.5 15q-17 0 -57 -19.5t-77 -53.5q-13 -12 -31.5 -36.5t-43.5 -66.5t-42 -103.5t-17 -126.5 q0 -314 242 -314q57 0 107.5 17t79.5 38l52 38q24 17 35 17t18.5 -8t7.5 -18q0 -9 -16.5 -31.5t-50 -51.5t-76 -55.5t-104 -45t-125.5 -18.5q-310 0 -310 330z" />
<glyph unicode="d" horiz-adv-x="1013" d="M35 256q0 116 45.5 231t117.5 200.5t164.5 138.5t181.5 53q26 0 75 -14t78 -14q5 0 39.5 268.5t34.5 284.5q0 22 -18.5 37t-42.5 15q-10 0 -27 -0.5t-30 -1.5h-13q-34 0 -34 23q0 10 7.5 16.5t22 9.5t29.5 4.5t35.5 4t34.5 6.5l55 14q26 7 35 10t21 5t20.5 2.5t26.5 0.5 q14 0 23.5 -10t9.5 -24q0 -15 -3 -37t-13 -84l-22 -150l-40 -272l-58 -413q-42 -296 -42 -348q0 -27 2.5 -43.5t14.5 -30.5t35 -14q31 0 60 20t46.5 43.5t35.5 43.5t28 20q23 0 23 -18q0 -24 -36.5 -82.5t-100.5 -113t-125 -54.5q-49 0 -75.5 36t-30.5 79l-7 80 q-4 36 -12 36q-4 0 -21 -24t-44.5 -58t-63 -67.5t-88 -57.5t-109.5 -24q-124 0 -184.5 75t-60.5 198zM178 314q0 -95 43 -153t132 -58q56 0 112 28t95 77q53 66 82.5 254.5t29.5 291.5q0 38 -44.5 59.5t-93.5 21.5q-90 0 -174.5 -85.5t-133 -206t-48.5 -229.5z" />
<glyph unicode="e" horiz-adv-x="824" d="M65 302q0 130 62 256t170 227q114 108 285 108q74 0 125.5 -42.5t51.5 -109.5q0 -51 -24 -97t-61.5 -77t-63.5 -47t-48 -26q-126 -53 -322 -56q-21 0 -28 -20t-7 -64q0 -119 74 -187t221 -68q51 0 101 22t81 44t38 22q26 0 26 -21q0 -18 -31.5 -49.5t-79.5 -63 t-115 -54.5t-130 -23q-95 0 -160.5 24.5t-100.5 71t-49.5 102t-14.5 128.5zM234 515q0 -41 18 -41q146 0 256 80.5t110 180.5q0 51 -36 73.5t-72 22.5q-78 0 -169 -96q-41 -43 -74 -118.5t-33 -101.5z" />
<glyph unicode="f" horiz-adv-x="619" d="M-89 -320q0 27 17.5 83t43.5 56q21 0 25 -28q5 -32 27.5 -53t34.5 -21q19 0 32.5 25t22.5 74.5t14.5 96.5t13 120t13.5 116q65 477 82 584q1 5 1 6q0 27 -20 27h-98l-27 -1q-32 0 -42.5 8.5t-10.5 28.5q0 30 10.5 40.5t44.5 10.5l11 -1h28l37 -2h39q19 -1 32 -1t15 16 q14 91 28.5 160t53 169t93.5 178q56 80 118.5 121.5t140.5 41.5q51 0 73.5 -17.5t22.5 -56.5q0 -28 -8.5 -72.5t-26.5 -44.5q-17 0 -41 21t-57 42t-73 21q-37 0 -76 -82.5t-65.5 -186.5t-43.5 -188.5t-17 -100.5q0 -12 5.5 -16t18.5 -4q21 0 79.5 2t86.5 2q40 0 40 -34 q0 -57 -41 -57q-42 0 -95 3t-78 3q-15 0 -23 -6t-9.5 -11.5t-1.5 -12.5v-3q-4 -28 -23.5 -236.5t-44.5 -399t-49 -249.5q-28 -67 -66.5 -114.5t-77.5 -68t-66 -28.5t-48 -8q-29 0 -52 12.5t-23 35.5z" />
<glyph unicode="g" horiz-adv-x="891" d="M-50 -149q0 52 20.5 91t49 58.5t57.5 31.5t49.5 17.5t20.5 7.5q0 4 -6 13.5t-12 29t-6 48.5q0 34 12.5 60.5t27.5 39.5l27 24q13 11 13 16q0 4 -9 11.5t-22 23t-26 40.5t-22 73t-9 111q0 38 12.5 81.5t38.5 87t61.5 79t86 58t106.5 22.5q46 0 123 -26.5t103 -26.5 q31 0 82 22t65 22q21 0 39.5 -11.5t18.5 -40.5q0 -21 -19.5 -42.5t-54.5 -21.5q-32 0 -68.5 7.5t-40.5 7.5q-10 0 -17 -5.5t-7 -12.5q0 -4 9 -25.5t18 -57.5t9 -76t-12 -86.5t-37.5 -94t-59.5 -86t-82 -62.5t-102 -24q-55 0 -102.5 13.5t-55.5 13.5q-2 0 -7.5 -5.5 t-11.5 -22.5t-6 -41q0 -40 39 -70.5t97 -47.5t126 -39.5t126 -45.5t97 -66.5t39 -101.5q0 -63 -26.5 -107.5t-76.5 -69t-112 -35t-143 -10.5q-82 0 -155 14.5t-133.5 43.5t-96 78.5t-35.5 114.5zM64 -124q0 -73 48.5 -126t114.5 -75.5t139 -22.5q38 0 73 5t73 18t61 41 t23 68q0 34 -74 78t-287 130q-23 9 -40 18t-23 14l-5 4q-27 0 -65 -48t-38 -104zM237 513q0 -113 40 -172t99 -59q72 0 129 80.5t57 214.5q0 117 -42.5 181t-103.5 64q-70 0 -124.5 -83t-54.5 -226z" />
<glyph unicode="h" horiz-adv-x="994" d="M60 47q0 24 11 91l27 154q15 88 21 130l45 306l69 455q31 207 31 214q0 47 -57 47q-24 0 -51.5 -1t-32.5 -1q-26 0 -26 24q0 23 78 30q96 8 150.5 20.5t69.5 12.5q10 0 17 -7t7 -18q0 -6 -61 -341t-61 -445q0 -21 8 -21q5 0 33 27l62 60q34 33 90 60t113 27 q182 0 182 -233q0 -61 -24.5 -215t-24.5 -198q0 -43 13 -68t36 -25q7 0 13.5 1t14 3.5t11.5 4t12 6.5l12 7l12 7q10 6 11 7q18 11 36 32.5t29.5 36.5t18.5 15q19 0 19 -17q0 -45 -47.5 -103.5t-111 -98.5t-107.5 -40q-100 0 -100 192q0 64 18.5 210t18.5 207q0 160 -116 160 q-30 0 -62 -8.5t-66.5 -27t-65.5 -55.5t-51 -87q-18 -46 -30.5 -121.5t-28 -212t-22.5 -191.5q-6 -38 -23.5 -49.5t-53.5 -11.5q-24 0 -45 11t-21 38z" />
<glyph unicode="i" horiz-adv-x="512" d="M258 1215q0 17 38.5 62t63.5 45q29 0 54.5 -38.5t25.5 -69.5q0 -27 -37 -67.5t-53 -40.5q-25 0 -58.5 45t-33.5 64zM40 810q0 30 48 30h20q37 0 103.5 9.5t129.5 9.5q11 0 20 -6.5t9 -16.5q0 -27 -23.5 -107t-31.5 -131q-61 -388 -61 -407q0 -21 12.5 -38t27.5 -17 q23 0 44.5 16.5t34.5 36.5t26.5 36.5t22.5 16.5q20 0 20 -22q0 -17 -21 -58t-38 -61q-121 -121 -188 -121q-77 0 -77 169q0 82 46 310.5t46 281.5q0 26 -10.5 34.5t-38.5 8.5q-24 0 -55.5 1t-36.5 1q-29 0 -29 24z" />
<glyph unicode="j" horiz-adv-x="496" d="M-150 -268q0 33 27 33q15 0 32 -13.5t30 -29.5t32 -29.5t37 -13.5q16 0 27.5 16t24 66t25 130.5t29.5 219.5q14 116 36 273l34 250q12 93 12 101q0 27 -20.5 38.5t-44.5 11.5q-3 0 -23 -0.5t-30 -0.5q-38 0 -38 25q0 32 42 32q7 0 28.5 1t35.5 1q26 0 74 10t76 10 q21 0 33 -6t14 -12t2 -15q0 -52 -20.5 -160.5t-24.5 -140.5l-28 -217l-22 -176l-16 -130q-9 -70 -16.5 -105.5t-18 -74.5t-25 -63t-33.5 -48.5t-46 -50.5l-11 -12q-10 -9 -13 -12l-12 -10q-9 -8 -14.5 -11t-15.5 -9t-18.5 -8t-20 -5.5t-24.5 -4.5t-28 -1q-42 0 -60.5 11 t-20.5 45q-2 30 -4.5 54.5t-2.5 30.5zM223 1210q0 26 37 67t67 41q23 0 50 -34t27 -67q0 -28 -33 -69.5t-53 -41.5q-33 0 -64 43t-31 61z" />
<glyph unicode="k" horiz-adv-x="925" d="M60 47q0 25 10 91l24 156l21 128l40 272q29 199 50.5 365.5t35.5 248.5l17 97q0 16 -12.5 27.5t-38.5 11.5q-24 0 -51.5 1.5t-32.5 1.5q-31 0 -31 25q0 30 31 31q97 3 165.5 17t84.5 14q36 0 36 -30q0 -14 -13 -94l-20 -120q-50 -299 -82 -546l-18 -141l-6 -27 q-5 -28 -8.5 -52.5t-3.5 -43.5q0 -24 3 -32t16 -8q11 0 73.5 43.5t137.5 110t105 116.5q13 22 27 58l23 60q9 23 31.5 41t56.5 18q30 0 48 -21.5t18 -53.5q0 -41 -49.5 -94t-108.5 -92l-109 -71q-49 -31 -49 -34q0 -5 102 -185l23 -42l24 -40l20 -36q12 -21 21 -33.5 t18.5 -24t18 -17t15.5 -5.5q24 0 49 18t40.5 39t31 39t23.5 18q18 0 18 -36q0 -58 -71.5 -140.5t-126.5 -82.5q-32 0 -71 47t-74 114l-68 132q-32 67 -60.5 114t-46.5 47q-2 0 -9 -4l-20 -11q-12 -8 -20 -12q-13 -8 -28.5 -16.5t-21.5 -10.5t-14 -8.5t-9 -6.5t-4.5 -8 t-3.5 -9.5t-1.5 -14.5t-2.5 -19l-37 -268q-5 -37 -23 -49t-47 -12q-24 0 -45 11t-21 38z" />
<glyph unicode="l" horiz-adv-x="535" d="M95 177q0 40 8.5 106.5t18.5 120.5l19 106l11 57q9 62 24 200t25 206q65 423 65 430q0 18 -13.5 29t-36.5 11q-16 0 -33 -1t-28 -1q-59 0 -59 29q0 27 31 29q82 6 154 18.5t94 12.5q42 0 42 -32q0 -16 -8.5 -50.5t-10.5 -44.5q-33 -174 -45 -262.5t-25 -208t-38 -291.5 l-19 -129l-17 -112l-11 -82q-6 -43 -8.5 -70.5t-2.5 -47.5q0 -51 6.5 -65t26.5 -14q31 0 57 15t42.5 36.5t30 42.5t27.5 36t29 15q11 0 17.5 -9t6.5 -24q0 -27 -103 -146q-38 -44 -92 -74t-85 -30q-17 0 -27 1.5t-25.5 11.5t-24.5 29.5t-16 58t-7 93.5z" />
<glyph unicode="m" horiz-adv-x="1560" d="M50 660q0 51 70.5 138.5t125.5 87.5q41 0 63.5 -33t26.5 -72.5t8.5 -72.5t12.5 -33q4 0 13.5 13t27.5 34.5t44 45.5t70 50t97 45q60 22 118 22q36 0 61 -14t37.5 -38t17.5 -48t5 -51q0 -24 -0.5 -33.5t-0.5 -10.5q0 -16 4 -16q6 0 14 10l25 34q18 22 38 41q55 53 122 90 t131 37q46 0 79.5 -20.5t50 -47.5t26.5 -62t11.5 -53.5t1.5 -33.5q0 -50 -20.5 -245t-20.5 -226q0 -70 41 -70q16 0 39 12t34 21t15 13l15 21q9 13 14 19.5t13.5 12t19.5 5.5q20 0 20 -26q0 -38 -48.5 -89t-113.5 -87t-109 -36q-30 0 -53 37.5t-23 90.5q0 8 23 221.5 t23 286.5q0 74 -36.5 116.5t-75.5 42.5q-48 0 -92.5 -33t-73.5 -78.5t-44.5 -77t-19.5 -44.5q-14 -49 -25 -134t-23 -220l-14 -158q-6 -56 -84 -56q-28 0 -43 19t-15 47q0 8 37 240.5t37 347.5q0 11 -2 24.5t-10.5 36t-23 40t-42.5 30.5t-66 13q-18 0 -38 -6t-50 -27.5 t-56 -56t-52.5 -99.5t-43.5 -151q-18 -93 -34 -243t-19 -168q-4 -20 -27 -33t-51 -13q-72 0 -72 70q0 33 45.5 257.5t45.5 312.5q0 53 -16.5 76.5t-36.5 23.5q-21 0 -39.5 -18.5t-29 -40.5t-25.5 -40.5t-30 -18.5t-19.5 12.5t-4.5 36.5z" />
<glyph unicode="n" horiz-adv-x="1077" d="M50 658q0 61 71.5 147t128.5 86q40 0 61.5 -33.5t23 -74.5t3 -74.5t6.5 -33.5t14 13t32 39.5t56 51.5q150 115 250 115q173 0 173 -255q0 -81 -18 -243t-18 -188q0 -72 40 -72q16 0 37 12t30.5 20t14.5 13q6 7 15 20.5t13.5 19t13.5 10.5t20 5q20 0 20 -26 q0 -38 -48.5 -91.5t-113.5 -92t-109 -38.5q-30 0 -53 37.5t-23 90.5q0 88 21.5 283t21.5 223q0 19 -4.5 41t-17 54t-44 52.5t-77.5 20.5q-37 0 -67.5 -20.5t-65.5 -69.5l-41 -60q-13 -19 -23 -50t-13 -50l-14 -84q-10 -65 -21 -126q-17 -95 -27 -156t-11.5 -78.5t-2 -28 t-1.5 -17.5q-5 -33 -20 -43.5t-55 -10.5q-45 0 -59 10.5t-14 52.5q0 33 45 253.5t45 308.5q0 50 -15 81.5t-32 31.5q-21 0 -40.5 -18t-31.5 -40t-28 -40t-31 -18q-17 0 -17 40z" />
<glyph unicode="o" horiz-adv-x="913" d="M65 347q0 77 20 153.5t61 147t97.5 124.5t135.5 86t169 32q146 0 223 -103.5t77 -257.5q0 -77 -19.5 -155t-59.5 -149t-94.5 -126t-131.5 -87.5t-164 -32.5q-134 0 -224 95t-90 273zM223 344q0 -147 50.5 -225t127.5 -78t137.5 55t93 138.5t49 166t16.5 152.5 q0 137 -50.5 206.5t-126.5 69.5q-78 0 -150 -68t-106 -187q-41 -146 -41 -230z" />
<glyph unicode="p" horiz-adv-x="999" d="M6 -374q0 23 19 34.5t42 21.5t29 27q3 9 12 81q109 855 132 967q1 3 1 4q0 11 -10 11q-11 0 -51.5 -18.5t-52.5 -18.5q-27 0 -27 24v8q0 22 14 28l44 17q21 8 33.5 11.5t25 9t18.5 5.5t12.5 6.5t8.5 6.5t5 10.5t3 13.5l4 20q3 17 5 27q6 34 12.5 78t9.5 60t10.5 37 t18.5 31t30 20q32 16 59 16q29 0 29 -36q0 -32 -27 -124t-27 -120v-8q0 -9 10 -9q5 0 25.5 2.5t59.5 4.5t88 2q363 0 363 -274q0 -96 -17 -161.5t-62 -143.5l-14 -25l-14 -24l-13 -22q-11 -17 -16 -24l-17 -20q-11 -14 -21 -23l-22 -22q-14 -13 -30 -25l-33 -25 q-122 -87 -269 -87q-15 0 -56.5 4t-55.5 4q-19 0 -23 -8.5t-10 -57.5l-7 -56q-3 -22 -8.5 -59t-8.5 -60t-3 -32q0 -35 26.5 -53.5t58.5 -22t58.5 -11t26.5 -22.5q0 -28 -30 -28q-36 0 -106 1.5t-97 1.5q-25 0 -63.5 -1.5t-48.5 -1.5h-19q-13 0 -23.5 7.5t-10.5 20.5z M288 104q0 -9 8.5 -19t37 -20t71.5 -10q73 0 145 47.5t122 119t81 153.5t31 151q0 79 -29.5 138t-69 88.5t-92.5 47.5t-86.5 21.5t-65.5 3.5q-18 0 -32 -2.5t-18 -2.5q-10 0 -16.5 -34t-17.5 -125l-28 -227q-3 -25 -15 -106.5t-19 -139t-7 -84.5z" />
<glyph unicode="q" horiz-adv-x="1039" d="M45 237q0 106 69.5 237.5t161.5 232.5q153 168 357 168q51 0 83 -9.5t47 -19t24 -9.5q16 0 34 25t31 55.5t30 55.5t31 25q11 0 18.5 -8.5t7.5 -17.5q0 -14 -30 -109.5t-43 -199.5q-4 -32 -5.5 -51t-2 -29.5t-7 -58.5t-19.5 -136l-48 -327q-46 -301 -46 -357 q0 -27 23.5 -38.5t51 -11.5t51 -9t23.5 -32q0 -21 -49 -21q-46 0 -106 4.5t-75 4.5q-56 0 -93 -5t-56 -5q-63 0 -63 31q0 12 11.5 18t29.5 7.5t39.5 8t40.5 18t34.5 39t20.5 68.5q11 87 27 199l28 179q10 68 10 79q0 12 -4 12q-6 0 -23.5 -28t-49 -67.5t-77 -79 t-123.5 -67.5t-172 -28q-32 0 -64.5 15t-62 44.5t-47.5 81t-18 116.5zM185 265q0 -78 49 -136t127 -58q99 0 201 97.5t146 246.5q17 55 31 159.5t14 134.5q0 43 -42 77t-108 34q-80 0 -160 -60.5t-134.5 -147t-89 -181.5t-34.5 -166z" />
<glyph unicode="r" horiz-adv-x="720" d="M30 606q0 66 18.5 119t44 82t55 48.5t48.5 26t28 6.5q48 0 75 -71q40 -104 46.5 -119.5t10.5 -15.5t27.5 33t55 72t83 72t103.5 33q37 0 56 -19t19 -44q0 -12 -4 -25t-10.5 -28.5t-8.5 -22.5l-3 -17q-4 -17 -7.5 -28t-13 -22t-21.5 -11q-15 0 -26 13.5t-17.5 29.5 t-23.5 29.5t-42 13.5q-32 0 -61 -42t-48 -105t-30 -114.5t-16 -92.5l-9 -67q-34 -259 -45 -299q-12 -41 -36 -47q-9 -3 -35 -3h-9q-61 0 -61 54q0 31 43.5 240.5t43.5 295.5q0 72 -19.5 105.5t-50.5 33.5q-37 0 -61.5 -29.5t-37.5 -68t-14 -39.5q-9 -11 -22 -11 q-25 0 -25 34z" />
<glyph unicode="s" horiz-adv-x="682" d="M30 110q0 42 20.5 58t45.5 16q28 0 47.5 -14.5t30.5 -35.5t23.5 -42t35.5 -35.5t57 -14.5q52 0 88 16.5t50.5 41t20 42.5t5.5 32q0 18 -3.5 35.5t-7.5 30t-15 30.5l-16 26q-6 9 -23 28l-23 25q-5 6 -27 28l-26 26l-39 39l-40 39q-11 12 -30 36.5t-27.5 43.5t-15.5 46 t-7 57q0 103 79 167t200 64q189 0 189 -106q0 -29 -18.5 -46t-33.5 -20.5t-26 -3.5q-24 0 -45 18t-34 39.5t-35 39.5t-48 18q-55 0 -81 -30t-26 -80q0 -35 26 -72t77 -86l59 -56l32 -34q23 -24 33.5 -36.5t28 -37t26 -45t15 -50.5t6.5 -63q0 -26 -7.5 -56.5t-29.5 -69.5 t-56 -69.5t-93 -51.5t-133 -21q-34 0 -70 6t-73.5 20t-61.5 42t-24 66z" />
<glyph unicode="t" horiz-adv-x="613" d="M60 799q0 17 21 29l65 38q43 25 81 65q25 26 47.5 53t31.5 37t19 17t22 7q19 0 19 -26q0 -13 -18.5 -75t-18.5 -78q0 -9 12.5 -12t60.5 -3q47 0 81 2t38 2q31 0 41.5 -9.5t10.5 -30.5q0 -35 -10.5 -47t-37.5 -12q-15 0 -78.5 4.5t-87.5 4.5q-13 0 -21.5 -1.5t-15 -7.5 t-10 -11t-6.5 -17.5t-4.5 -21t-4 -28t-4.5 -32.5q-6 -41 -24.5 -154t-30 -190t-11.5 -91q0 -31 8.5 -53.5t19 -33.5t24.5 -17.5t21 -7.5t12 -1q39 0 73 14t53.5 31.5t37.5 31.5t28 14q23 0 23 -30q0 -27 -48 -73.5t-121.5 -84.5t-132.5 -38q-53 0 -92 44.5t-39 152.5 q0 111 43.5 341.5t43.5 241.5q0 17 -30.5 19t-60.5 7t-30 30z" />
<glyph unicode="u" horiz-adv-x="1075" d="M40 602q0 46 28.5 109t84.5 114.5t120 51.5q25 0 42.5 -19t24 -47.5t9 -48t2.5 -34.5q0 -94 -38 -293t-38 -274q0 -23 12 -38.5t24 -15.5q40 0 86 43.5t125 138.5l23 28q63 76 111.5 173t73.5 173t53 185q9 33 59 33q27 0 47 -12.5t20 -33.5q0 -22 -62 -309.5t-62 -345.5 q0 -21 8 -33t16 -14t20 -2q35 0 61.5 15.5t42 38t27 45t22.5 38t23 15.5q30 0 30 -43q0 -16 -14.5 -46t-43.5 -66.5t-66.5 -69.5t-90 -55t-106.5 -22q-60 0 -60 111q0 58 9 131.5t18.5 125t9.5 55.5q0 23 -11 23q-6 0 -13 -13l-27 -48q-20 -35 -45 -71q-226 -318 -392 -318 q-38 0 -54 38.5t-16 93.5q0 95 23 211t46 213t23 146q0 18 -10.5 30.5t-29.5 12.5q-15 0 -43.5 -35t-49.5 -82q-12 -29 -31 -29q-9 0 -15 7.5t-6 18.5z" />
<glyph unicode="v" horiz-adv-x="874" d="M20 518q0 76 27.5 146.5t67.5 116t83 73t75 27.5q46 0 68.5 -49t22.5 -117q0 -50 -20 -204.5t-20 -275.5q0 -49 30 -86.5t72 -37.5q71 0 144.5 87.5t120 216t46.5 244.5q0 38 -21.5 86t-21.5 69q0 31 27.5 49.5t46.5 18.5q66 0 66 -109q0 -73 -34 -215t-77 -223 q-106 -203 -235 -287q-40 -26 -88 -50t-67 -24q-42 0 -70.5 27.5t-41 78t-17 98.5t-4.5 112q0 9 -13.5 13t-33.5 5t-43 12t-43 30t-33.5 62.5t-13.5 105.5zM74 496q0 -34 9 -60t20.5 -39.5t25.5 -22t22.5 -11t13.5 -2.5q7 0 12.5 1t9.5 4.5t6 6t4 9.5l3 12q1 4 2.5 15.5 t2.5 16.5l3 22l7 56l8 69q4 35 7 66t3 43q0 36 -29 36q-28 0 -79 -78t-51 -144z" />
<glyph unicode="w" horiz-adv-x="1382" d="M20 507q0 73 27 144t65.5 119t81 78t74.5 30q44 0 65 -51.5t21 -110.5q0 -79 -12.5 -223.5t-12.5 -252.5q0 -47 25.5 -86.5t55.5 -39.5q47 0 101.5 54t91 116t61.5 122q51 123 87 374q8 59 19.5 76.5t51.5 17.5q59 0 59 -51q0 -29 -28 -169t-28 -248q0 -99 21 -196 q12 -52 30 -77t55 -25q55 0 114 58t101.5 137t70 158.5t27.5 125.5q0 80 -10 121t-19.5 59.5t-9.5 42.5t26 46t51 22q60 0 60 -91q0 -83 -34.5 -223t-79.5 -224q-63 -120 -144 -206t-144 -120.5t-108 -34.5q-117 0 -122 355q0 39 -5 39q-2 0 -23.5 -41t-57 -99t-80 -116 t-102.5 -99t-113 -41q-124 0 -124 318q0 8 -19 12.5t-46 12t-54.5 24t-46.5 58.5t-19 105zM89 497q0 -53 7 -69q24 -56 80 -56q23 0 30.5 22.5t16.5 101.5q11 99 11 159q0 16 -8 30.5t-24 14.5q-29 0 -71 -66t-42 -137z" />
<glyph unicode="x" horiz-adv-x="972" d="M40 47q0 47 19 65.5t53 18.5q22 0 48 -10t41 -10q34 0 93.5 79.5t102.5 156t43 80.5q0 3 -18 55.5t-44.5 119t-43.5 93.5q-20 33 -47 33q-34 0 -54 -19.5t-26 -42.5t-15.5 -42.5t-23.5 -19.5q-16 0 -22 15t-6 57q0 24 14 70.5t36 77.5q20 28 54.5 48.5t57.5 20.5 q47 0 89.5 -50.5t66.5 -110.5l43 -112q20 -50 27 -50q5 0 31.5 51t62 112t94.5 112t120 51q32 0 54 -25.5t22 -57.5q0 -31 -18.5 -53t-51.5 -22q-21 0 -49.5 7t-38.5 7q-31 0 -83 -58.5t-90 -118t-38 -70.5q0 -14 57 -143.5t102 -218.5q20 -38 48 -59.5t55 -21.5q13 0 37 2 t33 2q13 0 20.5 -7.5t7.5 -18.5q0 -19 -18.5 -32.5t-44 -20t-44.5 -9t-28 -2.5q-41 0 -74 6t-55 17.5t-37.5 23t-25.5 29.5t-14.5 29t-10 29t-7.5 23q-12 31 -33 92t-32.5 87.5t-19.5 26.5q-4 0 -23 -38t-49.5 -92.5t-69.5 -108.5t-93 -92t-109 -38q-32 0 -53.5 22t-21.5 55 z" />
<glyph unicode="y" horiz-adv-x="834" d="M14 -256q0 26 20 47t46 21q39 0 84.5 -33.5t94.5 -33.5q55 0 117 69t99.5 149t37.5 121q0 42 -37.5 148.5t-89 216.5t-111 194.5t-97.5 84.5q-33 0 -54 -16t-29 -38.5t-13.5 -45t-14.5 -38.5t-26 -16q-21 0 -21 45q0 36 9 78t27 85.5t52.5 72t78.5 28.5q56 0 117 -60 t109.5 -145.5t89.5 -171t67.5 -145.5t31.5 -60q22 0 48 126t26 231q0 30 -26 78.5t-26 76.5q0 30 18 52.5t52 22.5q35 0 57.5 -30t22.5 -78q0 -86 -43.5 -280t-125.5 -400q-40 -101 -80.5 -179t-92.5 -149t-115 -109.5t-132 -38.5q-171 0 -171 120z" />
<glyph unicode="z" horiz-adv-x="838" d="M40 32q0 14 19 34l265 275q232 246 232 265q0 4 -10 8l-132 58q-60 26 -86 38.5t-46.5 21.5t-29 11.5t-18.5 2.5q-22 0 -42 -22.5t-20 -43.5q0 -27 17 -56t17 -34q0 -7 -7.5 -12.5t-16.5 -5.5q-10 0 -27 14.5t-33.5 50t-16.5 79.5q0 65 49.5 115t110.5 50q49 0 142 -48 t122 -59q88 -32 129 -32q21 0 31.5 19t13.5 41.5t15 41.5t34 19q18 0 32 -11.5t14 -28.5q0 -7 -2.5 -14t-8.5 -15l-9 -13q-3 -4 -12 -14t-10 -11l-395 -440q-69 -77 -72 -83q-1 -3 -1 -5q0 -11 26 -32l64 -52q38 -29 57 -50q28 -31 69 -95.5t71.5 -104.5t50.5 -40 q25 0 40 17.5t21 38.5t22 38.5t42 17.5q21 0 33 -15t12 -32q0 -46 -61 -82t-145 -36q-27 0 -55 10.5t-49.5 25.5t-43 35t-34.5 35l-24 31q-13 16 -14 17q-127 145 -180 145q-12 0 -34 -25l-44 -50q-24 -25 -40 -25q-11 0 -21.5 9.5t-10.5 22.5z" />
<glyph unicode="{" horiz-adv-x="544" d="M106 -359q0 14 44 392t44 394q0 28 -13.5 45t-27 31.5t-13.5 34.5q0 25 12 40t26.5 21t28 21t15.5 38q14 133 40 415l42 430q4 38 38 38q18 0 55 -8.5t62 -8.5q39 0 78 5.5t51 5.5q32 0 32 -18q0 -32 -38.5 -60t-84.5 -41.5t-79 -13.5q-6 0 -10.5 -5.5t-5.5 -12.5 q-46 -398 -88 -798t-61 -598.5t-19 -204.5q0 -8 20.5 -13.5t55.5 -14t59 -23.5q57 -38 57 -79q0 -24 -17 -24q-2 0 -21 4.5t-51 9.5t-65 5q-58 0 -95.5 -14.5t-49.5 -14.5q-9 0 -15 6t-6 16z" />
<glyph unicode="|" horiz-adv-x="428" d="M160 -178q0 153 6 643t6 702q0 91 -1 168.5t-1.5 122t-0.5 53.5q0 26 12.5 38t40.5 12q27 0 35.5 -11.5t8.5 -39.5q0 -6 -0.5 -22t-0.5 -26q0 -9 0.5 -50t1.5 -112.5t1 -155.5q0 -163 -4.5 -567.5t-4.5 -556.5q0 -198 2 -300q0 -3 0.5 -22t0.5 -32v-16q0 -19 -1 -29.5 t-4 -23.5t-10 -19t-19 -6q-46 0 -57 20t-11 105v125z" />
<glyph unicode="}" horiz-adv-x="544" d="M-71 -356q0 24 23.5 48t51.5 40q27 14 64.5 23.5t59 14.5t22.5 14q26 246 39.5 358.5t18 146t29.5 279.5l81 818q0 16 -12 16q-28 0 -68 11t-75.5 37t-35.5 59q0 26 37 26q12 0 49.5 -5.5t76.5 -5.5q25 0 64 8.5t57 8.5q30 0 30 -32q0 -18 -48 -432t-48 -428q0 -18 9 -30 t20.5 -17t20.5 -16.5t9 -29.5q0 -23 -11.5 -39.5t-25.5 -25.5t-27.5 -29t-16.5 -49q-21 -196 -64 -675q-10 -103 -21 -114q-5 -5 -16 -5q-12 0 -46.5 14.5t-92.5 14.5q-33 0 -66 -5t-53 -9.5t-22 -4.5q-13 0 -13 15z" />
<glyph unicode="~" horiz-adv-x="779" d="M60 353q0 3 11 22.5t32 47.5t46.5 54.5t59 45.5t65.5 19q47 0 120 -46t120 -46q33 0 63.5 16t46.5 34l32 35q15 16 22 16q19 0 30 -9t11 -22q0 -4 -11.5 -23t-34.5 -46.5t-51.5 -53t-66.5 -43.5t-76 -18q-46 0 -85.5 23.5t-75 47t-70.5 23.5q-32 0 -60 -17t-43 -38 l-27 -38q-13 -17 -18 -17q-40 0 -40 33z" />
<glyph unicode="&#xa1;" horiz-adv-x="510" d="M140 43q0 29 8 62t26.5 122t37.5 221q36 255 87 497q3 13 14.5 27t27.5 14q27 0 27 -35q0 -11 -4 -57l-52 -795q0 -2 -1 -19t-2 -23.5t-4.5 -22t-10 -23t-17 -17t-27 -13.5t-37.5 -4q-73 0 -73 66zM249 1270q0 9 4.5 18t17.5 22l17 18l24 23l15 15l16 15l13 13 q7 6 12.5 9t8.5 3q25 0 64 -46l21 -22l20 -22q7 -9 13 -18.5t6 -16.5q0 -10 -21 -34t-32 -33q-16 -12 -36 -31.5t-33 -28t-28 -8.5q-6 0 -13 6t-13 14l-17 22l-21 26q-38 44 -38 56z" />
<glyph unicode="&#xa2;" horiz-adv-x="856" d="M65 326q0 177 94.5 323t249.5 202q18 7 35.5 11.5t23 5t11.5 5.5t7 12t3 26l8 75q2 20 32 20q44 0 44 -20q0 -7 -5.5 -47.5t-5.5 -45.5q0 -15 27.5 -17t78 -8.5t89.5 -29.5q9 -5 12 -8t6 -12t3 -25q0 -6 -1.5 -27.5t-4.5 -56t-11 -60t-19 -25.5q-12 0 -20 10t-15.5 26 t-36.5 42.5t-76 52.5q-28 15 -33 15q-12 0 -17 -41l-71 -637q0 -2 -0.5 -5t-0.5 -4q0 -19 31 -19q52 0 101.5 16.5t78.5 36.5l53 37q23 16 30 16q18 0 18 -19q0 -11 -21 -37t-56.5 -57.5t-96 -59t-127.5 -36.5q-22 -3 -25 -8t-9 -75q-2 -31 -6 -64q-2 -22 -43 -22 q-30 0 -30 23q0 13 6.5 73t6.5 62q0 6 -2.5 8t-10.5 2.5t-19 1t-32 5.5t-46 14q-99 37 -153.5 125.5t-54.5 219.5zM215 408q0 -61 16 -115.5t39 -90.5t48.5 -62.5t44 -38.5t25.5 -12q9 0 13 30l72 646q1 6 1 15q0 10 -5 12t-25 2q-77 0 -153 -111t-76 -275z" />
<glyph unicode="&#xa3;" horiz-adv-x="1086" d="M40 75q0 51 36.5 90t107.5 39q32 0 66 -10.5t56.5 -21.5t25.5 -11q7 4 19.5 28.5t24 67.5t11.5 85q0 110 -60 295q-11 35 -16 39q-7 6 -27 6q-4 0 -52.5 -1t-99.5 -1q-23 0 -23 33q0 55 30 55h112q33 0 33 4q0 2 -8 36t-16 88.5t-8 107.5q0 93 24.5 171.5t66 132.5t97 92 t116.5 55.5t126 17.5q120 0 209 -56.5t89 -141.5q0 -46 -34.5 -81.5t-54.5 -35.5q-16 0 -24.5 19t-18.5 58t-22 65q-22 46 -73 72.5t-112 26.5q-29 0 -58 -6t-64.5 -25t-62 -49.5t-44.5 -85.5t-18 -127q0 -21 1.5 -44t4 -41t7 -42t7.5 -37.5t10 -37.5l8 -33l10 -33 q7 -24 8 -28q7 -26 13.5 -33t19.5 -7h294q23 0 30.5 -5t7.5 -19q0 -23 -3.5 -36.5t-12 -19t-15.5 -7t-20 -1.5h-232q-43 0 -43 -8q0 -2 7.5 -33.5t14.5 -80.5t7 -94q0 -164 -109 -328q30 -10 105 -23t156 -13q73 0 134 21.5t96.5 52t60.5 61t40.5 52t23.5 21.5q9 0 15 -7.5 t6 -19.5q0 -19 -11 -54t-37.5 -81t-62.5 -86t-93.5 -68t-124.5 -28q-177 0 -370 90q-9 -1 -35.5 -20.5t-70 -38.5t-96.5 -19q-50 0 -77.5 28.5t-27.5 68.5zM113 86q0 -19 17 -35.5t42 -16.5q36 0 69 24.5t41 38.5q-6 9 -42 21t-68 12q-59 0 -59 -44z" />
<glyph unicode="&#xa4;" horiz-adv-x="1080" d="M40 90q0 25 37 62l141 141q-81 106 -81 243q0 136 79 240l-139 141q-36 36 -36 62q0 23 16.5 39t37.5 16q25 0 62 -37l142 -141q104 79 239 79q137 0 242 -79l142 141q36 36 62 36q23 0 39 -16.5t16 -37.5q0 -25 -37 -62l-141 -142q83 -111 83 -242q0 -129 -83 -239 l141 -142q36 -36 36 -62q0 -23 -16.5 -39t-37.5 -16q-25 0 -62 37l-142 141q-104 -79 -242 -79t-240 77l-141 -139q-36 -36 -62 -36q-23 0 -39 16.5t-16 37.5zM254 533q0 -121 84 -204.5t201 -83.5t201.5 85t84.5 205q0 119 -84.5 206t-201.5 87q-118 0 -201.5 -87.5 t-83.5 -207.5z" />
<glyph unicode="&#xa5;" horiz-adv-x="1414" d="M40 1434q0 28 68 28q12 0 93 -4t99 -4q25 0 96 4t86 4q61 0 61 -30q0 -14 -16 -23.5t-35.5 -15t-35.5 -17.5t-16 -30q0 -23 5 -45.5t22.5 -62.5l34.5 -76l59 -120l77 -160q4 -8 8.5 -18t6 -14t4.5 -9t4 -6t4 -3t6 -2h8h88h13q4 0 8.5 3t6 5.5t8.5 13t13 18.5q7 7 72 99 t135.5 210.5t70.5 160.5q0 29 -22.5 41t-50 11t-50 7.5t-22.5 30.5q0 17 12 23t41 6q10 0 50.5 -2.5t57.5 -2.5q48 0 110.5 3t99.5 3q24 0 37 -5.5t15 -11t2 -14.5q0 -13 -22 -23l-56 -24q-33 -14 -52 -33q-28 -30 -82 -104l-136 -195l-111 -160q-9 -13 -20 -26l-16 -20 q-5 -6 -5 -9q0 -5 24 -5.5t167 -0.5q23 0 23 -35q0 -53 -31 -53q-46 0 -104 0.5t-72 0.5h-37q-14 0 -25.5 -2t-16.5 -3.5t-11 -6.5t-7 -8l-7 -13q-5 -10 -9 -16q-20 -35 -33.5 -101t-13.5 -87q0 -7 4 -9t17 -2q63 0 162 0.5t102 0.5q24 0 32 -6t8 -21q0 -41 -12.5 -52.5 t-42.5 -11.5h-258q-16 0 -19 -3t-4 -18q-1 -7 -1 -11q-19 -200 -19 -211q0 -42 46 -80q22 -17 50.5 -26t49 -10t35 -7.5t14.5 -21.5q0 -9 -2 -14.5t-11 -9.5t-27 -4q-10 0 -102 7t-128 7q-53 0 -103 -8t-69 -8q-55 0 -55 26q0 13 7.5 21t15.5 10.5t26 6t27 6.5q29 9 41.5 36 t20.5 90q27 196 27 197q0 15 -12.5 20t-50.5 5q-127 0 -179.5 0.5t-55.5 0.5q-22 0 -22 34q0 54 30 54q53 0 132 0.5t132 0.5h19q6 0 12 2l8 2q2 0 4 4.5t2 6.5t0.5 11t1.5 14q7 58 7 84q0 32 -25 87q-12 26 -17.5 30.5t-31.5 4.5l-193 -1q-24 0 -32 6t-8 21q0 42 12.5 53 t41.5 11h138q25 0 25 5q0 2 -2 5t-6 10l-8 14l-158 303q-62 120 -101.5 166.5t-77.5 58.5q-6 2 -34.5 3t-46 9.5t-17.5 29.5z" />
<glyph unicode="&#xa6;" horiz-adv-x="427" d="M160 -303q0 27 0.5 60t1.5 76t1.5 180.5t0.5 347.5q0 26 12.5 38t40.5 12q27 0 35.5 -11.5t8.5 -39.5v-376q0 -148 0.5 -192t0.5 -78v-64q0 -19 -1 -29.5t-4 -23.5t-10 -19t-19 -6q-46 0 -57 20t-11 105zM169 1511q0 26 12.5 38t40.5 12q27 0 35.5 -11.5t8.5 -39.5v-378 q0 -152 0.5 -202t0.5 -82v-48q0 -19 -1 -29.5t-4 -23.5t-10 -19t-19 -6q-45 0 -54 19t-9 106v60q0 33 -0.5 76t-0.5 181v347z" />
<glyph unicode="&#xa7;" horiz-adv-x="1109" d="M120 25q0 56 33 56q25 0 32 -24q0 -1 1 -6q45 -205 160 -286q61 -43 138 -43q139 0 229.5 72.5t90.5 171.5q0 45 -35 82t-90.5 64t-123 54t-135.5 59.5t-123.5 71.5t-90.5 98.5t-35 133.5q0 72 23.5 132t57 95.5t67 60.5t57 38.5t23.5 16.5q0 6 -23 22l-48 36 q-27 20 -49.5 65t-22.5 102q0 151 115.5 264.5t289.5 113.5q67 0 117 -14t78.5 -28t44.5 -14q3 0 21 7.5t26 7.5q11 0 21 -5t10 -15l3 -87l5 -104q2 -45 2 -68q0 -77 -31 -77q-17 0 -25.5 19.5t-15 52t-17.5 69t-42 76t-79 67.5q-64 36 -156 36q-59 0 -107 -22t-76 -55.5 t-43 -69.5t-15 -69q0 -48 33.5 -85.5t86.5 -63.5t117.5 -50.5t129 -54t117.5 -67t86.5 -97.5t33.5 -137q0 -71 -18.5 -132.5t-45 -100t-53 -66t-45 -42.5t-18.5 -18q0 -5 11 -13l25 -19q15 -10 33 -37.5t29 -64.5q13 -45 13 -91q0 -68 -28.5 -138.5t-82 -133t-144.5 -102 t-203 -39.5q-85 0 -147 15t-142 63q-24 15 -37 130.5t-13 186.5zM295 612q0 -88 93 -151q37 -26 183 -87t157 -61q31 0 87 74.5t56 151.5q0 48 -24 88t-65.5 68t-76.5 45.5t-75 33.5q-11 4 -16 6q-113 48 -130 48q-12 0 -41 -15t-63 -41t-59.5 -69t-25.5 -91z" />
<glyph unicode="&#xa8;" horiz-adv-x="900" d="M250 1206q0 25 36.5 64.5t66.5 39.5t56 -32t26 -63t-39 -70t-56 -39q-37 0 -63.5 35t-26.5 65zM567 1206q0 25 36.5 64.5t66.5 39.5t56 -32t26 -63t-39 -70t-56 -39q-37 0 -63.5 35t-26.5 65z" />
<glyph unicode="&#xa9;" horiz-adv-x="1630" d="M90 686q0 146 56.5 280.5t153 234t232.5 158.5t287 59q150 0 285.5 -59t232.5 -158t154 -233.5t57 -281.5q0 -194 -94.5 -361t-263.5 -267.5t-373 -100.5q-194 0 -361 95.5t-266.5 263.5t-99.5 370zM176 686q0 -133 52 -253t139.5 -205t205.5 -135t246 -50q170 0 317 83 t236.5 232.5t89.5 330.5q0 127 -49.5 244.5t-134 204.5t-205.5 139.5t-256 52.5q-133 0 -252 -51.5t-204 -138.5t-135 -206t-50 -248zM336 660q0 100 31.5 187.5t91 154t153.5 105t210 38.5q78 0 156 -22.5t124 -45t48 -22.5q4 0 10 6t15 6q8 0 13 -2t8 -8.5t4.5 -14.5 t3.5 -23t3 -30.5t4 -41.5t7 -51q4 -28 4 -31q0 -31 -26 -31q-18 0 -29 22q-119 219 -345 219q-154 0 -252.5 -95t-98.5 -247q0 -55 11 -110t40 -115t73.5 -105.5t119 -75t168.5 -29.5q162 0 278 162q13 18 22 40.5t15.5 30t24.5 7.5q14 0 14 -16q0 -56 -25 -170 q-4 -18 -26 -29l-57 -27q-42 -21 -63 -29t-58.5 -21t-75.5 -18t-82 -5q-93 0 -170.5 18t-129.5 47t-92 69.5t-62.5 80t-36.5 83.5t-18.5 76.5t-4.5 62.5z" />
<glyph unicode="&#xaa;" horiz-adv-x="690" d="M40 957q0 51 25.5 115.5t69.5 124.5t113 101t146 41q23 0 61.5 -6.5t62.5 -6.5q10 0 34.5 30t36.5 30q16 0 16 -24q0 -9 -3.5 -21t-9.5 -30.5t-10 -33.5l-4 -21l-10 -50l-12 -65l-12 -70q-6 -33 -9.5 -62t-3.5 -42q0 -24 11.5 -45t24.5 -21q16 0 32.5 19.5t31.5 39.5 t26 20q15 0 15 -18q0 -39 -55.5 -98t-88.5 -59q-24 0 -41 10.5t-26 29.5t-13 34.5t-6.5 35.5t-3.5 23l-15 -14l-25 -24q-12 -11 -32.5 -27.5t-41 -28.5t-44.5 -24t-51 -18.5t-53 -6.5q-43 0 -71.5 13t-41.5 38t-18 50.5t-5 60.5zM135 964q0 -42 27.5 -67t71.5 -25 q35 0 68.5 13t56 32.5t36 34.5t19.5 26q19 33 42.5 144.5t23.5 135.5q0 41 -90 41q-45 0 -94.5 -26t-79.5 -70q-40 -66 -60.5 -119.5t-20.5 -119.5z" />
<glyph unicode="&#xab;" horiz-adv-x="718" d="M40 441q0 8 15 23q290 243 299 248q3 2 6 2q9 0 17.5 -12.5t8.5 -23.5q0 -13 -101.5 -119t-101.5 -115q0 -14 76 -117t76 -117q0 -10 -12 -24t-22 -14q-6 0 -40 34q38 -38 -212 220q-9 7 -9 15zM292 441q0 9 14 23q287 241 296 247q6 3 10 3q9 0 17.5 -12.5t8.5 -23.5 q0 -12 -102 -117t-102 -116q0 -13 75.5 -119.5t75.5 -116.5q0 -7 -10.5 -22t-21.5 -15q-6 0 -16 9.5t-72 74.5l-164 170q-9 7 -9 15z" />
<glyph unicode="&#xac;" d="M43 441q0 16 6.5 24t13.5 9.5t19 1.5h874q26 0 33.5 -7.5t7.5 -32.5v-323q0 -17 -6.5 -24.5t-24.5 -7.5t-26.5 1t-17.5 4.5t-12.5 12.5t-3.5 24v227q0 35 -54 35h-769q-27 0 -33.5 11.5t-6.5 44.5z" />
<glyph unicode="&#xad;" horiz-adv-x="577" d="M80 379q0 28 17 46.5t72 34.5q73 22 130.5 41.5t79 28t39.5 13.5t34 5q45 0 45 -45q0 -18 -0.5 -28t-6 -20t-10 -14t-19.5 -11t-26 -10l-40 -14q-29 -9 -51 -17q-50 -17 -96 -35l-64 -24q-18 -8 -36 -13t-33 -5q-35 0 -35 67z" />
<glyph unicode="&#xae;" horiz-adv-x="979" d="M60 1118q0 180 124.5 306t301.5 126q180 0 306.5 -126t126.5 -306q0 -175 -127 -301.5t-306 -126.5q-176 0 -301 126.5t-125 301.5zM121 1118q0 -147 109 -255t256 -108q152 0 261 107.5t109 255.5q0 152 -109 260.5t-261 108.5q-148 0 -256.5 -109t-108.5 -260z M252 1348q0 18 25 18q16 0 27 -0.5t20 -0.5q60 0 105.5 2.5t50.5 2.5q76 0 126.5 -31t50.5 -99q0 -40 -22.5 -63.5t-45.5 -32t-23 -10.5t7.5 -10t19 -22t18.5 -26q28 -49 75 -115q24 -32 43 -32q1 0 5.5 1.5t7.5 1.5q9 0 9 -9q0 -11 -11.5 -23t-38.5 -12t-55 15 q-25 14 -58 67l-62 99q-28 47 -42 51q-2 1 -51 1q-14 0 -17.5 -6.5t-3.5 -39.5q0 -78 6 -102q8 -30 29 -40t37.5 -11.5t16.5 -12.5q0 -13 -14 -13q-1 0 -51 2.5t-54 2.5q-22 0 -57 -3l-35 -2q-13 0 -13 15q0 9 11.5 10.5t25.5 10t17 35.5q3 21 3 67v49q0 73 0.5 130t0.5 68 q0 53 -61 53q-22 0 -22 14zM411 1221q0 -41 5.5 -56t24.5 -15q11 0 17 -0.5t11 -0.5q61 0 84.5 18.5t23.5 68.5q0 17 -9.5 38t-41 41.5t-79.5 20.5q-22 0 -29 -9t-7 -38v-68z" />
<glyph unicode="&#xaf;" horiz-adv-x="900" d="M257 1190q0 21 10.5 38t30.5 17q157 0 224.5 -1.5t143.5 -1.5q16 0 22 -5.5t6 -24.5q0 -28 -7 -43t-28 -15q-14 0 -178.5 1t-206.5 1q-7 0 -12 10t-5 24z" />
<glyph unicode="&#xb0;" horiz-adv-x="531" d="M60 1251q0 71 61 140t149 69q52 0 93 -23t63.5 -58t33.5 -70t11 -67q0 -42 -17.5 -79t-43 -60t-54.5 -40t-51.5 -24t-35.5 -7q-52 0 -91.5 17t-61 41.5t-35 57t-17.5 56.5t-4 47zM147 1249q0 -57 33 -92t88 -35q8 0 20.5 2.5t29.5 11t31.5 21t24.5 35.5t10 52 q0 16 -2.5 31t-10 33t-19.5 31t-33.5 22t-50.5 9q-43 0 -82 -35.5t-39 -85.5z" />
<glyph unicode="&#xb1;" d="M43 184q0 32 6 44t32 12h878q22 0 29.5 -9.5t7.5 -32.5q0 -18 -2 -27t-11.5 -15.5t-29.5 -6.5h-874q-18 0 -27 7t-9 28zM43 663q0 46 38 46h371q22 0 22 21q0 3 -0.5 9t-0.5 9v265q0 31 33 31q37 0 47.5 -6t10.5 -28v-262v-16q0 -11 5 -17t19 -6h376q32 0 32 -32 q0 -25 -1.5 -35t-11 -18t-30.5 -8h-365q-15 0 -19.5 -8t-4.5 -26v-271q0 -18 -7.5 -23.5t-25.5 -5.5q-34 0 -46 5.5t-12 24.5v270q0 21 -5.5 27.5t-27.5 6.5h-361q-17 0 -25 6t-9.5 14.5t-1.5 26.5z" />
<glyph unicode="&#xb2;" horiz-adv-x="670" d="M76 729v5q0 12 12.5 30.5t39.5 51.5l62 73q34 41 86.5 112.5t104.5 153.5q75 116 75 218q0 61 -30 97.5t-85 36.5q-39 0 -70.5 -18.5t-47.5 -41.5t-31.5 -41.5t-24.5 -18.5q-14 0 -14 22q0 8 8.5 28.5t28 49.5t45 55.5t65 45t82.5 18.5q27 0 54.5 -6t56.5 -21t51 -38 t36 -61.5t14 -86.5q0 -55 -36.5 -126t-89 -136t-104.5 -123l-88 -102q-37 -44 -37 -60q0 -7 35 -7q63 0 106 3t67.5 6t42 12.5t23.5 15t17.5 22.5t18.5 25q12 15 21 15q12 0 12 -15q0 -20 -48 -113t-75 -93q-76 0 -136 1.5t-77 1.5q-14 0 -69 -2t-71 -2q-14 0 -21 2t-8 4 t-1 7z" />
<glyph unicode="&#xb3;" horiz-adv-x="670" d="M51 785q0 11 6 21t19 10q5 0 14 -6l22 -14q11 -7 39 -13t66 -6q96 0 159 70.5t63 155.5q0 66 -43.5 109.5t-129.5 43.5q-11 0 -22 -2t-17.5 -4t-7.5 -2q-17 0 -17 24q0 5 2.5 8t12 6.5t22 9t38 19t54.5 31.5q54 34 81.5 79t27.5 90q0 50 -32 83t-86 33q-38 0 -73.5 -15.5 t-58.5 -30.5t-31 -15q-10 0 -10 11q0 37 68 81.5t152 44.5q83 0 139.5 -39t56.5 -114q0 -47 -27.5 -89.5t-59.5 -66.5l-60 -43q-28 -19 -28 -24q0 -2 18.5 -7t45 -17t53 -31.5t45 -59t18.5 -92.5q0 -117 -95 -215t-231 -98q-74 0 -133.5 22t-59.5 52z" />
<glyph unicode="&#xb4;" horiz-adv-x="900" d="M383 1004q0 9 15 28t63.5 93.5t108.5 189.5q19 36 41 36t59.5 -13t37.5 -34q0 -22 -70.5 -100.5t-146 -147t-90.5 -68.5q-18 0 -18 16z" />
<glyph unicode="&#xb5;" horiz-adv-x="1097" d="M20 -300q0 91 20 187.5t59.5 234.5t58.5 219q40 173 79 368q21 103 29.5 128.5t24.5 25.5q18 0 56.5 -13.5t38.5 -39.5q0 -21 -51.5 -313t-51.5 -333q0 -73 40 -73q53 0 122 65t133.5 166t119 204t94.5 198q10 24 18 46l13 34q5 12 8 23.5t5.5 17t4 10t5 5.5t7 1.5 t10.5 0.5q27 0 57.5 -13t30.5 -29q0 -5 -64 -306.5t-64 -359.5q0 -23 15.5 -37.5t35.5 -14.5q27 0 49.5 23t34.5 51t27 51t28 23q24 0 24 -35q0 -32 -22.5 -75.5t-58.5 -85t-90 -70t-110 -28.5q-48 0 -65.5 39.5t-17.5 108.5q0 54 20 176.5t20 125.5q0 11 -4 11 q-7 0 -26.5 -35t-70.5 -111t-119 -150q-62 -68 -133 -113t-130 -45q-31 0 -50.5 22.5t-26.5 44.5t-9 22q-4 0 -14 -41t-19 -96.5t-9 -89.5q0 -39 27 -101.5t27 -67.5q0 -8 -5.5 -21t-23.5 -27.5t-45 -14.5q-33 0 -47.5 25.5t-14.5 81.5z" />
<glyph unicode="&#xb6;" horiz-adv-x="994" d="M80 971q0 92 28 173.5t73 138.5t101.5 99t114 62t109.5 20q53 0 135 1.5t121 1.5q16 0 54 1.5t60 1.5h24q5 0 9.5 -6t4.5 -12q0 -14 -14.5 -22t-39 -18t-39.5 -25q-29 -29 -41 -135l-59 -530q-37 -323 -58 -530q-17 -158 -74.5 -287.5t-149.5 -206.5t-201 -77 q-76 0 -123 30q-10 7 -10 43q0 35 26.5 90.5t45.5 55.5q12 0 18.5 -24.5t11.5 -54t30.5 -54t70.5 -24.5q136 0 180 502l5 52l32 345q4 36 4 44q0 17 -9 24.5t-35 7.5q-50 0 -90.5 3.5t-90.5 14t-87 32t-69.5 54.5t-50 86.5t-17.5 122.5zM422 879q0 -163 68 -163 q16 0 26.5 5.5t16.5 13t10.5 24.5t6 29.5t3.5 38.5q5 43 10.5 119.5t9.5 112.5q11 104 19.5 171t11.5 83t4 25.5t1 24.5q0 57 -45 57q-19 0 -43 -11t-33 -33q-24 -61 -40.5 -189.5t-21 -207.5t-4.5 -100zM502 -104q0 -17 13 -17q8 0 28.5 43.5t44.5 133.5t34 190l116 1142v3 q0 15 -12.5 24.5t-27.5 9.5q-12 0 -23.5 -7.5t-12.5 -19.5q-24 -180 -58.5 -516t-57.5 -582l-22 -246q-5 -48 -9.5 -81t-7 -43.5t-4 -18t-1.5 -15.5z" />
<glyph unicode="&#xb7;" horiz-adv-x="616" d="M212 679q0 17 38.5 62t63.5 45q29 0 54.5 -38.5t25.5 -69.5q0 -27 -37 -67.5t-53 -40.5q-25 0 -58.5 45t-33.5 64z" />
<glyph unicode="&#xb8;" horiz-adv-x="900" d="M354 -162q0 1 18.5 17.5t43 33t36.5 16.5q4 0 14 -3.5t25.5 -13t29 -22.5t23 -35t9.5 -47q0 -47 -21.5 -86t-51 -60.5t-54.5 -33t-37 -11.5t-12 8q0 5 20.5 17t41.5 37t21 61q0 31 -16.5 52.5t-36.5 30t-36.5 18.5t-16.5 21z" />
<glyph unicode="&#xb9;" horiz-adv-x="670" d="M150 746q0 11 9 21t29 10h16q73 0 80 50q8 40 22.5 191t24.5 278.5t10 132.5q0 45 -31 45q-13 0 -41.5 -7t-34.5 -7q-22 0 -22 19t18.5 27t45.5 9.5t70 14.5t80 38q8 6 17.5 15.5t17.5 14.5t20 5q10 0 10 -23q0 -2 -1 -9q-11 -87 -43 -378q-31 -287 -31 -338 q0 -76 88 -80q5 0 14 -1q17 -1 24 -2.5t12.5 -7t5.5 -17.5q0 -26 -37 -26q-8 0 -66 3.5t-113 3.5q-33 0 -89.5 -5t-73.5 -5q-31 0 -31 28z" />
<glyph unicode="&#xba;" horiz-adv-x="596" d="M40 1015q0 60 20.5 117.5t58.5 106t100 78.5t139 30q98 0 148 -63t50 -159q0 -60 -20 -118.5t-57 -108t-97 -80t-134 -30.5q-92 0 -150 58t-58 169zM145 1013q0 -88 33 -133t85 -45q63 0 97.5 32t57.5 87q37 88 37 185q0 82 -31.5 122t-84.5 40q-44 0 -79.5 -23t-56 -56 t-34.5 -74.5t-19 -75t-5 -59.5z" />
<glyph unicode="&#xbb;" horiz-adv-x="718" d="M80 208q0 13 102.5 120.5t102.5 112.5q0 13 -76 119.5t-76 116.5q0 7 10.5 22t21.5 15q6 0 16 -9.5t72 -74.5l164 -170q9 -7 9 -15q0 -12 -15 -23l-200 -169q-72 -61 -85 -71t-19 -10q-10 0 -18.5 12.5t-8.5 23.5zM332 208q0 13 101.5 119t101.5 115q0 15 -76 122.5 t-76 112.5q0 11 12 24t22 13q6 0 40 -34q-38 38 212 -220q9 -7 9 -15t-15 -23q-290 -244 -297 -248q-4 -2 -7 -2q-10 0 -18.5 12.5t-8.5 23.5z" />
<glyph unicode="&#xbc;" horiz-adv-x="1790" d="M150 384q0 11 9 21t29 10h16q73 0 80 50q8 40 22.5 191t24.5 278.5t10 132.5q0 45 -31 45q-13 0 -41.5 -7t-34.5 -7q-22 0 -22 19t18.5 27t45.5 9.5t70 14.5t80 38q8 6 17.5 15.5t17.5 14.5t20 5q10 0 10 -23q0 -2 -1 -9q-11 -87 -43 -378q-31 -287 -31 -338 q0 -76 88 -80q5 0 14 -1q17 -1 24 -2.5t12.5 -7t5.5 -17.5q0 -26 -37 -26q-8 0 -66 3.5t-113 3.5q-33 0 -89.5 -5t-73.5 -5q-31 0 -31 28zM1134 140q0 2 1.5 22.5t1.5 23.5q2 29 438 582q42 52 54 58q6 3 10 3q18 0 18 -24q0 -3 -34 -270t-34 -286q0 -13 13 -13h28 q18 0 28 9t12.5 20t9 20t17.5 9q7 0 11 -6.5t4 -10.5q-23 -122 -30 -136q-10 -18 -19 -18h-38q-16 0 -21.5 0.5t-9.5 0.5h-7q-6 0 -8 -12.5t-5 -51.5q-3 -48 -6 -82q-6 -68 -11 -77q-6 -9 -38 -14q-7 -1 -11 -2q-27 -5 -38 -5q-16 0 -22 6.5t-6 20.5q0 12 17 98t17 114 q0 7 -12 7q-11 0 -136 -1t-158 -1q-25 0 -30.5 2.5t-5.5 13.5zM1242 247q0 -10 24 -10h191q24 0 28.5 3.5t6.5 22.5q45 346 45 351q0 10 -5 10q-10 0 -150 -176.5t-140 -200.5zM442 -147q0 31 935 1420q5 9 24 33.5t30 24.5t24 -9.5t13 -16.5q0 -20 -17 -44l-897 -1365 l-43 -66q-7 -11 -14 -13q-14 -4 -21 -4q-12 0 -19 3t-10 9.5t-4 12t-1 15.5z" />
<glyph unicode="&#xbd;" horiz-adv-x="1790" d="M1196 -61v5q0 12 12.5 30.5t39.5 51.5l62 73q34 41 86.5 112.5t104.5 153.5q75 116 75 218q0 61 -30 97.5t-85 36.5q-39 0 -70.5 -18.5t-47.5 -41.5t-31.5 -41.5t-24.5 -18.5q-14 0 -14 22q0 8 8.5 28.5t28 49.5t45 55.5t65 45t82.5 18.5q27 0 54.5 -6t56.5 -21t51 -38 t36 -61.5t14 -86.5q0 -55 -36.5 -126t-89 -136t-104.5 -123l-88 -102q-37 -44 -37 -60q0 -7 35 -7q63 0 106 3t67.5 6t42 12.5t23.5 15t17.5 22.5t18.5 25q12 15 21 15q12 0 12 -15q0 -20 -48 -113t-75 -93q-76 0 -136 1.5t-77 1.5q-14 0 -69 -2t-71 -2q-14 0 -21 2t-8 4 t-1 7zM150 384q0 11 9 21t29 10h16q73 0 80 50q8 40 22.5 191t24.5 278.5t10 132.5q0 45 -31 45q-13 0 -41.5 -7t-34.5 -7q-22 0 -22 19t18.5 27t45.5 9.5t70 14.5t80 38q8 6 17.5 15.5t17.5 14.5t20 5q10 0 10 -23q0 -2 -1 -9q-11 -87 -43 -378q-31 -287 -31 -338 q0 -76 88 -80q5 0 14 -1q17 -1 24 -2.5t12.5 -7t5.5 -17.5q0 -26 -37 -26q-8 0 -66 3.5t-113 3.5q-33 0 -89.5 -5t-73.5 -5q-31 0 -31 28zM442 -147q0 31 935 1420q5 9 24 33.5t30 24.5t24 -9.5t13 -16.5q0 -20 -17 -44l-897 -1365l-43 -66q-7 -11 -14 -13q-14 -4 -21 -4 q-12 0 -19 3t-10 9.5t-4 12t-1 15.5z" />
<glyph unicode="&#xbe;" horiz-adv-x="1790" d="M51 423q0 11 6 21t19 10q5 0 14 -6l22 -14q11 -7 39 -13t66 -6q96 0 159 70.5t63 155.5q0 66 -43.5 109.5t-129.5 43.5q-11 0 -22 -2t-17.5 -4t-7.5 -2q-17 0 -17 24q0 5 2.5 8t12 6.5t22 9t38 19t54.5 31.5q54 34 81.5 79t27.5 90q0 50 -32 83t-86 33q-38 0 -73.5 -15.5 t-58.5 -30.5t-31 -15q-10 0 -10 11q0 37 68 81.5t152 44.5q83 0 139.5 -39t56.5 -114q0 -47 -27.5 -89.5t-59.5 -66.5l-60 -43q-28 -19 -28 -24q0 -2 18.5 -7t45 -17t53 -31.5t45 -59t18.5 -92.5q0 -117 -95 -215t-231 -98q-74 0 -133.5 22t-59.5 52zM1134 140q0 2 1.5 22.5 t1.5 23.5q2 29 438 582q42 52 54 58q6 3 10 3q18 0 18 -24q0 -3 -34 -270t-34 -286q0 -13 13 -13h28q18 0 28 9t12.5 20t9 20t17.5 9q7 0 11 -6.5t4 -10.5q-23 -122 -30 -136q-10 -18 -19 -18h-38q-16 0 -21.5 0.5t-9.5 0.5h-7q-6 0 -8 -12.5t-5 -51.5q-3 -48 -6 -82 q-6 -68 -11 -77q-6 -9 -38 -14q-7 -1 -11 -2q-27 -5 -38 -5q-16 0 -22 6.5t-6 20.5q0 12 17 98t17 114q0 7 -12 7q-11 0 -136 -1t-158 -1q-25 0 -30.5 2.5t-5.5 13.5zM1242 247q0 -10 24 -10h191q24 0 28.5 3.5t6.5 22.5q45 346 45 351q0 10 -5 10q-10 0 -150 -176.5 t-140 -200.5zM442 -147q0 31 935 1420q5 9 24 33.5t30 24.5t24 -9.5t13 -16.5q0 -20 -17 -44l-897 -1365l-43 -66q-7 -11 -14 -13q-14 -4 -21 -4q-12 0 -19 3t-10 9.5t-4 12t-1 15.5z" />
<glyph unicode="&#xbf;" horiz-adv-x="725" d="M107 214q0 34 9 67.5t26.5 62t30.5 47t33 41.5t23 27l57 71l54 68l42 54q28 38 37 56l23 46q14 28 18.5 50.5t4.5 46.5q0 12 -3 37t-3 32q0 20 19 20q51 0 51 -133q0 -49 -28 -115t-67 -130l-80 -128q-39 -62 -67 -119.5t-28 -93.5q0 -64 53.5 -110t110.5 -46 q40 0 79.5 20t51.5 20q18 0 18 -13q0 -16 -27.5 -44t-78 -52.5t-102.5 -24.5q-62 0 -120 28.5t-97.5 85.5t-39.5 129zM396 1231q0 9 9 19.5t31.5 29.5t28.5 25l24 25q17 18 27.5 27t15.5 9q7 0 13.5 -2.5t14.5 -10t12 -12t13.5 -16.5t12.5 -15q10 -11 27.5 -27.5t26.5 -27.5 t9 -20q0 -7 -6 -16t-16.5 -18t-19.5 -16t-18.5 -13.5t-10.5 -7.5q-17 -13 -33 -30t-26 -24t-25 -7q-5 0 -10 3t-11 10l-11 12q-6 7 -15 19t-17 21q-4 4 -11.5 13t-12.5 14.5t-10.5 13t-8.5 13t-3 9.5z" />
<glyph unicode="&#xc0;" horiz-adv-x="1580" d="M760 1839q0 25 42 38.5t64 13.5q23 0 34 -36q33 -107 64 -179.5t44 -96t13 -31.5q0 -9 -6.5 -14.5t-15.5 -5.5q-14 0 -73 66t-112.5 143t-53.5 102zM40 19q0 15 12 23.5t34 16.5q4 1 6 2q20 7 33 15t27.5 20t30.5 36l35 56q20 32 51 90l67 123l94 171l122 222l160 285 l200 351q17 29 23.5 34.5t22.5 5.5t23 -11q6 -11 48 -157q21 -77 45 -155l171 -537q121 -374 132 -402q35 -90 54 -111.5t76 -39.5q17 -6 25 -14t8 -26q0 -12 -12 -17t-52 -5q-22 0 -62 3.5t-70 3.5q-38 0 -97 -5.5t-84 -5.5q-65 0 -65 24q0 19 21 30.5t46.5 16t46.5 22.5 t21 49q0 46 -42 189t-43 147l-2 7q-1 6 -1.5 8t-2.5 8.5t-4.5 9t-6.5 8t-9 8.5l-12 5q-7 3 -16.5 4.5t-20.5 1.5t-90.5 -1t-157.5 -1q-157 0 -207.5 2.5t-67.5 2.5q-54 0 -71 -30q-58 -100 -100.5 -187.5t-57.5 -127t-15 -46.5q0 -39 21.5 -59t47.5 -22.5t47.5 -10 t21.5 -24.5q0 -14 -4 -21t-9 -8t-17 -1q-140 4 -179 4q-35 0 -154 -4q-41 0 -41 24zM556 640q0 -18 66 -18q10 0 29 0.5t49 0.5t121 0.5t227 0.5q16 0 24 6t9 11t1 15q0 24 -90 294t-108 270q-11 0 -169.5 -285.5t-158.5 -294.5z" />
<glyph unicode="&#xc1;" horiz-adv-x="1580" d="M874 1544q0 9 15 28t63.5 93.5t108.5 189.5q19 36 41 36t59.5 -13t37.5 -34q0 -22 -70.5 -100.5t-146 -147t-90.5 -68.5q-18 0 -18 16zM40 19q0 15 12 23.5t34 16.5q4 1 6 2q20 7 33 15t27.5 20t30.5 36l35 56q20 32 51 90l67 123l94 171l122 222l160 285l200 351 q17 29 23.5 34.5t22.5 5.5t23 -11q6 -11 48 -157q21 -77 45 -155l171 -537q121 -374 132 -402q35 -90 54 -111.5t76 -39.5q17 -6 25 -14t8 -26q0 -12 -12 -17t-52 -5q-22 0 -62 3.5t-70 3.5q-38 0 -97 -5.5t-84 -5.5q-65 0 -65 24q0 19 21 30.5t46.5 16t46.5 22.5t21 49 q0 46 -42 189t-43 147l-2 7q-1 6 -1.5 8t-2.5 8.5t-4.5 9t-6.5 8t-9 8.5l-12 5q-7 3 -16.5 4.5t-20.5 1.5t-90.5 -1t-157.5 -1q-157 0 -207.5 2.5t-67.5 2.5q-54 0 -71 -30q-58 -100 -100.5 -187.5t-57.5 -127t-15 -46.5q0 -39 21.5 -59t47.5 -22.5t47.5 -10t21.5 -24.5 q0 -14 -4 -21t-9 -8t-17 -1q-140 4 -179 4q-35 0 -154 -4q-41 0 -41 24zM556 640q0 -18 66 -18q10 0 29 0.5t49 0.5t121 0.5t227 0.5q16 0 24 6t9 11t1 15q0 24 -90 294t-108 270q-11 0 -169.5 -285.5t-158.5 -294.5z" />
<glyph unicode="&#xc2;" horiz-adv-x="1580" d="M725 1561q0 3 9 16l75 97l52 72l34 51l22 34q7 11 13 19t10 10t11 2h52q20 0 29 -20q29 -62 67 -130l58 -104q20 -37 20 -45q0 -11 -16 -11t-101 87t-93 87q-16 -1 -116.5 -86.5t-111.5 -85.5q-14 0 -14 7zM40 19q0 15 12 23.5t34 16.5q4 1 6 2q20 7 33 15t27.5 20 t30.5 36l35 56q20 32 51 90l67 123l94 171l122 222l160 285l200 351q17 29 23.5 34.5t22.5 5.5t23 -11q6 -11 48 -157q21 -77 45 -155l171 -537q121 -374 132 -402q35 -90 54 -111.5t76 -39.5q17 -6 25 -14t8 -26q0 -12 -12 -17t-52 -5q-22 0 -62 3.5t-70 3.5 q-38 0 -97 -5.5t-84 -5.5q-65 0 -65 24q0 19 21 30.5t46.5 16t46.5 22.5t21 49q0 46 -42 189t-43 147l-2 7q-1 6 -1.5 8t-2.5 8.5t-4.5 9t-6.5 8t-9 8.5l-12 5q-7 3 -16.5 4.5t-20.5 1.5t-90.5 -1t-157.5 -1q-157 0 -207.5 2.5t-67.5 2.5q-54 0 -71 -30 q-58 -100 -100.5 -187.5t-57.5 -127t-15 -46.5q0 -39 21.5 -59t47.5 -22.5t47.5 -10t21.5 -24.5q0 -14 -4 -21t-9 -8t-17 -1q-140 4 -179 4q-35 0 -154 -4q-41 0 -41 24zM556 640q0 -18 66 -18q10 0 29 0.5t49 0.5t121 0.5t227 0.5q16 0 24 6t9 11t1 15q0 24 -90 294 t-108 270q-11 0 -169.5 -285.5t-158.5 -294.5z" />
<glyph unicode="&#xc3;" horiz-adv-x="1580" d="M658 1635q0 18 36.5 66.5t90 92t91.5 43.5q32 0 65.5 -15.5t57 -33.5t57.5 -33.5t67 -15.5q25 0 47.5 18t36 39t27.5 39t24 18q18 0 18 -24q0 -36 -80 -117t-136 -81q-42 0 -85 25l-84 48q-41 25 -78 25q-26 0 -49 -18t-37 -40t-28.5 -40t-24.5 -18q-16 0 -16 22zM40 19 q0 15 12 23.5t34 16.5q4 1 6 2q20 7 33 15t27.5 20t30.5 36l35 56q20 32 51 90l67 123l94 171l122 222l160 285l200 351q17 29 23.5 34.5t22.5 5.5t23 -11q6 -11 48 -157q21 -77 45 -155l171 -537q121 -374 132 -402q35 -90 54 -111.5t76 -39.5q17 -6 25 -14t8 -26 q0 -12 -12 -17t-52 -5q-22 0 -62 3.5t-70 3.5q-38 0 -97 -5.5t-84 -5.5q-65 0 -65 24q0 19 21 30.5t46.5 16t46.5 22.5t21 49q0 46 -42 189t-43 147l-2 7q-1 6 -1.5 8t-2.5 8.5t-4.5 9t-6.5 8t-9 8.5l-12 5q-7 3 -16.5 4.5t-20.5 1.5t-90.5 -1t-157.5 -1q-157 0 -207.5 2.5 t-67.5 2.5q-54 0 -71 -30q-58 -100 -100.5 -187.5t-57.5 -127t-15 -46.5q0 -39 21.5 -59t47.5 -22.5t47.5 -10t21.5 -24.5q0 -14 -4 -21t-9 -8t-17 -1q-140 4 -179 4q-35 0 -154 -4q-41 0 -41 24zM556 640q0 -18 66 -18q10 0 29 0.5t49 0.5t121 0.5t227 0.5q16 0 24 6t9 11 t1 15q0 24 -90 294t-108 270q-11 0 -169.5 -285.5t-158.5 -294.5z" />
<glyph unicode="&#xc4;" horiz-adv-x="1580" d="M741 1746q0 25 36.5 64.5t66.5 39.5t56 -32t26 -63t-39 -70t-56 -39q-37 0 -63.5 35t-26.5 65zM1058 1746q0 25 36.5 64.5t66.5 39.5t56 -32t26 -63t-39 -70t-56 -39q-37 0 -63.5 35t-26.5 65zM40 19q0 15 12 23.5t34 16.5q4 1 6 2q20 7 33 15t27.5 20t30.5 36l35 56 q20 32 51 90l67 123l94 171l122 222l160 285l200 351q17 29 23.5 34.5t22.5 5.5t23 -11q6 -11 48 -157q21 -77 45 -155l171 -537q121 -374 132 -402q35 -90 54 -111.5t76 -39.5q17 -6 25 -14t8 -26q0 -12 -12 -17t-52 -5q-22 0 -62 3.5t-70 3.5q-38 0 -97 -5.5t-84 -5.5 q-65 0 -65 24q0 19 21 30.5t46.5 16t46.5 22.5t21 49q0 46 -42 189t-43 147l-2 7q-1 6 -1.5 8t-2.5 8.5t-4.5 9t-6.5 8t-9 8.5l-12 5q-7 3 -16.5 4.5t-20.5 1.5t-90.5 -1t-157.5 -1q-157 0 -207.5 2.5t-67.5 2.5q-54 0 -71 -30q-58 -100 -100.5 -187.5t-57.5 -127t-15 -46.5 q0 -39 21.5 -59t47.5 -22.5t47.5 -10t21.5 -24.5q0 -14 -4 -21t-9 -8t-17 -1q-140 4 -179 4q-35 0 -154 -4q-41 0 -41 24zM556 640q0 -18 66 -18q10 0 29 0.5t49 0.5t121 0.5t227 0.5q16 0 24 6t9 11t1 15q0 24 -90 294t-108 270q-11 0 -169.5 -285.5t-158.5 -294.5z" />
<glyph unicode="&#xc5;" horiz-adv-x="1580" d="M40 19q0 15 12 23.5t34 16.5q4 1 6 2q20 7 33 15t27.5 20t30.5 36l35 56q20 32 51 90l67 123l94 171l122 222l160 285l200 351q17 29 23.5 34.5t22.5 5.5t23 -11q6 -11 48 -157q21 -77 45 -155l171 -537q121 -374 132 -402q35 -90 54 -111.5t76 -39.5q17 -6 25 -14t8 -26 q0 -12 -12 -17t-52 -5q-22 0 -62 3.5t-70 3.5q-38 0 -97 -5.5t-84 -5.5q-65 0 -65 24q0 19 21 30.5t46.5 16t46.5 22.5t21 49q0 46 -42 189t-43 147l-2 7q-1 6 -1.5 8t-2.5 8.5t-4.5 9t-6.5 8t-9 8.5l-12 5q-7 3 -16.5 4.5t-20.5 1.5t-90.5 -1t-157.5 -1q-157 0 -207.5 2.5 t-67.5 2.5q-54 0 -71 -30q-58 -100 -100.5 -187.5t-57.5 -127t-15 -46.5q0 -39 21.5 -59t47.5 -22.5t47.5 -10t21.5 -24.5q0 -14 -4 -21t-9 -8t-17 -1q-140 4 -179 4q-35 0 -154 -4q-41 0 -41 24zM556 640q0 -18 66 -18q10 0 29 0.5t49 0.5t121 0.5t227 0.5q16 0 24 6t9 11 t1 15q0 24 -90 294t-108 270q-11 0 -169.5 -285.5t-158.5 -294.5zM817 1729q0 69 54.5 121.5t117.5 52.5q67 0 99 -45.5t32 -99.5q0 -41 -21 -75.5t-50.5 -53.5t-55 -29.5t-39.5 -10.5q-41 0 -70 14t-42.5 37t-19 44.5t-5.5 44.5zM884 1735q0 -34 21 -55t56 -21 q27 0 59.5 24t32.5 75q0 30 -16.5 52.5t-57.5 22.5q-31 0 -63 -27t-32 -71z" />
<glyph unicode="&#xc6;" horiz-adv-x="2208" d="M40 14q0 7 3.5 13t7 10t12 8.5t12 6t13.5 5.5t11 4q24 9 40 19t35 27t49 56l67 88l104 143l148 200l209 278l277 364l80 104q11 13 11 27q0 17 -31.5 20.5t-63 6.5t-31.5 21q0 16 10 22.5t37 6.5h99q50 0 82.5 -0.5t39.5 -0.5q258 -3 408 -3q44 0 244.5 4.5t228.5 4.5 q36 0 36 -39q0 -11 -3.5 -46t-3.5 -62q0 -15 3 -51.5t3 -59.5q0 -20 -8 -39t-19 -19q-19 0 -25 14.5t-5.5 35t-8.5 51.5t-30 56q-8 10 -29 22.5t-72.5 26.5t-114.5 15q-76 1 -165 3.5t-151 2.5q-85 0 -107 -18q-20 -16 -31 -79q-2 -8 -7 -41q-7 -48 -28.5 -223t-21.5 -193 q0 -20 13.5 -24.5t74.5 -4.5q187 0 268 4.5t105.5 13.5t43.5 32q16 20 28 42t16 34.5t10 21t15 8.5q25 0 25 -23q0 -19 -17.5 -96.5t-22.5 -116.5q-3 -21 -4 -79.5t-8 -91t-26 -32.5q-21 0 -21 34q0 97 -36 123q-60 43 -218 43q-61 0 -99 0.5t-48 0.5t-16.5 0.5t-12.5 0.5 q-38 0 -57 -7t-21 -29q-7 -62 -26 -184l-33 -216q-15 -94 -15 -108q0 -49 49 -62t209 -13q120 0 215.5 15t149.5 37.5t94 48.5t58 48.5t33.5 37.5t26.5 15q21 0 21 -27q0 -34 -39.5 -99t-97.5 -119.5t-102 -54.5q-148 0 -367.5 11t-264.5 11q-57 0 -119 -3t-111 -3 q-33 0 -50 5.5t-19.5 10.5t-2.5 13q0 10 12 19t34 10q58 4 83 43q30 47 58 223l30 198q-14 12 -43 12q-10 0 -84 -1t-147 -1q-146 0 -192.5 2.5t-61.5 2.5q-51 0 -73 -30q-77 -100 -137 -187.5t-83.5 -127t-24.5 -46.5q-3 -15 -3 -27q0 -26 16.5 -39.5t36.5 -16t36.5 -8.5 t16.5 -19q0 -22 -11 -29t-41 -7q-11 0 -65 2t-94 2q-34 0 -145 -4q-33 0 -33 19zM674 638q0 -16 57 -16q7 0 53.5 0.5t151 1t251.5 0.5l57 488l12 92l9 78q3 25 3 41q0 21 -6 29.5t-21 8.5q-24 0 -66 -53l-197 -257l-212 -285q-92 -124 -92 -128z" />
<glyph unicode="&#xc7;" horiz-adv-x="1560" d="M682 -162q0 1 18.5 17.5t43 33t36.5 16.5q4 0 14 -3.5t25.5 -13t29 -22.5t23 -35t9.5 -47q0 -47 -21.5 -86t-51 -60.5t-54.5 -33t-37 -11.5t-12 8q0 5 20.5 17t41.5 37t21 61q0 31 -16.5 52.5t-36.5 30t-36.5 18.5t-16.5 21zM80 638q0 121 30 237t94.5 221.5t156 184.5 t224.5 126t291 47q79 0 157.5 -16t135 -39t101.5 -46t72 -39t31 -16q7 0 21 16.5t23 16.5q8 0 12.5 -1.5t8.5 -9.5t4 -22q0 -89 3 -149.5t6 -82.5t6 -40.5t3 -32.5q0 -49 -28 -49q-9 0 -16.5 7.5t-15 22.5t-12.5 30l-15 40q-9 25 -16 42q-25 63 -52 96t-77 67 q-188 127 -385 127q-140 0 -254.5 -59.5t-186 -158t-110 -220.5t-38.5 -253q0 -122 30.5 -228t83.5 -183.5t124 -133t153.5 -83.5t170.5 -28q119 0 234 53t208 157q24 27 44.5 71t35 70t33.5 26q5 0 11 -2t13.5 -11t7.5 -25q0 -15 -5 -34.5t-15.5 -50.5t-13.5 -42 q-7 -24 -13 -51t-8.5 -40t-9 -24.5t-17.5 -17.5q-141 -74 -270.5 -115t-276.5 -41q-139 0 -255 37.5t-196 102t-135.5 152.5t-81.5 187t-26 207z" />
<glyph unicode="&#xc8;" horiz-adv-x="1293" d="M604 1839q0 25 42 38.5t64 13.5q23 0 34 -36q33 -107 64 -179.5t44 -96t13 -31.5q0 -9 -6.5 -14.5t-15.5 -5.5q-14 0 -73 66t-112.5 143t-53.5 102zM40 29q0 10 12 19t34 10q65 4 91 56q20 40 43 180q6 36 7 40q38 244 42 273l73 620q3 29 3 42q0 39 -11.5 64t-29 35 t-38 15.5t-38 7t-29 8.5t-11.5 21q0 16 10 22.5t37 6.5q18 0 85 -1t182.5 -2t251.5 -1q44 0 244.5 4.5t228.5 4.5q36 0 36 -39q0 -11 -3.5 -46t-3.5 -62q0 -15 3 -51.5t3 -59.5q0 -20 -8 -39t-19 -19q-19 0 -25 14.5t-5.5 35t-8.5 51.5t-30 56q-8 10 -29 22.5t-72.5 26.5 t-114.5 15q-76 1 -165 3.5t-151 2.5q-85 0 -107 -18q-20 -16 -31 -79q-2 -8 -7 -41q-7 -48 -28.5 -223t-21.5 -193q0 -20 13.5 -24.5t74.5 -4.5q187 0 268 4.5t105.5 13.5t43.5 32q16 20 28 42t16 34.5t10 21t15 8.5q25 0 25 -23q0 -19 -17.5 -96.5t-22.5 -116.5 q-3 -21 -4 -79.5t-8 -91t-26 -32.5q-21 0 -21 34q0 97 -36 123q-60 43 -218 43q-61 0 -99 0.5t-48 0.5t-16.5 0.5t-12.5 0.5q-37 0 -56.5 -7t-21.5 -29q-7 -62 -25 -183l-34 -216q-15 -95 -15 -109q0 -49 49 -62t209 -13q120 0 215.5 15t149.5 37.5t94 48.5t58 48.5 t33.5 37.5t26.5 15q21 0 21 -27q0 -34 -39.5 -99t-97.5 -119.5t-102 -54.5q-148 0 -367.5 11t-264.5 11q-58 0 -120 -3t-110 -3q-33 0 -50 5.5t-19.5 10.5t-2.5 13z" />
<glyph unicode="&#xc9;" horiz-adv-x="1293" d="M718 1544q0 9 15 28t63.5 93.5t108.5 189.5q19 36 41 36t59.5 -13t37.5 -34q0 -22 -70.5 -100.5t-146 -147t-90.5 -68.5q-18 0 -18 16zM40 29q0 10 12 19t34 10q65 4 91 56q20 40 43 180q6 36 7 40q38 244 42 273l73 620q3 29 3 42q0 39 -11.5 64t-29 35t-38 15.5t-38 7 t-29 8.5t-11.5 21q0 16 10 22.5t37 6.5q18 0 85 -1t182.5 -2t251.5 -1q44 0 244.5 4.5t228.5 4.5q36 0 36 -39q0 -11 -3.5 -46t-3.5 -62q0 -15 3 -51.5t3 -59.5q0 -20 -8 -39t-19 -19q-19 0 -25 14.5t-5.5 35t-8.5 51.5t-30 56q-8 10 -29 22.5t-72.5 26.5t-114.5 15 q-76 1 -165 3.5t-151 2.5q-85 0 -107 -18q-20 -16 -31 -79q-2 -8 -7 -41q-7 -48 -28.5 -223t-21.5 -193q0 -20 13.5 -24.5t74.5 -4.5q187 0 268 4.5t105.5 13.5t43.5 32q16 20 28 42t16 34.5t10 21t15 8.5q25 0 25 -23q0 -19 -17.5 -96.5t-22.5 -116.5q-3 -21 -4 -79.5 t-8 -91t-26 -32.5q-21 0 -21 34q0 97 -36 123q-60 43 -218 43q-61 0 -99 0.5t-48 0.5t-16.5 0.5t-12.5 0.5q-37 0 -56.5 -7t-21.5 -29q-7 -62 -25 -183l-34 -216q-15 -95 -15 -109q0 -49 49 -62t209 -13q120 0 215.5 15t149.5 37.5t94 48.5t58 48.5t33.5 37.5t26.5 15 q21 0 21 -27q0 -34 -39.5 -99t-97.5 -119.5t-102 -54.5q-148 0 -367.5 11t-264.5 11q-58 0 -120 -3t-110 -3q-33 0 -50 5.5t-19.5 10.5t-2.5 13z" />
<glyph unicode="&#xca;" horiz-adv-x="1293" d="M569 1561q0 3 9 16l75 97l52 72l34 51l22 34q7 11 13 19t10 10t11 2h52q20 0 29 -20q29 -62 67 -130l58 -104q20 -37 20 -45q0 -11 -16 -11t-101 87t-93 87q-16 -1 -116.5 -86.5t-111.5 -85.5q-14 0 -14 7zM40 29q0 10 12 19t34 10q65 4 91 56q20 40 43 180q6 36 7 40 q38 244 42 273l73 620q3 29 3 42q0 39 -11.5 64t-29 35t-38 15.5t-38 7t-29 8.5t-11.5 21q0 16 10 22.5t37 6.5q18 0 85 -1t182.5 -2t251.5 -1q44 0 244.5 4.5t228.5 4.5q36 0 36 -39q0 -11 -3.5 -46t-3.5 -62q0 -15 3 -51.5t3 -59.5q0 -20 -8 -39t-19 -19q-19 0 -25 14.5 t-5.5 35t-8.5 51.5t-30 56q-8 10 -29 22.5t-72.5 26.5t-114.5 15q-76 1 -165 3.5t-151 2.5q-85 0 -107 -18q-20 -16 -31 -79q-2 -8 -7 -41q-7 -48 -28.5 -223t-21.5 -193q0 -20 13.5 -24.5t74.5 -4.5q187 0 268 4.5t105.5 13.5t43.5 32q16 20 28 42t16 34.5t10 21t15 8.5 q25 0 25 -23q0 -19 -17.5 -96.5t-22.5 -116.5q-3 -21 -4 -79.5t-8 -91t-26 -32.5q-21 0 -21 34q0 97 -36 123q-60 43 -218 43q-61 0 -99 0.5t-48 0.5t-16.5 0.5t-12.5 0.5q-37 0 -56.5 -7t-21.5 -29q-7 -62 -25 -183l-34 -216q-15 -95 -15 -109q0 -49 49 -62t209 -13 q120 0 215.5 15t149.5 37.5t94 48.5t58 48.5t33.5 37.5t26.5 15q21 0 21 -27q0 -34 -39.5 -99t-97.5 -119.5t-102 -54.5q-148 0 -367.5 11t-264.5 11q-58 0 -120 -3t-110 -3q-33 0 -50 5.5t-19.5 10.5t-2.5 13z" />
<glyph unicode="&#xcb;" horiz-adv-x="1293" d="M585 1746q0 25 36.5 64.5t66.5 39.5t56 -32t26 -63t-39 -70t-56 -39q-37 0 -63.5 35t-26.5 65zM902 1746q0 25 36.5 64.5t66.5 39.5t56 -32t26 -63t-39 -70t-56 -39q-37 0 -63.5 35t-26.5 65zM40 29q0 10 12 19t34 10q65 4 91 56q20 40 43 180q6 36 7 40q38 244 42 273 l73 620q3 29 3 42q0 39 -11.5 64t-29 35t-38 15.5t-38 7t-29 8.5t-11.5 21q0 16 10 22.5t37 6.5q18 0 85 -1t182.5 -2t251.5 -1q44 0 244.5 4.5t228.5 4.5q36 0 36 -39q0 -11 -3.5 -46t-3.5 -62q0 -15 3 -51.5t3 -59.5q0 -20 -8 -39t-19 -19q-19 0 -25 14.5t-5.5 35 t-8.5 51.5t-30 56q-8 10 -29 22.5t-72.5 26.5t-114.5 15q-76 1 -165 3.5t-151 2.5q-85 0 -107 -18q-20 -16 -31 -79q-2 -8 -7 -41q-7 -48 -28.5 -223t-21.5 -193q0 -20 13.5 -24.5t74.5 -4.5q187 0 268 4.5t105.5 13.5t43.5 32q16 20 28 42t16 34.5t10 21t15 8.5 q25 0 25 -23q0 -19 -17.5 -96.5t-22.5 -116.5q-3 -21 -4 -79.5t-8 -91t-26 -32.5q-21 0 -21 34q0 97 -36 123q-60 43 -218 43q-61 0 -99 0.5t-48 0.5t-16.5 0.5t-12.5 0.5q-37 0 -56.5 -7t-21.5 -29q-7 -62 -25 -183l-34 -216q-15 -95 -15 -109q0 -49 49 -62t209 -13 q120 0 215.5 15t149.5 37.5t94 48.5t58 48.5t33.5 37.5t26.5 15q21 0 21 -27q0 -34 -39.5 -99t-97.5 -119.5t-102 -54.5q-148 0 -367.5 11t-264.5 11q-58 0 -120 -3t-110 -3q-33 0 -50 5.5t-19.5 10.5t-2.5 13z" />
<glyph unicode="&#xcc;" horiz-adv-x="666" d="M212 1839q0 25 42 38.5t64 13.5q23 0 34 -36q33 -107 64 -179.5t44 -96t13 -31.5q0 -9 -6.5 -14.5t-15.5 -5.5q-14 0 -73 66t-112.5 143t-53.5 102zM40 23q0 16 16 22t37 8t46.5 25t41.5 69q1 2 71.5 558t70.5 562q0 41 -24 67t-52 33t-61 12t-39 8q-15 6 -15 24 q0 30 55 30q22 0 83.5 -8t126.5 -8q51 0 115 6.5t78 6.5q36 0 36 -30q0 -13 -19.5 -19t-46.5 -12.5t-40 -21.5q-40 -46 -60 -238q-24 -231 -54 -448.5t-46.5 -326.5t-16.5 -139q0 -39 5.5 -66.5t12.5 -42.5t21 -24.5t23 -12t27.5 -6t26.5 -5.5t18.5 -3.5t17.5 -3t13.5 -3.5 t9.5 -6t3 -11q0 -14 -6 -21t-13 -8t-24 -1q-7 0 -82 6.5t-125 6.5q-31 0 -85.5 -6.5t-73.5 -6.5q-72 0 -72 34z" />
<glyph unicode="&#xcd;" horiz-adv-x="666" d="M326 1544q0 9 15 28t63.5 93.5t108.5 189.5q19 36 41 36t59.5 -13t37.5 -34q0 -22 -70.5 -100.5t-146 -147t-90.5 -68.5q-18 0 -18 16zM40 23q0 16 16 22t37 8t46.5 25t41.5 69q1 2 71.5 558t70.5 562q0 41 -24 67t-52 33t-61 12t-39 8q-15 6 -15 24q0 30 55 30 q22 0 83.5 -8t126.5 -8q51 0 115 6.5t78 6.5q36 0 36 -30q0 -13 -19.5 -19t-46.5 -12.5t-40 -21.5q-40 -46 -60 -238q-24 -231 -54 -448.5t-46.5 -326.5t-16.5 -139q0 -39 5.5 -66.5t12.5 -42.5t21 -24.5t23 -12t27.5 -6t26.5 -5.5t18.5 -3.5t17.5 -3t13.5 -3.5t9.5 -6 t3 -11q0 -14 -6 -21t-13 -8t-24 -1q-7 0 -82 6.5t-125 6.5q-31 0 -85.5 -6.5t-73.5 -6.5q-72 0 -72 34z" />
<glyph unicode="&#xce;" horiz-adv-x="666" d="M177 1561q0 3 9 16l75 97l52 72l34 51l22 34q7 11 13 19t10 10t11 2h52q20 0 29 -20q29 -62 67 -130l58 -104q20 -37 20 -45q0 -11 -16 -11t-101 87t-93 87q-16 -1 -116.5 -86.5t-111.5 -85.5q-14 0 -14 7zM40 23q0 16 16 22t37 8t46.5 25t41.5 69q1 2 71.5 558t70.5 562 q0 41 -24 67t-52 33t-61 12t-39 8q-15 6 -15 24q0 30 55 30q22 0 83.5 -8t126.5 -8q51 0 115 6.5t78 6.5q36 0 36 -30q0 -13 -19.5 -19t-46.5 -12.5t-40 -21.5q-40 -46 -60 -238q-24 -231 -54 -448.5t-46.5 -326.5t-16.5 -139q0 -39 5.5 -66.5t12.5 -42.5t21 -24.5t23 -12 t27.5 -6t26.5 -5.5t18.5 -3.5t17.5 -3t13.5 -3.5t9.5 -6t3 -11q0 -14 -6 -21t-13 -8t-24 -1q-7 0 -82 6.5t-125 6.5q-31 0 -85.5 -6.5t-73.5 -6.5q-72 0 -72 34z" />
<glyph unicode="&#xcf;" horiz-adv-x="666" d="M193 1746q0 25 36.5 64.5t66.5 39.5t56 -32t26 -63t-39 -70t-56 -39q-37 0 -63.5 35t-26.5 65zM510 1746q0 25 36.5 64.5t66.5 39.5t56 -32t26 -63t-39 -70t-56 -39q-37 0 -63.5 35t-26.5 65zM40 23q0 16 16 22t37 8t46.5 25t41.5 69q1 2 71.5 558t70.5 562q0 41 -24 67 t-52 33t-61 12t-39 8q-15 6 -15 24q0 30 55 30q22 0 83.5 -8t126.5 -8q51 0 115 6.5t78 6.5q36 0 36 -30q0 -13 -19.5 -19t-46.5 -12.5t-40 -21.5q-40 -46 -60 -238q-24 -231 -54 -448.5t-46.5 -326.5t-16.5 -139q0 -39 5.5 -66.5t12.5 -42.5t21 -24.5t23 -12t27.5 -6 t26.5 -5.5t18.5 -3.5t17.5 -3t13.5 -3.5t9.5 -6t3 -11q0 -14 -6 -21t-13 -8t-24 -1q-7 0 -82 6.5t-125 6.5q-31 0 -85.5 -6.5t-73.5 -6.5q-72 0 -72 34z" />
<glyph unicode="&#xd0;" horiz-adv-x="1571" d="M40 27q0 17 16.5 24.5t38.5 10t47 24.5t39 64q8 25 26.5 153t33.5 243l15 116q0 19 -7 23t-25 4h-103q-14 0 -20.5 14t-6.5 30q0 18 7.5 31.5t15.5 13.5q16 0 69.5 -1.5t67.5 -1.5t17 5t6 30q2 13 3 22l58 429q4 34 4 37q0 31 -29 57t-63 28q-95 8 -95 44q0 15 14.5 26.5 t49.5 11.5q34 0 95.5 -12t112.5 -12q50 0 141.5 10.5t177.5 10.5q201 0 350.5 -46.5t236 -128t127.5 -182t41 -220.5q0 -126 -42.5 -256.5t-117.5 -247.5q-46 -71 -131 -151.5t-137 -112.5q-193 -117 -463 -117q-53 0 -137 3t-181 3q-72 0 -134 -8.5t-72 -8.5 q-19 0 -32.5 12t-13.5 26zM353 146q0 -39 20 -58t77 -19h180q89 0 211.5 43.5t206.5 119.5q67 61 118 141t77.5 151t43 147.5t21 124t4.5 87.5q0 65 -14.5 128t-55 131t-103.5 118.5t-170.5 83.5t-245.5 33q-56 0 -82.5 -1.5t-55 -6.5t-41 -18t-24 -33t-20.5 -55 q-10 -36 -55 -377l-6 -52q-6 -44 -6 -45q0 -9 5 -11.5t21 -2.5q38 0 183.5 2.5t158.5 2.5q11 0 17.5 -14t6.5 -33q0 -42 -17 -42q-13 0 -80.5 -1t-125.5 -1h-152q-22 0 -27 -5.5t-8 -31.5l-4 -32q-58 -462 -58 -474z" />
<glyph unicode="&#xd1;" horiz-adv-x="1647" d="M582 1635q0 18 36.5 66.5t90 92t91.5 43.5q32 0 65.5 -15.5t57 -33.5t57.5 -33.5t67 -15.5q25 0 47.5 18t36 39t27.5 39t24 18q18 0 18 -24q0 -36 -80 -117t-136 -81q-42 0 -85 25l-84 48q-41 25 -78 25q-26 0 -49 -18t-37 -40t-28.5 -40t-24.5 -18q-16 0 -16 22zM40 13 q0 14 12.5 19.5t35 12.5t38.5 21q15 13 26.5 29t20.5 31.5t17 44.5t13.5 51.5t13.5 69t13 80.5l16 104l18 122q3 16 21.5 129.5t27 170t18 140t9.5 132.5q0 27 -4.5 49t-8 35t-17.5 30.5t-18 22t-26 23.5t-26 23q-25 23 -72 26t-79 6.5t-32 29.5q0 39 137 39q13 0 42.5 -3 t43.5 -3q4 0 28 0.5t33 0.5t16 -1t12.5 -1.5t11 -5t9 -7t10.5 -11.5l11 -15l15 -20l17 -24q484 -670 714 -1037q29 -46 36.5 -56t16.5 -10q27 0 67 251.5t66.5 490.5t26.5 259q0 48 -17 76.5t-41 38.5t-48.5 15t-41.5 15t-17 31t50 21q9 0 66.5 -5t89.5 -5q49 0 89.5 5 t53.5 5q31 0 42 -6.5t11 -23.5q0 -5 -3.5 -9.5t-10.5 -7.5t-13.5 -5t-17 -4.5t-16.5 -4.5q-55 -17 -79.5 -88.5t-40.5 -208.5q-81 -682 -161 -1057q-13 -57 -42 -57q-21 0 -53 48l-134 213q-102 166 -227 346l-126 180l-93 130l-58 82l-38 56.5t-18 31.5q-12 24 -34 24 q-29 0 -39 -96q-24 -225 -66.5 -489t-42.5 -351q0 -48 26 -74.5t56.5 -31.5t56.5 -14.5t26 -27.5q0 -24 -36 -24q-11 0 -53.5 3t-150.5 3q-42 0 -84 -3.5t-49 -3.5q-46 0 -46 24z" />
<glyph unicode="&#xd2;" horiz-adv-x="1669" d="M706 1839q0 25 42 38.5t64 13.5q23 0 34 -36q33 -107 64 -179.5t44 -96t13 -31.5q0 -9 -6.5 -14.5t-15.5 -5.5q-14 0 -73 66t-112.5 143t-53.5 102zM80 644q0 121 33.5 239t102 223.5t163.5 186t226.5 127.5t282.5 47q141 0 258 -38.5t198 -104t137 -155t82 -190 t26 -209.5q0 -96 -21.5 -191t-62.5 -186t-107.5 -169t-151 -137.5t-197.5 -93t-243 -33.5q-329 0 -527.5 188t-198.5 496zM257 710q0 -161 48 -292.5t128 -214t180 -126.5t208 -44q109 0 204.5 43t165 116t119.5 168.5t75 202.5t25 216q0 177 -44 289q-60 153 -189 245 t-316 92q-117 0 -218 -44t-170.5 -116t-119 -163.5t-73 -186.5t-23.5 -185z" />
<glyph unicode="&#xd3;" horiz-adv-x="1669" d="M820 1544q0 9 15 28t63.5 93.5t108.5 189.5q19 36 41 36t59.5 -13t37.5 -34q0 -22 -70.5 -100.5t-146 -147t-90.5 -68.5q-18 0 -18 16zM80 644q0 121 33.5 239t102 223.5t163.5 186t226.5 127.5t282.5 47q141 0 258 -38.5t198 -104t137 -155t82 -190t26 -209.5 q0 -96 -21.5 -191t-62.5 -186t-107.5 -169t-151 -137.5t-197.5 -93t-243 -33.5q-329 0 -527.5 188t-198.5 496zM257 710q0 -161 48 -292.5t128 -214t180 -126.5t208 -44q109 0 204.5 43t165 116t119.5 168.5t75 202.5t25 216q0 177 -44 289q-60 153 -189 245t-316 92 q-117 0 -218 -44t-170.5 -116t-119 -163.5t-73 -186.5t-23.5 -185z" />
<glyph unicode="&#xd4;" horiz-adv-x="1669" d="M671 1561q0 3 9 16l75 97l52 72l34 51l22 34q7 11 13 19t10 10t11 2h52q20 0 29 -20q29 -62 67 -130l58 -104q20 -37 20 -45q0 -11 -16 -11t-101 87t-93 87q-16 -1 -116.5 -86.5t-111.5 -85.5q-14 0 -14 7zM80 644q0 121 33.5 239t102 223.5t163.5 186t226.5 127.5 t282.5 47q141 0 258 -38.5t198 -104t137 -155t82 -190t26 -209.5q0 -96 -21.5 -191t-62.5 -186t-107.5 -169t-151 -137.5t-197.5 -93t-243 -33.5q-329 0 -527.5 188t-198.5 496zM257 710q0 -161 48 -292.5t128 -214t180 -126.5t208 -44q109 0 204.5 43t165 116t119.5 168.5 t75 202.5t25 216q0 177 -44 289q-60 153 -189 245t-316 92q-117 0 -218 -44t-170.5 -116t-119 -163.5t-73 -186.5t-23.5 -185z" />
<glyph unicode="&#xd5;" horiz-adv-x="1669" d="M604 1635q0 18 36.5 66.5t90 92t91.5 43.5q32 0 65.5 -15.5t57 -33.5t57.5 -33.5t67 -15.5q25 0 47.5 18t36 39t27.5 39t24 18q18 0 18 -24q0 -36 -80 -117t-136 -81q-42 0 -85 25l-84 48q-41 25 -78 25q-26 0 -49 -18t-37 -40t-28.5 -40t-24.5 -18q-16 0 -16 22zM80 644 q0 121 33.5 239t102 223.5t163.5 186t226.5 127.5t282.5 47q141 0 258 -38.5t198 -104t137 -155t82 -190t26 -209.5q0 -96 -21.5 -191t-62.5 -186t-107.5 -169t-151 -137.5t-197.5 -93t-243 -33.5q-329 0 -527.5 188t-198.5 496zM257 710q0 -161 48 -292.5t128 -214 t180 -126.5t208 -44q109 0 204.5 43t165 116t119.5 168.5t75 202.5t25 216q0 177 -44 289q-60 153 -189 245t-316 92q-117 0 -218 -44t-170.5 -116t-119 -163.5t-73 -186.5t-23.5 -185z" />
<glyph unicode="&#xd6;" horiz-adv-x="1669" d="M687 1746q0 25 36.5 64.5t66.5 39.5t56 -32t26 -63t-39 -70t-56 -39q-37 0 -63.5 35t-26.5 65zM1004 1746q0 25 36.5 64.5t66.5 39.5t56 -32t26 -63t-39 -70t-56 -39q-37 0 -63.5 35t-26.5 65zM80 644q0 121 33.5 239t102 223.5t163.5 186t226.5 127.5t282.5 47 q141 0 258 -38.5t198 -104t137 -155t82 -190t26 -209.5q0 -96 -21.5 -191t-62.5 -186t-107.5 -169t-151 -137.5t-197.5 -93t-243 -33.5q-329 0 -527.5 188t-198.5 496zM257 710q0 -161 48 -292.5t128 -214t180 -126.5t208 -44q109 0 204.5 43t165 116t119.5 168.5t75 202.5 t25 216q0 177 -44 289q-60 153 -189 245t-316 92q-117 0 -218 -44t-170.5 -116t-119 -163.5t-73 -186.5t-23.5 -185z" />
<glyph unicode="&#xd7;" d="M161 734q0 11 21 31.5t35 20.5q13 0 29 -16l237 -236q25 -25 40 -25q12 0 23 11l256 256q13 13 23 13q11 0 32 -20.5t21 -32.5t-19 -31l-249 -249q-15 -15 -15 -26q0 -9 16 -25l254 -253q13 -13 13 -26q0 -12 -21.5 -33.5t-32.5 -21.5q-10 0 -26 16l-252 252 q-15 15 -27 15q-11 0 -34 -23l-244 -244q-15 -15 -26 -15t-32 20.5t-21 32.5q0 11 16 27l246 247q18 18 18 32q0 12 -14 26l-254 254q-13 13 -13 23z" />
<glyph unicode="&#xd8;" horiz-adv-x="1669" d="M80 644q0 121 33.5 239t102 223.5t163.5 186t226.5 127.5t282.5 47q50 0 96.5 -4.5t77 -11.5t53.5 -13.5t36.5 -11t15.5 -4.5q5 0 15 18l9 16l73 127q17 30 38 30q12 0 33 -12t21 -29q0 -6 -5 -16l-77 -134l-8 -14q-4 -7 -6.5 -10t-4 -6t-1.5 -5q0 -1 18.5 -12t48 -33.5 t65.5 -55t71.5 -83t65 -110.5t48 -144.5t18.5 -178.5q0 -96 -21.5 -191t-62.5 -186t-107.5 -169t-151 -137.5t-197.5 -93t-243 -33.5q-60 0 -115.5 6.5t-92.5 15.5t-65 18t-43.5 15.5t-17.5 6.5t-4 -1.5t-4.5 -5.5l-5.5 -9l-8 -14l-10 -19l-98 -169q-18 -31 -32 -31 q-17 0 -38 14t-21 27q0 11 8 24l103 177l10 15q4 8 7 12l5 9q3 4 4 6.5t1 3.5q0 2 -17 13.5t-44.5 33t-60.5 52t-65.5 77.5t-60 103.5t-44.5 135.5t-17 168zM257 710q0 -101 20 -192.5t48.5 -150t58.5 -102.5t49.5 -63t22.5 -19q6 0 34 51l613 1068q22 39 22 40q0 7 -36 22 t-101 28t-127 13q-117 0 -218 -44t-170.5 -116t-119 -163.5t-73 -186.5t-23.5 -185zM529 127q0 -9 39 -31t111 -42.5t142 -20.5q109 0 204.5 43t165 116t119.5 168.5t75 202.5t25 216q0 152 -37 268.5t-128 208.5q-36 36 -43 36q-4 0 -17 -24q-656 -1139 -656 -1141z" />
<glyph unicode="&#xd9;" horiz-adv-x="1693" d="M742 1839q0 25 42 38.5t64 13.5q23 0 34 -36q33 -107 64 -179.5t44 -96t13 -31.5q0 -9 -6.5 -14.5t-15.5 -5.5q-14 0 -73 66t-112.5 143t-53.5 102zM90 1421q0 12 8.5 21t26.5 9q1 0 72.5 -6.5t161.5 -6.5q17 0 76.5 6t107.5 6q40 0 40 -29q0 -16 -13.5 -23.5t-33.5 -12 t-41 -13.5t-37.5 -35t-20.5 -69q-10 -106 -34 -303.5t-37.5 -337.5t-13.5 -234q0 -40 7.5 -80t32.5 -89t65 -86t113 -62t169 -25q401 0 531 325q46 115 97.5 449t51.5 439q0 50 -28 76.5t-61 31.5t-61 15.5t-28 30.5q0 26 50 26q11 0 50.5 -4.5t60.5 -4.5q49 0 124.5 4.5 t88.5 4.5q15 0 26.5 -8t11.5 -18q0 -13 -16 -20.5t-36.5 -13t-43.5 -28.5t-35 -63q-4 -13 -30 -211t-66 -423.5t-81 -322.5q-45 -109 -109 -171.5t-182 -134.5q-48 -29 -147.5 -48.5t-161.5 -19.5q-178 0 -281.5 34t-174.5 106q-61 62 -79 134t-18 204q0 29 38.5 422 t38.5 421q0 49 -28 73t-61.5 26t-61.5 10t-28 29z" />
<glyph unicode="&#xda;" horiz-adv-x="1693" d="M856 1544q0 9 15 28t63.5 93.5t108.5 189.5q19 36 41 36t59.5 -13t37.5 -34q0 -22 -70.5 -100.5t-146 -147t-90.5 -68.5q-18 0 -18 16zM90 1421q0 12 8.5 21t26.5 9q1 0 72.5 -6.5t161.5 -6.5q17 0 76.5 6t107.5 6q40 0 40 -29q0 -16 -13.5 -23.5t-33.5 -12t-41 -13.5 t-37.5 -35t-20.5 -69q-10 -106 -34 -303.5t-37.5 -337.5t-13.5 -234q0 -40 7.5 -80t32.5 -89t65 -86t113 -62t169 -25q401 0 531 325q46 115 97.5 449t51.5 439q0 50 -28 76.5t-61 31.5t-61 15.5t-28 30.5q0 26 50 26q11 0 50.5 -4.5t60.5 -4.5q49 0 124.5 4.5t88.5 4.5 q15 0 26.5 -8t11.5 -18q0 -13 -16 -20.5t-36.5 -13t-43.5 -28.5t-35 -63q-4 -13 -30 -211t-66 -423.5t-81 -322.5q-45 -109 -109 -171.5t-182 -134.5q-48 -29 -147.5 -48.5t-161.5 -19.5q-178 0 -281.5 34t-174.5 106q-61 62 -79 134t-18 204q0 29 38.5 422t38.5 421 q0 49 -28 73t-61.5 26t-61.5 10t-28 29z" />
<glyph unicode="&#xdb;" horiz-adv-x="1693" d="M707 1561q0 3 9 16l75 97l52 72l34 51l22 34q7 11 13 19t10 10t11 2h52q20 0 29 -20q29 -62 67 -130l58 -104q20 -37 20 -45q0 -11 -16 -11t-101 87t-93 87q-16 -1 -116.5 -86.5t-111.5 -85.5q-14 0 -14 7zM90 1421q0 12 8.5 21t26.5 9q1 0 72.5 -6.5t161.5 -6.5 q17 0 76.5 6t107.5 6q40 0 40 -29q0 -16 -13.5 -23.5t-33.5 -12t-41 -13.5t-37.5 -35t-20.5 -69q-10 -106 -34 -303.5t-37.5 -337.5t-13.5 -234q0 -40 7.5 -80t32.5 -89t65 -86t113 -62t169 -25q401 0 531 325q46 115 97.5 449t51.5 439q0 50 -28 76.5t-61 31.5t-61 15.5 t-28 30.5q0 26 50 26q11 0 50.5 -4.5t60.5 -4.5q49 0 124.5 4.5t88.5 4.5q15 0 26.5 -8t11.5 -18q0 -13 -16 -20.5t-36.5 -13t-43.5 -28.5t-35 -63q-4 -13 -30 -211t-66 -423.5t-81 -322.5q-45 -109 -109 -171.5t-182 -134.5q-48 -29 -147.5 -48.5t-161.5 -19.5 q-178 0 -281.5 34t-174.5 106q-61 62 -79 134t-18 204q0 29 38.5 422t38.5 421q0 49 -28 73t-61.5 26t-61.5 10t-28 29z" />
<glyph unicode="&#xdc;" horiz-adv-x="1693" d="M723 1746q0 25 36.5 64.5t66.5 39.5t56 -32t26 -63t-39 -70t-56 -39q-37 0 -63.5 35t-26.5 65zM1040 1746q0 25 36.5 64.5t66.5 39.5t56 -32t26 -63t-39 -70t-56 -39q-37 0 -63.5 35t-26.5 65zM90 1421q0 12 8.5 21t26.5 9q1 0 72.5 -6.5t161.5 -6.5q17 0 76.5 6t107.5 6 q40 0 40 -29q0 -16 -13.5 -23.5t-33.5 -12t-41 -13.5t-37.5 -35t-20.5 -69q-10 -106 -34 -303.5t-37.5 -337.5t-13.5 -234q0 -40 7.5 -80t32.5 -89t65 -86t113 -62t169 -25q401 0 531 325q46 115 97.5 449t51.5 439q0 50 -28 76.5t-61 31.5t-61 15.5t-28 30.5q0 26 50 26 q11 0 50.5 -4.5t60.5 -4.5q49 0 124.5 4.5t88.5 4.5q15 0 26.5 -8t11.5 -18q0 -13 -16 -20.5t-36.5 -13t-43.5 -28.5t-35 -63q-4 -13 -30 -211t-66 -423.5t-81 -322.5q-45 -109 -109 -171.5t-182 -134.5q-48 -29 -147.5 -48.5t-161.5 -19.5q-178 0 -281.5 34t-174.5 106 q-61 62 -79 134t-18 204q0 29 38.5 422t38.5 421q0 49 -28 73t-61.5 26t-61.5 10t-28 29z" />
<glyph unicode="&#xdd;" horiz-adv-x="1414" d="M683 1544q0 9 15 28t63.5 93.5t108.5 189.5q19 36 41 36t59.5 -13t37.5 -34q0 -22 -70.5 -100.5t-146 -147t-90.5 -68.5q-18 0 -18 16zM40 1434q0 28 68 28q12 0 93 -4t99 -4q25 0 96 4t86 4q61 0 61 -30q0 -14 -16 -23.5t-35.5 -15t-35.5 -17.5t-16 -30 q0 -41 29.5 -112.5t60.5 -127.5q32 -60 77 -156l73 -156q27 -58 33 -58q5 0 99 127.5t188 278t94 198.5q0 29 -22.5 41t-50 11t-50 7.5t-22.5 30.5q0 17 12 23t41 6q10 0 50.5 -2.5t57.5 -2.5q48 0 110.5 3t99.5 3q24 0 37 -5.5t15 -11t2 -14.5q0 -13 -22 -23l-56 -24 q-33 -14 -52 -33q-47 -50 -224 -307t-210 -294q-42 -47 -59.5 -90.5t-28.5 -149.5q-32 -313 -32 -347q0 -42 46 -80q22 -17 50.5 -26t49 -10t35 -7.5t14.5 -21.5q0 -9 -2 -14.5t-11 -9.5t-27 -4q-10 0 -102 7t-128 7q-53 0 -103 -8t-69 -8q-55 0 -55 26q0 13 7.5 21 t15.5 10.5t26 6t27 6.5q29 9 41.5 36t20.5 90q55 377 55 436q0 13 -2.5 26t-12 36.5t-20.5 45.5l-34 68l-47 90l-65 124l-83 159q-62 120 -101.5 166.5t-77.5 58.5q-6 2 -34.5 3t-46 9.5t-17.5 29.5z" />
<glyph unicode="&#xde;" horiz-adv-x="1133" d="M40 23q0 16 16 22t37 8t46.5 25t41.5 69q1 2 71.5 558t70.5 562q0 41 -24 67t-52 33t-61 12t-39 8q-15 6 -15 24q0 30 55 30q22 0 83.5 -8t126.5 -8q51 0 115 6.5t78 6.5q36 0 36 -30q0 -13 -19.5 -19t-46.5 -12.5t-40 -21.5q-29 -34 -45.5 -129t-16.5 -130 q0 -10 3.5 -13t15.5 -3q24 0 96.5 7t103.5 7q172 0 274 -86.5t102 -253.5q0 -130 -70 -248t-191 -169q-80 -34 -217 -34q-57 0 -98.5 10t-41.5 24q0 4 6 4q2 0 15 -1l38 -1q26 -1 59 -1q52 0 109.5 26.5t109.5 74t85.5 125t33.5 168.5q0 52 -13 93.5t-38.5 71t-45 45.5 t-49.5 35q-78 49 -189 49h-46q-15 0 -29.5 -6.5t-19.5 -9.5t-11 -22t-7.5 -29.5t-5.5 -46.5l-22 -176l-35 -252q-20 -132 -28.5 -194t-8.5 -87q0 -39 5.5 -66.5t12.5 -42.5t21 -24.5t23 -12t27.5 -6t26.5 -5.5t18.5 -3.5t17.5 -3t13.5 -3.5t9.5 -6t3 -11q0 -14 -6 -21 t-13 -8t-24 -1q-7 0 -82 6.5t-125 6.5q-31 0 -85.5 -6.5t-73.5 -6.5q-72 0 -72 34z" />
<glyph unicode="&#xdf;" horiz-adv-x="1042" d="M-89 -339q0 27 17.5 83t43.5 56q21 0 25 -28q5 -32 27.5 -53t34.5 -21q13 0 23 10t17.5 34.5t13 53.5t12.5 80.5t13 101.5l16 129l20 153l34 253l30 217q9 60 26 163.5t29.5 147.5t34 109.5t46 110t58.5 92.5q53 75 124 119t135 44q24 0 52.5 -6t64.5 -22.5t64.5 -41.5 t48 -68t19.5 -98q0 -69 -31.5 -132.5t-76.5 -110.5l-88 -91q-45 -43 -76.5 -88.5t-31.5 -88.5q0 -42 37.5 -99t127.5 -155q4 -4 27 -29t30 -34l24 -31q19 -23 26 -39l16 -40q11 -24 14.5 -49t3.5 -54q0 -26 -7.5 -56.5t-29.5 -69.5t-56 -69.5t-93 -51.5t-133 -21 q-34 0 -70 6t-73.5 20t-61.5 42t-24 66q0 42 20.5 58t45.5 16q28 0 47.5 -14.5t30.5 -35.5t23.5 -42t35.5 -35.5t57 -14.5q52 0 88 16.5t50.5 41t20 42.5t5.5 32q0 35 -10 66t-34.5 64t-42 52.5t-54.5 56.5q-156 160 -156 277q0 55 30.5 109t73.5 100l87 96 q43 50 73.5 114.5t30.5 135.5q0 84 -45.5 137t-110.5 53q-19 0 -36.5 -3.5t-31 -8.5t-26 -14.5t-21 -17t-17.5 -19.5t-14 -20t-11 -20.5t-8 -18.5l-6 -16q-4 -11 -4 -12q-27 -71 -53.5 -178t-37.5 -165t-15 -86q-20 -157 -46.5 -415.5t-45.5 -402t-43 -201.5 q-28 -67 -66.5 -114.5t-77.5 -68t-66 -28.5t-48 -8q-29 0 -52 12.5t-23 35.5z" />
<glyph unicode="&#xe0;" horiz-adv-x="1061" d="M65 234q0 151 115 334q121 191 276 266q73 36 151 36q31 0 85.5 -11t88.5 -11q13 0 27.5 15.5t25 34.5t25 34.5t28.5 15.5q22 0 22 -30q0 -14 -6.5 -35.5t-17 -52.5t-16.5 -54q-8 -34 -16 -76t-17 -98.5t-15 -87.5l-12 -66l-13 -72q-4 -24 -8 -60.5t-4 -63.5 q0 -42 21 -81t48 -39q23 0 46.5 21t40 45.5t34 45.5t30.5 21q17 0 17 -23q0 -41 -35 -89q-44 -62 -103 -114.5t-97 -52.5q-45 0 -73 36t-35 78.5t-11 78.5t-7 36q-2 0 -23.5 -25t-57.5 -61.5t-80.5 -72.5t-102 -61t-111.5 -25q-56 0 -97.5 15t-64.5 38.5t-36.5 60t-17.5 71 t-4 79.5zM209 246q0 -74 46.5 -119t113.5 -45q51 0 99.5 23t81.5 56.5t52 59.5t29 45q22 44 48 164t41 214t15 103q0 20 -14.5 35t-36.5 23t-43 11.5t-40 3.5q-66 0 -138 -45.5t-117 -120.5q-105 -175 -127 -298q-10 -62 -10 -110zM411 1299q0 25 42 38.5t64 13.5 q23 0 34 -36q33 -107 64 -179.5t44 -96t13 -31.5q0 -9 -6.5 -14.5t-15.5 -5.5q-14 0 -73 66t-112.5 143t-53.5 102z" />
<glyph unicode="&#xe1;" horiz-adv-x="1061" d="M525 1004q0 9 15 28t63.5 93.5t108.5 189.5q19 36 41 36t59.5 -13t37.5 -34q0 -22 -70.5 -100.5t-146 -147t-90.5 -68.5q-18 0 -18 16zM65 234q0 151 115 334q121 191 276 266q73 36 151 36q31 0 85.5 -11t88.5 -11q13 0 27.5 15.5t25 34.5t25 34.5t28.5 15.5 q22 0 22 -30q0 -14 -6.5 -35.5t-17 -52.5t-16.5 -54q-8 -34 -16 -76t-17 -98.5t-15 -87.5l-12 -66l-13 -72q-4 -24 -8 -60.5t-4 -63.5q0 -42 21 -81t48 -39q23 0 46.5 21t40 45.5t34 45.5t30.5 21q17 0 17 -23q0 -41 -35 -89q-44 -62 -103 -114.5t-97 -52.5q-45 0 -73 36 t-35 78.5t-11 78.5t-7 36q-2 0 -23.5 -25t-57.5 -61.5t-80.5 -72.5t-102 -61t-111.5 -25q-56 0 -97.5 15t-64.5 38.5t-36.5 60t-17.5 71t-4 79.5zM209 246q0 -74 46.5 -119t113.5 -45q51 0 99.5 23t81.5 56.5t52 59.5t29 45q22 44 48 164t41 214t15 103q0 20 -14.5 35 t-36.5 23t-43 11.5t-40 3.5q-66 0 -138 -45.5t-117 -120.5q-105 -175 -127 -298q-10 -62 -10 -110z" />
<glyph unicode="&#xe2;" horiz-adv-x="1061" d="M376 1021q0 3 9 16l75 97l52 72l34 51l22 34q7 11 13 19t10 10t11 2h52q20 0 29 -20q29 -62 67 -130l58 -104q20 -37 20 -45q0 -11 -16 -11t-101 87t-93 87q-16 -1 -116.5 -86.5t-111.5 -85.5q-14 0 -14 7zM65 234q0 151 115 334q121 191 276 266q73 36 151 36 q31 0 85.5 -11t88.5 -11q13 0 27.5 15.5t25 34.5t25 34.5t28.5 15.5q22 0 22 -30q0 -14 -6.5 -35.5t-17 -52.5t-16.5 -54q-8 -34 -16 -76t-17 -98.5t-15 -87.5l-12 -66l-13 -72q-4 -24 -8 -60.5t-4 -63.5q0 -42 21 -81t48 -39q23 0 46.5 21t40 45.5t34 45.5t30.5 21 q17 0 17 -23q0 -41 -35 -89q-44 -62 -103 -114.5t-97 -52.5q-45 0 -73 36t-35 78.5t-11 78.5t-7 36q-2 0 -23.5 -25t-57.5 -61.5t-80.5 -72.5t-102 -61t-111.5 -25q-56 0 -97.5 15t-64.5 38.5t-36.5 60t-17.5 71t-4 79.5zM209 246q0 -74 46.5 -119t113.5 -45q51 0 99.5 23 t81.5 56.5t52 59.5t29 45q22 44 48 164t41 214t15 103q0 20 -14.5 35t-36.5 23t-43 11.5t-40 3.5q-66 0 -138 -45.5t-117 -120.5q-105 -175 -127 -298q-10 -62 -10 -110z" />
<glyph unicode="&#xe3;" horiz-adv-x="1061" d="M309 1095q0 18 36.5 66.5t90 92t91.5 43.5q32 0 65.5 -15.5t57 -33.5t57.5 -33.5t67 -15.5q25 0 47.5 18t36 39t27.5 39t24 18q18 0 18 -24q0 -36 -80 -117t-136 -81q-42 0 -85 25l-84 48q-41 25 -78 25q-26 0 -49 -18t-37 -40t-28.5 -40t-24.5 -18q-16 0 -16 22zM65 234 q0 151 115 334q121 191 276 266q73 36 151 36q31 0 85.5 -11t88.5 -11q13 0 27.5 15.5t25 34.5t25 34.5t28.5 15.5q22 0 22 -30q0 -14 -6.5 -35.5t-17 -52.5t-16.5 -54q-8 -34 -16 -76t-17 -98.5t-15 -87.5l-12 -66l-13 -72q-4 -24 -8 -60.5t-4 -63.5q0 -42 21 -81t48 -39 q23 0 46.5 21t40 45.5t34 45.5t30.5 21q17 0 17 -23q0 -41 -35 -89q-44 -62 -103 -114.5t-97 -52.5q-45 0 -73 36t-35 78.5t-11 78.5t-7 36q-2 0 -23.5 -25t-57.5 -61.5t-80.5 -72.5t-102 -61t-111.5 -25q-56 0 -97.5 15t-64.5 38.5t-36.5 60t-17.5 71t-4 79.5zM209 246 q0 -74 46.5 -119t113.5 -45q51 0 99.5 23t81.5 56.5t52 59.5t29 45q22 44 48 164t41 214t15 103q0 20 -14.5 35t-36.5 23t-43 11.5t-40 3.5q-66 0 -138 -45.5t-117 -120.5q-105 -175 -127 -298q-10 -62 -10 -110z" />
<glyph unicode="&#xe4;" horiz-adv-x="1061" d="M392 1206q0 25 36.5 64.5t66.5 39.5t56 -32t26 -63t-39 -70t-56 -39q-37 0 -63.5 35t-26.5 65zM709 1206q0 25 36.5 64.5t66.5 39.5t56 -32t26 -63t-39 -70t-56 -39q-37 0 -63.5 35t-26.5 65zM65 234q0 151 115 334q121 191 276 266q73 36 151 36q31 0 85.5 -11t88.5 -11 q13 0 27.5 15.5t25 34.5t25 34.5t28.5 15.5q22 0 22 -30q0 -14 -6.5 -35.5t-17 -52.5t-16.5 -54q-8 -34 -16 -76t-17 -98.5t-15 -87.5l-12 -66l-13 -72q-4 -24 -8 -60.5t-4 -63.5q0 -42 21 -81t48 -39q23 0 46.5 21t40 45.5t34 45.5t30.5 21q17 0 17 -23q0 -41 -35 -89 q-44 -62 -103 -114.5t-97 -52.5q-45 0 -73 36t-35 78.5t-11 78.5t-7 36q-2 0 -23.5 -25t-57.5 -61.5t-80.5 -72.5t-102 -61t-111.5 -25q-56 0 -97.5 15t-64.5 38.5t-36.5 60t-17.5 71t-4 79.5zM209 246q0 -74 46.5 -119t113.5 -45q51 0 99.5 23t81.5 56.5t52 59.5t29 45 q22 44 48 164t41 214t15 103q0 20 -14.5 35t-36.5 23t-43 11.5t-40 3.5q-66 0 -138 -45.5t-117 -120.5q-105 -175 -127 -298q-10 -62 -10 -110z" />
<glyph unicode="&#xe5;" horiz-adv-x="1061" d="M65 234q0 151 115 334q121 191 276 266q73 36 151 36q31 0 85.5 -11t88.5 -11q13 0 27.5 15.5t25 34.5t25 34.5t28.5 15.5q22 0 22 -30q0 -14 -6.5 -35.5t-17 -52.5t-16.5 -54q-8 -34 -16 -76t-17 -98.5t-15 -87.5l-12 -66l-13 -72q-4 -24 -8 -60.5t-4 -63.5 q0 -42 21 -81t48 -39q23 0 46.5 21t40 45.5t34 45.5t30.5 21q17 0 17 -23q0 -41 -35 -89q-44 -62 -103 -114.5t-97 -52.5q-45 0 -73 36t-35 78.5t-11 78.5t-7 36q-2 0 -23.5 -25t-57.5 -61.5t-80.5 -72.5t-102 -61t-111.5 -25q-56 0 -97.5 15t-64.5 38.5t-36.5 60t-17.5 71 t-4 79.5zM209 246q0 -74 46.5 -119t113.5 -45q51 0 99.5 23t81.5 56.5t52 59.5t29 45q22 44 48 164t41 214t15 103q0 20 -14.5 35t-36.5 23t-43 11.5t-40 3.5q-66 0 -138 -45.5t-117 -120.5q-105 -175 -127 -298q-10 -62 -10 -110zM468 1189q0 69 54.5 121.5t117.5 52.5 q67 0 99 -45.5t32 -99.5q0 -41 -21 -75.5t-50.5 -53.5t-55 -29.5t-39.5 -10.5q-41 0 -70 14t-42.5 37t-19 44.5t-5.5 44.5zM535 1195q0 -34 21 -55t56 -21q27 0 59.5 24t32.5 75q0 30 -16.5 52.5t-57.5 22.5q-31 0 -63 -27t-32 -71z" />
<glyph unicode="&#xe6;" horiz-adv-x="1441" d="M65 234q0 69 27 153t77.5 166.5t115.5 151.5t150 112t172 43q31 0 80.5 -6t83.5 -6q13 0 27.5 15.5t25 34.5t25 34.5t28.5 15.5q22 0 22 -30q0 -17 -23.5 -87t-23.5 -95q0 -9 5 -9t19.5 17t40 41.5t61 49t94 41.5t127.5 17q74 0 125.5 -42.5t51.5 -109.5q0 -51 -24 -97 t-61.5 -77t-63.5 -47t-48 -26q-126 -53 -322 -56q-21 0 -28 -20t-7 -64q0 -119 74 -187t221 -68q51 0 101 22t81 44t38 22q26 0 26 -21q0 -18 -31.5 -49.5t-79.5 -63t-115 -54.5t-130 -23q-79 0 -139 18t-90.5 45.5t-50.5 59.5t-26.5 59.5t-11.5 45.5t-11 18q-8 0 -34 -26 l-62 -63q-36 -37 -80 -74t-102.5 -63t-114.5 -26t-97.5 15t-64.5 38.5t-36.5 60t-17.5 71t-4 79.5zM209 246q0 -74 46.5 -119t113.5 -45q51 0 99.5 23t81.5 56.5t52 59.5t29 45q21 43 47 160t41 209t15 101q0 33 -41 51t-83 18q-92 0 -185.5 -80t-154.5 -211.5t-61 -267.5z M851 515q0 -41 18 -41q146 0 256 80.5t110 180.5q0 51 -36 73.5t-72 22.5q-78 0 -169 -96q-41 -43 -74 -118.5t-33 -101.5z" />
<glyph unicode="&#xe7;" horiz-adv-x="856" d="M65 306q0 104 41 209.5t109.5 188.5t166.5 135.5t203 52.5q13 0 42 -7t68 -21.5t67.5 -46t28.5 -71.5q0 -30 -20.5 -55t-47.5 -25q-24 0 -45.5 15t-40 37t-39 44t-53 37t-72.5 15q-17 0 -57 -19.5t-77 -53.5q-13 -12 -31.5 -36.5t-43.5 -66.5t-42 -103.5t-17 -126.5 q0 -314 242 -314q57 0 107.5 17t79.5 38l52 38q24 17 35 17t18.5 -8t7.5 -18q0 -9 -16.5 -31.5t-50 -51.5t-76 -55.5t-104 -45t-125.5 -18.5q-310 0 -310 330zM301 -162q0 1 18.5 17.5t43 33t36.5 16.5q4 0 14 -3.5t25.5 -13t29 -22.5t23 -35t9.5 -47q0 -47 -21.5 -86 t-51 -60.5t-54.5 -33t-37 -11.5t-12 8q0 5 13 13l29 20q15 10 28 32t13 50q0 31 -16.5 52.5t-36.5 30t-36.5 18.5t-16.5 21z" />
<glyph unicode="&#xe8;" horiz-adv-x="824" d="M65 302q0 130 62 256t170 227q114 108 285 108q74 0 125.5 -42.5t51.5 -109.5q0 -51 -24 -97t-61.5 -77t-63.5 -47t-48 -26q-126 -53 -322 -56q-21 0 -28 -20t-7 -64q0 -119 74 -187t221 -68q51 0 101 22t81 44t38 22q26 0 26 -21q0 -18 -31.5 -49.5t-79.5 -63 t-115 -54.5t-130 -23q-95 0 -160.5 24.5t-100.5 71t-49.5 102t-14.5 128.5zM234 515q0 -41 18 -41q146 0 256 80.5t110 180.5q0 51 -36 73.5t-72 22.5q-78 0 -169 -96q-41 -43 -74 -118.5t-33 -101.5zM365 1299q0 25 42 38.5t64 13.5q23 0 34 -36q33 -107 64 -179.5t44 -96 t13 -31.5q0 -9 -6.5 -14.5t-15.5 -5.5q-14 0 -73 66t-112.5 143t-53.5 102z" />
<glyph unicode="&#xe9;" horiz-adv-x="824" d="M479 1004q0 9 15 28t63.5 93.5t108.5 189.5q19 36 41 36t59.5 -13t37.5 -34q0 -22 -70.5 -100.5t-146 -147t-90.5 -68.5q-18 0 -18 16zM65 302q0 130 62 256t170 227q114 108 285 108q74 0 125.5 -42.5t51.5 -109.5q0 -51 -24 -97t-61.5 -77t-63.5 -47t-48 -26 q-126 -53 -322 -56q-21 0 -28 -20t-7 -64q0 -119 74 -187t221 -68q51 0 101 22t81 44t38 22q26 0 26 -21q0 -18 -31.5 -49.5t-79.5 -63t-115 -54.5t-130 -23q-95 0 -160.5 24.5t-100.5 71t-49.5 102t-14.5 128.5zM234 515q0 -41 18 -41q146 0 256 80.5t110 180.5 q0 51 -36 73.5t-72 22.5q-78 0 -169 -96q-41 -43 -74 -118.5t-33 -101.5z" />
<glyph unicode="&#xea;" horiz-adv-x="824" d="M330 1021q0 3 9 16l75 97l52 72l34 51l22 34q7 11 13 19t10 10t11 2h52q20 0 29 -20q29 -62 67 -130l58 -104q20 -37 20 -45q0 -11 -16 -11t-101 87t-93 87q-16 -1 -116.5 -86.5t-111.5 -85.5q-14 0 -14 7zM65 302q0 130 62 256t170 227q114 108 285 108 q74 0 125.5 -42.5t51.5 -109.5q0 -51 -24 -97t-61.5 -77t-63.5 -47t-48 -26q-126 -53 -322 -56q-21 0 -28 -20t-7 -64q0 -119 74 -187t221 -68q51 0 101 22t81 44t38 22q26 0 26 -21q0 -18 -31.5 -49.5t-79.5 -63t-115 -54.5t-130 -23q-95 0 -160.5 24.5t-100.5 71 t-49.5 102t-14.5 128.5zM234 515q0 -41 18 -41q146 0 256 80.5t110 180.5q0 51 -36 73.5t-72 22.5q-78 0 -169 -96q-41 -43 -74 -118.5t-33 -101.5z" />
<glyph unicode="&#xeb;" horiz-adv-x="824" d="M346 1206q0 25 36.5 64.5t66.5 39.5t56 -32t26 -63t-39 -70t-56 -39q-37 0 -63.5 35t-26.5 65zM663 1206q0 25 36.5 64.5t66.5 39.5t56 -32t26 -63t-39 -70t-56 -39q-37 0 -63.5 35t-26.5 65zM65 302q0 130 62 256t170 227q114 108 285 108q74 0 125.5 -42.5t51.5 -109.5 q0 -51 -24 -97t-61.5 -77t-63.5 -47t-48 -26q-126 -53 -322 -56q-21 0 -28 -20t-7 -64q0 -119 74 -187t221 -68q51 0 101 22t81 44t38 22q26 0 26 -21q0 -18 -31.5 -49.5t-79.5 -63t-115 -54.5t-130 -23q-95 0 -160.5 24.5t-100.5 71t-49.5 102t-14.5 128.5zM234 515 q0 -41 18 -41q146 0 256 80.5t110 180.5q0 51 -36 73.5t-72 22.5q-78 0 -169 -96q-41 -43 -74 -118.5t-33 -101.5z" />
<glyph unicode="&#xec;" horiz-adv-x="512" d="M78 1299q0 25 42 38.5t64 13.5q23 0 34 -36q33 -107 64 -179.5t44 -96t13 -31.5q0 -9 -6.5 -14.5t-15.5 -5.5q-14 0 -73 66t-112.5 143t-53.5 102zM40 810q0 30 48 30h20q37 0 103.5 9.5t129.5 9.5q11 0 20 -6.5t9 -16.5q0 -27 -23.5 -107t-31.5 -131q-61 -388 -61 -407 q0 -21 12.5 -38t27.5 -17q23 0 44.5 16.5t34.5 36.5t26.5 36.5t22.5 16.5q20 0 20 -22q0 -17 -21 -58t-38 -61q-121 -121 -188 -121q-77 0 -77 169q0 82 46 310.5t46 281.5q0 26 -10.5 34.5t-38.5 8.5q-24 0 -55.5 1t-36.5 1q-29 0 -29 24z" />
<glyph unicode="&#xed;" horiz-adv-x="512" d="M192 1004q0 9 15 28t63.5 93.5t108.5 189.5q19 36 41 36t59.5 -13t37.5 -34q0 -22 -70.5 -100.5t-146 -147t-90.5 -68.5q-18 0 -18 16zM40 810q0 30 48 30h20q37 0 103.5 9.5t129.5 9.5q11 0 20 -6.5t9 -16.5q0 -27 -23.5 -107t-31.5 -131q-61 -388 -61 -407 q0 -21 12.5 -38t27.5 -17q23 0 44.5 16.5t34.5 36.5t26.5 36.5t22.5 16.5q20 0 20 -22q0 -17 -21 -58t-38 -61q-121 -121 -188 -121q-77 0 -77 169q0 82 46 310.5t46 281.5q0 26 -10.5 34.5t-38.5 8.5q-24 0 -55.5 1t-36.5 1q-29 0 -29 24z" />
<glyph unicode="&#xee;" horiz-adv-x="512" d="M43 1021q0 3 9 16l74 97l53 72l34 51l22 34q7 11 13 19t10 10t11 2h52q20 0 29 -20q29 -62 66 -130l58 -104q21 -37 21 -45q0 -11 -16 -11t-101 87t-93 87q-16 -1 -116.5 -86.5t-111.5 -85.5q-14 0 -14 7zM40 810q0 30 48 30h20q37 0 103.5 9.5t129.5 9.5q11 0 20 -6.5 t9 -16.5q0 -27 -23.5 -107t-31.5 -131q-61 -388 -61 -407q0 -21 12.5 -38t27.5 -17q23 0 44.5 16.5t34.5 36.5t26.5 36.5t22.5 16.5q20 0 20 -22q0 -17 -21 -58t-38 -61q-121 -121 -188 -121q-77 0 -77 169q0 82 46 310.5t46 281.5q0 26 -10.5 34.5t-38.5 8.5q-24 0 -55.5 1 t-36.5 1q-29 0 -29 24z" />
<glyph unicode="&#xef;" horiz-adv-x="512" d="M59 1206q0 25 36.5 64.5t66.5 39.5t56 -32t26 -63t-39 -70t-56 -39q-37 0 -63.5 35t-26.5 65zM376 1206q0 25 36.5 64.5t66.5 39.5t56 -32t26 -63t-39 -70t-56 -39q-37 0 -63.5 35t-26.5 65zM40 810q0 30 48 30h20q37 0 103.5 9.5t129.5 9.5q11 0 20 -6.5t9 -16.5 q0 -27 -23.5 -107t-31.5 -131q-61 -388 -61 -407q0 -21 12.5 -38t27.5 -17q23 0 44.5 16.5t34.5 36.5t26.5 36.5t22.5 16.5q20 0 20 -22q0 -17 -21 -58t-38 -61q-121 -121 -188 -121q-77 0 -77 169q0 82 46 310.5t46 281.5q0 26 -10.5 34.5t-38.5 8.5q-24 0 -55.5 1t-36.5 1 q-29 0 -29 24z" />
<glyph unicode="&#xf0;" horiz-adv-x="928" d="M65 347q0 77 20 153.5t61 147t97.5 124.5t135.5 86t169 32q111 0 186 -64q-16 120 -81 268l-9 20l-7 16q-2 5 -4.5 10t-5 6.5t-5.5 1.5t-8 -2l-14 -6q-10 -4 -19 -7l-122 -45q-123 -46 -131 -46q-14 0 -25.5 26.5t-11.5 43.5q0 8 146 59.5t146 57.5q0 3 -12.5 22t-33 46 t-38.5 46q-40 44 -85 73l-64 42q-21 12 -21 27q0 13 26 19t46 6q42 0 116.5 -56.5t139.5 -151.5q7 -10 13.5 -21t9 -14t6.5 -3q3 0 8 2l14 6l19 8l122 46q93 35 94 35q13 0 28 -24t15 -47q0 -7 -12.5 -13t-72.5 -27l-122 -44l-19 -6q-11 -4 -16 -6t-9.5 -4t-6 -4t-1.5 -5 q0 -1 14 -31t34 -82.5t40 -119.5t34 -158t14 -181q0 -76 -13.5 -151t-40 -145.5t-67.5 -131t-93.5 -105.5t-121.5 -71t-147 -26q-134 0 -224.5 95t-90.5 273zM223 344q0 -147 51 -225t128 -78q63 0 114.5 37t84 94t55 127.5t32 134.5t9.5 119q0 137 -50 206.5t-126 69.5 q-78 0 -150.5 -68t-106.5 -187q-41 -146 -41 -230z" />
<glyph unicode="&#xf1;" horiz-adv-x="1077" d="M323 1095q0 18 36.5 66.5t90 92t91.5 43.5q32 0 65.5 -15.5t57 -33.5t57.5 -33.5t67 -15.5q25 0 47.5 18t36 39t27.5 39t24 18q18 0 18 -24q0 -36 -80 -117t-136 -81q-42 0 -85 25l-84 48q-41 25 -78 25q-26 0 -49 -18t-37 -40t-28.5 -40t-24.5 -18q-16 0 -16 22zM50 658 q0 61 71.5 147t128.5 86q40 0 61.5 -33.5t23 -74.5t3 -74.5t6.5 -33.5t14 13t32 39.5t56 51.5q150 115 250 115q173 0 173 -255q0 -81 -18 -243t-18 -188q0 -72 40 -72q16 0 37 12t30.5 20t14.5 13q6 7 15 20.5t13.5 19t13.5 10.5t20 5q20 0 20 -26q0 -38 -48.5 -91.5 t-113.5 -92t-109 -38.5q-30 0 -53 37.5t-23 90.5q0 88 21.5 283t21.5 223q0 19 -4.5 41t-17 54t-44 52.5t-77.5 20.5q-37 0 -67.5 -20.5t-65.5 -69.5l-41 -60q-13 -19 -23 -50t-13 -50l-14 -84q-10 -65 -21 -126q-17 -95 -27 -156t-11.5 -78.5t-2 -28t-1.5 -17.5 q-5 -33 -20 -43.5t-55 -10.5q-45 0 -59 10.5t-14 52.5q0 33 45 253.5t45 308.5q0 50 -15 81.5t-32 31.5q-21 0 -40.5 -18t-31.5 -40t-28 -40t-31 -18q-17 0 -17 40z" />
<glyph unicode="&#xf2;" horiz-adv-x="913" d="M65 347q0 77 20 153.5t61 147t97.5 124.5t135.5 86t169 32q146 0 223 -103.5t77 -257.5q0 -77 -19.5 -155t-59.5 -149t-94.5 -126t-131.5 -87.5t-164 -32.5q-134 0 -224 95t-90 273zM223 344q0 -147 50.5 -225t127.5 -78t137.5 55t93 138.5t49 166t16.5 152.5 q0 137 -50.5 206.5t-126.5 69.5q-78 0 -150 -68t-106 -187q-41 -146 -41 -230zM356 1299q0 25 42 38.5t64 13.5q23 0 34 -36q33 -107 64 -179.5t44 -96t13 -31.5q0 -9 -6.5 -14.5t-15.5 -5.5q-14 0 -73 66t-112.5 143t-53.5 102z" />
<glyph unicode="&#xf3;" horiz-adv-x="913" d="M470 1004q0 9 15 28t63.5 93.5t108.5 189.5q19 36 41 36t59.5 -13t37.5 -34q0 -22 -70.5 -100.5t-146 -147t-90.5 -68.5q-18 0 -18 16zM65 347q0 77 20 153.5t61 147t97.5 124.5t135.5 86t169 32q146 0 223 -103.5t77 -257.5q0 -77 -19.5 -155t-59.5 -149t-94.5 -126 t-131.5 -87.5t-164 -32.5q-134 0 -224 95t-90 273zM223 344q0 -147 50.5 -225t127.5 -78t137.5 55t93 138.5t49 166t16.5 152.5q0 137 -50.5 206.5t-126.5 69.5q-78 0 -150 -68t-106 -187q-41 -146 -41 -230z" />
<glyph unicode="&#xf4;" horiz-adv-x="913" d="M321 1021q0 3 9 16l75 97l52 72l34 51l22 34q7 11 13 19t10 10t11 2h52q20 0 29 -20q29 -62 67 -130l58 -104q20 -37 20 -45q0 -11 -16 -11t-101 87t-93 87q-16 -1 -116.5 -86.5t-111.5 -85.5q-14 0 -14 7zM65 347q0 77 20 153.5t61 147t97.5 124.5t135.5 86t169 32 q146 0 223 -103.5t77 -257.5q0 -77 -19.5 -155t-59.5 -149t-94.5 -126t-131.5 -87.5t-164 -32.5q-134 0 -224 95t-90 273zM223 344q0 -147 50.5 -225t127.5 -78t137.5 55t93 138.5t49 166t16.5 152.5q0 137 -50.5 206.5t-126.5 69.5q-78 0 -150 -68t-106 -187 q-41 -146 -41 -230z" />
<glyph unicode="&#xf5;" horiz-adv-x="913" d="M254 1095q0 18 36.5 66.5t90 92t91.5 43.5q32 0 65.5 -15.5t57 -33.5t57.5 -33.5t67 -15.5q25 0 47.5 18t36 39t27.5 39t24 18q18 0 18 -24q0 -36 -80 -117t-136 -81q-42 0 -85 25l-84 48q-41 25 -78 25q-26 0 -49 -18t-37 -40t-28.5 -40t-24.5 -18q-16 0 -16 22zM65 347 q0 77 20 153.5t61 147t97.5 124.5t135.5 86t169 32q146 0 223 -103.5t77 -257.5q0 -77 -19.5 -155t-59.5 -149t-94.5 -126t-131.5 -87.5t-164 -32.5q-134 0 -224 95t-90 273zM223 344q0 -147 50.5 -225t127.5 -78t137.5 55t93 138.5t49 166t16.5 152.5q0 137 -50.5 206.5 t-126.5 69.5q-78 0 -150 -68t-106 -187q-41 -146 -41 -230z" />
<glyph unicode="&#xf6;" horiz-adv-x="913" d="M337 1206q0 25 36.5 64.5t66.5 39.5t56 -32t26 -63t-39 -70t-56 -39q-37 0 -63.5 35t-26.5 65zM654 1206q0 25 36.5 64.5t66.5 39.5t56 -32t26 -63t-39 -70t-56 -39q-37 0 -63.5 35t-26.5 65zM65 347q0 77 20 153.5t61 147t97.5 124.5t135.5 86t169 32q146 0 223 -103.5 t77 -257.5q0 -77 -19.5 -155t-59.5 -149t-94.5 -126t-131.5 -87.5t-164 -32.5q-134 0 -224 95t-90 273zM223 344q0 -147 50.5 -225t127.5 -78t137.5 55t93 138.5t49 166t16.5 152.5q0 137 -50.5 206.5t-126.5 69.5q-78 0 -150 -68t-106 -187q-41 -146 -41 -230z" />
<glyph unicode="&#xf7;" d="M43 434q0 16 1.5 23t10 13t26.5 6h882q23 0 28 -9t5 -34q0 -20 -2 -28.5t-11.5 -14t-29.5 -5.5h-874q-25 0 -30.5 9.5t-5.5 39.5zM414 655q0 34 25.5 59t60.5 25q34 0 58.5 -24t24.5 -58t-24.5 -58.5t-59.5 -24.5t-60 23.5t-25 57.5zM425 206q0 34 24 58t59 24t60 -25 t25 -59t-24 -57.5t-59 -23.5q-34 0 -59.5 24t-25.5 59z" />
<glyph unicode="&#xf8;" horiz-adv-x="913" d="M65 347q0 77 20 153.5t61 147t97.5 124.5t135.5 86t169 32q29 0 54 -4t38 -8l13 -5q4 0 10 11l5 10l62 108q11 18 24 18q14 0 37 -12.5t23 -29.5q0 -8 -29 -58l-52 -92q0 -1 12 -12t28.5 -33.5t33.5 -54.5t29 -84.5t12 -114.5q0 -97 -31.5 -193.5t-89 -176.5t-148.5 -130 t-199 -50q-20 0 -39.5 2.5t-33.5 5.5t-25 6.5t-17 6t-7 2.5q-2 0 -3.5 -1.5t-4.5 -8.5t-7 -13l-57 -98q-25 -44 -33 -48q-4 -2 -8 -2q-11 0 -36.5 13.5t-25.5 27.5q0 9 5 17l58 99q33 56 33 59t-11.5 14.5t-28.5 33.5t-34 53.5t-28.5 84t-11.5 114.5zM223 344 q0 -37 6.5 -81.5t13 -71.5t9.5 -27l4 9l13 25l15 27l308 536q4 7 9 15t7.5 12.5t2.5 6.5q0 4 -11 12t-33 15t-46 7q-78 0 -150.5 -68t-106.5 -187q-41 -146 -41 -230zM306 85q0 -14 32.5 -29t63.5 -15q63 0 114.5 37t84 94t55 127.5t32 134.5t9.5 119q0 45 -6.5 85 t-12.5 58.5t-8 18.5t-11 -15l-320 -553l-13 -23l-12 -18q-3 -5 -5.5 -11t-2.5 -10z" />
<glyph unicode="&#xf9;" horiz-adv-x="1075" d="M40 602q0 46 28.5 109t84.5 114.5t120 51.5q25 0 42.5 -19t24 -47.5t9 -48t2.5 -34.5q0 -94 -38 -293t-38 -274q0 -23 12 -38.5t24 -15.5q40 0 86 43.5t125 138.5l23 28q63 76 111.5 173t73.5 173t53 185q9 33 59 33q27 0 47 -12.5t20 -33.5q0 -22 -62 -309.5t-62 -345.5 q0 -21 8 -33t16 -14t20 -2q35 0 61.5 15.5t42 38t27 45t22.5 38t23 15.5q30 0 30 -43q0 -16 -14.5 -46t-43.5 -66.5t-66.5 -69.5t-90 -55t-106.5 -22q-60 0 -60 111q0 58 9 131.5t18.5 125t9.5 55.5q0 23 -11 23q-6 0 -13 -13l-27 -48q-20 -35 -45 -71q-226 -318 -392 -318 q-38 0 -54 38.5t-16 93.5q0 95 23 211t46 213t23 146q0 18 -10.5 30.5t-29.5 12.5q-15 0 -43.5 -35t-49.5 -82q-12 -29 -31 -29q-9 0 -15 7.5t-6 18.5zM370 1299q0 25 42 38.5t64 13.5q23 0 34 -36q33 -107 64 -179.5t44 -96t13 -31.5q0 -9 -6.5 -14.5t-15.5 -5.5 q-14 0 -73 66t-112.5 143t-53.5 102z" />
<glyph unicode="&#xfa;" horiz-adv-x="1075" d="M484 1004q0 9 15 28t63.5 93.5t108.5 189.5q19 36 41 36t59.5 -13t37.5 -34q0 -22 -70.5 -100.5t-146 -147t-90.5 -68.5q-18 0 -18 16zM40 602q0 46 28.5 109t84.5 114.5t120 51.5q25 0 42.5 -19t24 -47.5t9 -48t2.5 -34.5q0 -94 -38 -293t-38 -274q0 -23 12 -38.5 t24 -15.5q40 0 86 43.5t125 138.5l23 28q63 76 111.5 173t73.5 173t53 185q9 33 59 33q27 0 47 -12.5t20 -33.5q0 -22 -62 -309.5t-62 -345.5q0 -21 8 -33t16 -14t20 -2q35 0 61.5 15.5t42 38t27 45t22.5 38t23 15.5q30 0 30 -43q0 -16 -14.5 -46t-43.5 -66.5t-66.5 -69.5 t-90 -55t-106.5 -22q-60 0 -60 111q0 58 9 131.5t18.5 125t9.5 55.5q0 23 -11 23q-6 0 -13 -13l-27 -48q-20 -35 -45 -71q-226 -318 -392 -318q-38 0 -54 38.5t-16 93.5q0 95 23 211t46 213t23 146q0 18 -10.5 30.5t-29.5 12.5q-15 0 -43.5 -35t-49.5 -82q-12 -29 -31 -29 q-9 0 -15 7.5t-6 18.5z" />
<glyph unicode="&#xfb;" horiz-adv-x="1075" d="M335 1021q0 3 9 16l75 97l52 72l34 51l22 34q7 11 13 19t10 10t11 2h52q20 0 29 -20q29 -62 67 -130l58 -104q20 -37 20 -45q0 -11 -16 -11t-101 87t-93 87q-16 -1 -116.5 -86.5t-111.5 -85.5q-14 0 -14 7zM40 602q0 46 28.5 109t84.5 114.5t120 51.5q25 0 42.5 -19 t24 -47.5t9 -48t2.5 -34.5q0 -94 -38 -293t-38 -274q0 -23 12 -38.5t24 -15.5q40 0 86 43.5t125 138.5l23 28q63 76 111.5 173t73.5 173t53 185q9 33 59 33q27 0 47 -12.5t20 -33.5q0 -22 -62 -309.5t-62 -345.5q0 -21 8 -33t16 -14t20 -2q35 0 61.5 15.5t42 38t27 45 t22.5 38t23 15.5q30 0 30 -43q0 -16 -14.5 -46t-43.5 -66.5t-66.5 -69.5t-90 -55t-106.5 -22q-60 0 -60 111q0 58 9 131.5t18.5 125t9.5 55.5q0 23 -11 23q-6 0 -13 -13l-27 -48q-20 -35 -45 -71q-226 -318 -392 -318q-38 0 -54 38.5t-16 93.5q0 95 23 211t46 213t23 146 q0 18 -10.5 30.5t-29.5 12.5q-15 0 -43.5 -35t-49.5 -82q-12 -29 -31 -29q-9 0 -15 7.5t-6 18.5z" />
<glyph unicode="&#xfc;" horiz-adv-x="1075" d="M351 1206q0 25 36.5 64.5t66.5 39.5t56 -32t26 -63t-39 -70t-56 -39q-37 0 -63.5 35t-26.5 65zM668 1206q0 25 36.5 64.5t66.5 39.5t56 -32t26 -63t-39 -70t-56 -39q-37 0 -63.5 35t-26.5 65zM40 602q0 46 28.5 109t84.5 114.5t120 51.5q25 0 42.5 -19t24 -47.5t9 -48 t2.5 -34.5q0 -94 -38 -293t-38 -274q0 -23 12 -38.5t24 -15.5q40 0 86 43.5t125 138.5l23 28q63 76 111.5 173t73.5 173t53 185q9 33 59 33q27 0 47 -12.5t20 -33.5q0 -22 -62 -309.5t-62 -345.5q0 -21 8 -33t16 -14t20 -2q35 0 61.5 15.5t42 38t27 45t22.5 38t23 15.5 q30 0 30 -43q0 -16 -14.5 -46t-43.5 -66.5t-66.5 -69.5t-90 -55t-106.5 -22q-60 0 -60 111q0 58 9 131.5t18.5 125t9.5 55.5q0 23 -11 23q-6 0 -13 -13l-27 -48q-20 -35 -45 -71q-226 -318 -392 -318q-38 0 -54 38.5t-16 93.5q0 95 23 211t46 213t23 146q0 18 -10.5 30.5 t-29.5 12.5q-15 0 -43.5 -35t-49.5 -82q-12 -29 -31 -29q-9 0 -15 7.5t-6 18.5z" />
<glyph unicode="&#xfd;" horiz-adv-x="834" d="M381 1004q0 9 15 28t63.5 93.5t108.5 189.5q19 36 41 36t59.5 -13t37.5 -34q0 -22 -70.5 -100.5t-146 -147t-90.5 -68.5q-18 0 -18 16zM14 -256q0 26 20 47t46 21q39 0 84.5 -33.5t94.5 -33.5q55 0 117 69t99.5 149t37.5 121q0 42 -37.5 148.5t-89 216.5t-111 194.5 t-97.5 84.5q-33 0 -54 -16t-29 -38.5t-13.5 -45t-14.5 -38.5t-26 -16q-21 0 -21 45q0 36 9 78t27 85.5t52.5 72t78.5 28.5q56 0 117 -60t109.5 -145.5t89.5 -171t67.5 -145.5t31.5 -60q22 0 48 126t26 231q0 30 -26 78.5t-26 76.5q0 30 18 52.5t52 22.5q35 0 57.5 -30 t22.5 -78q0 -86 -43.5 -280t-125.5 -400q-40 -101 -80.5 -179t-92.5 -149t-115 -109.5t-132 -38.5q-171 0 -171 120z" />
<glyph unicode="&#xfe;" horiz-adv-x="999" d="M6 -374q0 23 19 34.5t42 21.5t29 27l142 1053q0 7 -1.5 8.5t-5.5 1.5q-11 0 -51.5 -18.5t-52.5 -18.5q-27 0 -27 24v8q0 19 14 27t90 34q11 4 18.5 7t13 8.5t8.5 7.5t5 11t2.5 11t2 15.5t1.5 17.5q11 84 30 204l31 200q13 79 13 93q0 18 -13.5 29t-36.5 11q-16 0 -33 -2 t-28 -2q-32 0 -45.5 5t-13.5 21q0 27 31 29q99 7 174 28.5t82 21.5q34 0 34 -36q0 -5 -0.5 -8.5t-1.5 -11.5l-4 -19l-6 -36l-11 -57q-6 -32 -15 -87l-19 -122q-35 -235 -35 -283q0 -10 2 -12t8 -2q5 0 25.5 1.5t59.5 3t88 1.5q363 0 363 -274q0 -96 -17 -161.5t-62 -143.5 l-14 -25l-14 -24l-13 -22q-11 -17 -16 -24l-17 -20q-11 -14 -21 -23l-22 -22q-14 -13 -30 -25l-33 -25q-122 -87 -269 -87q-15 0 -56.5 4t-55.5 4q-19 0 -23 -8.5t-10 -57.5l-7 -56q-3 -22 -8.5 -59t-8.5 -60t-3 -32q0 -35 26.5 -53.5t58.5 -22t58.5 -11t26.5 -22.5 q0 -28 -30 -28q-36 0 -106 1.5t-97 1.5q-25 0 -63.5 -1.5t-48.5 -1.5h-19q-13 0 -23.5 7.5t-10.5 20.5zM288 104q0 -9 8.5 -19t37 -20t71.5 -10q73 0 145 47.5t122 119t81 153.5t31 151q0 79 -29.5 138t-69 88.5t-92.5 47.5t-86.5 21.5t-65.5 3.5q-18 0 -32 -2.5t-18 -2.5 q-10 0 -16.5 -34t-17.5 -125l-28 -227q-3 -25 -15 -106.5t-19 -139t-7 -84.5z" />
<glyph unicode="&#xff;" horiz-adv-x="834" d="M248 1206q0 25 36.5 64.5t66.5 39.5t56 -32t26 -63t-39 -70t-56 -39q-37 0 -63.5 35t-26.5 65zM565 1206q0 25 36.5 64.5t66.5 39.5t56 -32t26 -63t-39 -70t-56 -39q-37 0 -63.5 35t-26.5 65zM14 -256q0 26 20 47t46 21q39 0 84.5 -33.5t94.5 -33.5q55 0 117 69t99.5 149 t37.5 121q0 42 -37.5 148.5t-89 216.5t-111 194.5t-97.5 84.5q-33 0 -54 -16t-29 -38.5t-13.5 -45t-14.5 -38.5t-26 -16q-21 0 -21 45q0 36 9 78t27 85.5t52.5 72t78.5 28.5q56 0 117 -60t109.5 -145.5t89.5 -171t67.5 -145.5t31.5 -60q22 0 48 126t26 231q0 30 -26 78.5 t-26 76.5q0 30 18 52.5t52 22.5q35 0 57.5 -30t22.5 -78q0 -86 -43.5 -280t-125.5 -400q-40 -101 -80.5 -179t-92.5 -149t-115 -109.5t-132 -38.5q-171 0 -171 120z" />
<glyph unicode="&#x152;" horiz-adv-x="2144" d="M80 644q0 121 33.5 239t102 223.5t163.5 186t226.5 127.5t282.5 47q50 0 83 -4t66.5 -9.5t178 -9.5t389.5 -4q44 0 244.5 4.5t228.5 4.5q36 0 36 -39q0 -11 -3.5 -46t-3.5 -62q0 -15 3 -51.5t3 -59.5q0 -20 -8 -39t-19 -19q-19 0 -25 14.5t-5.5 35t-8.5 51.5t-30 56 q-8 10 -29 22.5t-72.5 26.5t-114.5 15q-76 1 -165 3.5t-151 2.5q-85 0 -107 -18q-20 -16 -31 -79q-2 -8 -7 -41q-7 -48 -28.5 -223t-21.5 -193q0 -20 13.5 -24.5t74.5 -4.5q187 0 268 4.5t105.5 13.5t43.5 32q16 20 28 42t16 34.5t10 21t15 8.5q25 0 25 -23 q0 -19 -17.5 -96.5t-22.5 -116.5q-3 -21 -4 -79.5t-8 -91t-26 -32.5q-21 0 -21 34q0 97 -36 123q-60 43 -218 43q-61 0 -99 0.5t-48 0.5t-16.5 0.5t-12.5 0.5q-38 0 -57 -7t-21 -29q-7 -62 -26 -184l-33 -216q-15 -94 -15 -108q0 -45 42 -60h2q43 -15 214 -15 q120 0 215.5 15t149.5 37.5t94 48.5t58 48.5t33.5 37.5t26.5 15q21 0 21 -27q0 -34 -39.5 -99t-97.5 -119.5t-102 -54.5q-148 0 -367.5 11t-264.5 11q-120 0 -200.5 -20.5t-186.5 -20.5q-329 0 -527.5 188t-198.5 496zM257 710q0 -161 48 -292.5t128 -214t180 -126.5 t208 -44q138 0 186 47q35 34 52 131q-9 -49 19 118q38 244 42 273l73 620q3 28 3 42q0 39 -43 68.5t-104 44t-110 21.5t-78 7q-117 0 -218 -44t-170.5 -116t-119 -163.5t-73 -186.5t-23.5 -185z" />
<glyph unicode="&#x153;" horiz-adv-x="1435" d="M65 347q0 77 20 153.5t61 147t97.5 124.5t135.5 86t169 32q62 0 112 -20t78 -48t46.5 -56.5t27.5 -48.5t10 -20q5 0 21.5 20t45 49t67.5 58t101.5 49t135.5 20q74 0 125.5 -42.5t51.5 -109.5q0 -51 -24 -97t-61.5 -77t-63.5 -47t-48 -26q-126 -53 -322 -56q-21 0 -28 -20 t-7 -64q0 -119 74 -187t221 -68q51 0 101 22t81 44t38 22q26 0 26 -21q0 -18 -31.5 -49.5t-79.5 -63t-115 -54.5t-130 -23q-74 0 -130.5 15.5t-86 38t-47 45t-24.5 37.5l-7 16q-1 0 -15.5 -16t-41.5 -38.5t-63.5 -45t-91 -38.5t-114.5 -16q-64 0 -120 23.5t-100 68.5 t-69.5 117.5t-25.5 163.5zM223 344q0 -147 51 -225t128 -78q63 0 114.5 37t84 94t55 127.5t32 134.5t9.5 119q0 137 -50 206.5t-126 69.5q-78 0 -150.5 -68t-106.5 -187q-41 -146 -41 -230zM845 515q0 -41 18 -41q146 0 256 80.5t110 180.5q0 51 -36 73.5t-72 22.5 q-78 0 -169 -96q-41 -43 -74 -118.5t-33 -101.5z" />
<glyph unicode="&#x178;" horiz-adv-x="1414" d="M550 1746q0 25 36.5 64.5t66.5 39.5t56 -32t26 -63t-39 -70t-56 -39q-37 0 -63.5 35t-26.5 65zM867 1746q0 25 36.5 64.5t66.5 39.5t56 -32t26 -63t-39 -70t-56 -39q-37 0 -63.5 35t-26.5 65zM40 1434q0 28 68 28q12 0 93 -4t99 -4q25 0 96 4t86 4q61 0 61 -30 q0 -14 -16 -23.5t-35.5 -15t-35.5 -17.5t-16 -30q0 -41 29.5 -112.5t60.5 -127.5q32 -60 77 -156l73 -156q27 -58 33 -58q5 0 99 127.5t188 278t94 198.5q0 29 -22.5 41t-50 11t-50 7.5t-22.5 30.5q0 17 12 23t41 6q10 0 50.5 -2.5t57.5 -2.5q48 0 110.5 3t99.5 3 q24 0 37 -5.5t15 -11t2 -14.5q0 -13 -22 -23l-56 -24q-33 -14 -52 -33q-47 -50 -224 -307t-210 -294q-42 -47 -59.5 -90.5t-28.5 -149.5q-32 -313 -32 -347q0 -42 46 -80q22 -17 50.5 -26t49 -10t35 -7.5t14.5 -21.5q0 -9 -2 -14.5t-11 -9.5t-27 -4q-10 0 -102 7t-128 7 q-53 0 -103 -8t-69 -8q-55 0 -55 26q0 13 7.5 21t15.5 10.5t26 6t27 6.5q29 9 41.5 36t20.5 90q55 377 55 436q0 13 -2.5 26t-12 36.5t-20.5 45.5l-34 68l-47 90l-65 124l-83 159q-62 120 -101.5 166.5t-77.5 58.5q-6 2 -34.5 3t-46 9.5t-17.5 29.5z" />
<glyph unicode="&#x2c6;" horiz-adv-x="900" d="M234 1021q0 3 9 16l75 97l52 72l34 51l22 34q7 11 13 19t10 10t11 2h52q20 0 29 -20q29 -62 67 -130l58 -104q20 -37 20 -45q0 -11 -16 -11t-101 87t-93 87q-16 -1 -116.5 -86.5t-111.5 -85.5q-14 0 -14 7z" />
<glyph unicode="&#x2dc;" horiz-adv-x="900" d="M167 1095q0 18 36.5 66.5t90 92t91.5 43.5q32 0 65.5 -15.5t57 -33.5t57.5 -33.5t67 -15.5q25 0 47.5 18t36 39t27.5 39t24 18q18 0 18 -24q0 -36 -80 -117t-136 -81q-42 0 -85 25l-84 48q-41 25 -78 25q-26 0 -49 -18t-37 -40t-28.5 -40t-24.5 -18q-16 0 -16 22z" />
<glyph unicode="&#x2000;" horiz-adv-x="951" />
<glyph unicode="&#x2001;" horiz-adv-x="1903" />
<glyph unicode="&#x2002;" horiz-adv-x="951" />
<glyph unicode="&#x2003;" horiz-adv-x="1903" />
<glyph unicode="&#x2004;" horiz-adv-x="634" />
<glyph unicode="&#x2005;" horiz-adv-x="475" />
<glyph unicode="&#x2006;" horiz-adv-x="317" />
<glyph unicode="&#x2007;" horiz-adv-x="317" />
<glyph unicode="&#x2008;" horiz-adv-x="237" />
<glyph unicode="&#x2009;" horiz-adv-x="380" />
<glyph unicode="&#x200a;" horiz-adv-x="105" />
<glyph unicode="&#x2010;" horiz-adv-x="577" d="M80 379q0 28 17 46.5t72 34.5q73 22 130.5 41.5t79 28t39.5 13.5t34 5q45 0 45 -45q0 -18 -0.5 -28t-6 -20t-10 -14t-19.5 -11t-26 -10l-40 -14q-29 -9 -51 -17q-50 -17 -96 -35l-64 -24q-18 -8 -36 -13t-33 -5q-35 0 -35 67z" />
<glyph unicode="&#x2011;" horiz-adv-x="577" d="M80 379q0 28 17 46.5t72 34.5q73 22 130.5 41.5t79 28t39.5 13.5t34 5q45 0 45 -45q0 -18 -0.5 -28t-6 -20t-10 -14t-19.5 -11t-26 -10l-40 -14q-29 -9 -51 -17q-50 -17 -96 -35l-64 -24q-18 -8 -36 -13t-33 -5q-35 0 -35 67z" />
<glyph unicode="&#x2013;" horiz-adv-x="1024" d="M0 438q0 32 14.5 40.5t55.5 8.5h910q25 0 34.5 -11t9.5 -51q0 -20 -12 -33t-32 -13h-902q-58 0 -68 8t-10 51z" />
<glyph unicode="&#x2014;" horiz-adv-x="2048" d="M0 438q0 32 14.5 40.5t55.5 8.5h1934q25 0 34.5 -11t9.5 -51q0 -20 -12 -33t-32 -13h-1926q-58 0 -68 8t-10 51z" />
<glyph unicode="&#x2018;" horiz-adv-x="490" d="M150 1085q0 62 21 121.5t52 102t65.5 75.5t62 49.5t40.5 16.5q26 0 26 -26q0 -15 -13 -28t-30.5 -24t-40.5 -39t-38 -68q-24 -60 -24 -93q0 -41 16.5 -71t35.5 -43.5t35.5 -30.5t16.5 -35t-44 -68t-72 -50q-6 0 -17.5 5.5t-27.5 21t-30 37.5t-24 61t-10 86z" />
<glyph unicode="&#x2019;" horiz-adv-x="490" d="M73 900q0 15 13 28t30.5 24t40.5 39t38 68q24 60 24 93q0 41 -16.5 71t-35.5 43.5t-35.5 30.5t-16.5 35t44 68t72 50q6 0 17.5 -5.5t27.5 -21t30 -37.5t24 -61t10 -86q0 -62 -21 -121.5t-52 -102t-65.5 -75.5t-62 -49.5t-40.5 -16.5q-26 0 -26 26z" />
<glyph unicode="&#x201a;" horiz-adv-x="490" d="M73 -96q0 15 13 28t30.5 24t40.5 39t38 68q24 60 24 93q0 41 -16.5 71t-35.5 43.5t-35.5 30.5t-16.5 35t44 68t72 50q6 0 17.5 -5.5t27.5 -21t30 -37.5t24 -61t10 -86q0 -62 -21 -121.5t-52 -102t-65.5 -75.5t-62 -49.5t-40.5 -16.5q-26 0 -26 26z" />
<glyph unicode="&#x201c;" horiz-adv-x="840" d="M500 1085q0 62 21 121.5t52 102t65.5 75.5t62 49.5t40.5 16.5q26 0 26 -26q0 -15 -13 -28t-30.5 -24t-40.5 -39t-38 -68q-24 -60 -24 -93q0 -41 16.5 -71t35.5 -43.5t35.5 -30.5t16.5 -35t-44 -68t-72 -50q-6 0 -17.5 5.5t-27.5 21t-30 37.5t-24 61t-10 86zM150 1085 q0 62 21 121.5t52 102t65.5 75.5t62 49.5t40.5 16.5q26 0 26 -26q0 -15 -13 -28t-30.5 -24t-40.5 -39t-38 -68q-24 -60 -24 -93q0 -41 16.5 -71t35.5 -43.5t35.5 -30.5t16.5 -35t-44 -68t-72 -50q-6 0 -17.5 5.5t-27.5 21t-30 37.5t-24 61t-10 86z" />
<glyph unicode="&#x201d;" horiz-adv-x="840" d="M423 900q0 15 13 28t30.5 24t40.5 39t38 68q24 60 24 93q0 41 -16.5 71t-35.5 43.5t-35.5 30.5t-16.5 35t44 68t72 50q6 0 17.5 -5.5t27.5 -21t30 -37.5t24 -61t10 -86q0 -62 -21 -121.5t-52 -102t-65.5 -75.5t-62 -49.5t-40.5 -16.5q-26 0 -26 26zM73 900q0 15 13 28 t30.5 24t40.5 39t38 68q24 60 24 93q0 41 -16.5 71t-35.5 43.5t-35.5 30.5t-16.5 35t44 68t72 50q6 0 17.5 -5.5t27.5 -21t30 -37.5t24 -61t10 -86q0 -62 -21 -121.5t-52 -102t-65.5 -75.5t-62 -49.5t-40.5 -16.5q-26 0 -26 26z" />
<glyph unicode="&#x201e;" horiz-adv-x="840" d="M423 -96q0 15 13 28t30.5 24t40.5 39t38 68q24 60 24 93q0 41 -16.5 71t-35.5 43.5t-35.5 30.5t-16.5 35t44 68t72 50q6 0 17.5 -5.5t27.5 -21t30 -37.5t24 -61t10 -86q0 -62 -21 -121.5t-52 -102t-65.5 -75.5t-62 -49.5t-40.5 -16.5q-26 0 -26 26zM73 -96q0 15 13 28 t30.5 24t40.5 39t38 68q24 60 24 93q0 41 -16.5 71t-35.5 43.5t-35.5 30.5t-16.5 35t44 68t72 50q6 0 17.5 -5.5t27.5 -21t30 -37.5t24 -61t10 -86q0 -62 -21 -121.5t-52 -102t-65.5 -75.5t-62 -49.5t-40.5 -16.5q-26 0 -26 26z" />
<glyph unicode="&#x2022;" horiz-adv-x="858" d="M120 677q0 128 90.5 218.5t218.5 90.5t218.5 -90t90.5 -218t-90 -219t-218 -91t-219 90.5t-91 218.5z" />
<glyph unicode="&#x2026;" horiz-adv-x="1365" d="M1010 94q0 19 67 78q5 4 16 14.5t18 16.5l17 13q9 8 17.5 11.5t16.5 3.5q3 0 6 -1t6 -3l6 -4q3 -2 6 -6l6 -7q3 -3 7 -9l7 -9l7 -12l8 -11q5 -7 17.5 -18.5t19.5 -24t7 -31.5q0 -12 -8 -22.5t-29.5 -28t-27.5 -23.5l-17 -17q-12 -13 -18.5 -18.5t-16.5 -11t-20 -5.5 q-15 0 -25 8.5t-22.5 26t-21.5 26.5l-16 16q-11 10 -15 14l-9 11q-6 7 -7.5 12t-1.5 11zM555 94q0 19 67 78q5 4 16 14.5t18 16.5l17 13q9 8 17.5 11.5t16.5 3.5q3 0 6 -1t6 -3l6 -4q3 -2 6 -6l6 -7q3 -3 7 -9l7 -9l7 -12l8 -11q5 -7 17.5 -18.5t19.5 -24t7 -31.5 q0 -12 -8 -22.5t-29.5 -28t-27.5 -23.5l-17 -17q-12 -13 -18.5 -18.5t-16.5 -11t-20 -5.5q-15 0 -25 8.5t-22.5 26t-21.5 26.5l-16 16q-11 10 -15 14l-9 11q-6 7 -7.5 12t-1.5 11zM100 94q0 19 67 78q5 4 16 14.5t18 16.5l17 13q9 8 17.5 11.5t16.5 3.5q3 0 6 -1t6 -3l6 -4 q3 -2 6 -6l6 -7q3 -3 7 -9l7 -9l7 -12l8 -11q5 -7 17.5 -18.5t19.5 -24t7 -31.5q0 -12 -8 -22.5t-29.5 -28t-27.5 -23.5l-17 -17q-12 -13 -18.5 -18.5t-16.5 -11t-20 -5.5q-15 0 -25 8.5t-22.5 26t-21.5 26.5l-16 16q-11 10 -15 14l-9 11q-6 7 -7.5 12t-1.5 11z" />
<glyph unicode="&#x202f;" horiz-adv-x="380" />
<glyph unicode="&#x2039;" horiz-adv-x="466" d="M40 441q0 8 15 23q290 243 299 248q3 2 6 2q9 0 17.5 -12.5t8.5 -23.5q0 -13 -101.5 -119t-101.5 -115q0 -13 76 -117t76 -117q0 -10 -12 -24t-22 -14q-6 0 -40 34q38 -38 -212 220q-9 7 -9 15z" />
<glyph unicode="&#x203a;" horiz-adv-x="466" d="M80 208q0 13 101.5 119t101.5 115q0 14 -76 117t-76 117q0 10 12 24t22 14q6 0 40 -34q-38 38 212 -220q9 -7 9 -15t-15 -23q-290 -244 -297 -248q-4 -2 -7 -2q-10 0 -18.5 12.5t-8.5 23.5z" />
<glyph unicode="&#x205f;" horiz-adv-x="475" />
<glyph unicode="&#x20ac;" horiz-adv-x="1257" d="M40 595l40 97h135q26 88 73 158.5t101 114t116 72.5t114.5 40.5t100.5 11.5q120 0 213 -37t184 -123l-45 -101q-8 13 -23.5 30.5t-46.5 42t-68 44.5t-91.5 34t-112.5 14q-56 0 -112 -15.5t-114 -48.5t-107.5 -94t-79.5 -143h699l-40 -97h-680q0 -3 -0.5 -16t-0.5 -23 q0 -11 0.5 -24t0.5 -16h647l-42 -99h-584q26 -77 74.5 -137t106 -94.5t116 -52t113.5 -17.5q60 0 116 15t91 32.5t69.5 44.5t44 37t21.5 24l2 2l6 -1v-125q-156 -125 -344 -125q-72 0 -144 20t-145.5 63t-134 124t-94.5 190h-168l40 99h112v79h-159z" />
<glyph unicode="&#x2122;" horiz-adv-x="3283" d="M1458 21q0 5 0.5 8t1.5 5.5t4 5.5l7 4q3 2 10 4l13 6l20 7q12 5 23 9q50 20 77 102q16 49 55 259q2 15 5 29q5 28 36.5 181t49 259.5t17.5 162.5q0 14 -1 44t-1 45q0 106 -63 190q-24 32 -49.5 41.5t-74.5 9.5q-4 0 -15.5 -0.5t-14.5 -0.5q-12 0 -21.5 8t-9.5 24 q0 35 145 35h13q30 0 71.5 0.5t58.5 0.5q31 0 53 -39.5t86 -198.5l21 -52l175 -413l165 -359q67 -140 75 -140q11 0 85 142l246 484l43 84l57 113l49 101l46 102l34 79q11 25 23.5 48.5t22.5 31t24 7.5q1 0 24 -0.5t38 -0.5q22 0 65 4.5t47 4.5q24 0 36.5 -8.5t12.5 -20.5 q0 -8 -9 -18t-19 -12t-25 -4l-23 -3q-8 -1 -20 -6.5t-19 -14t-16 -25.5t-15 -42t-12.5 -62t-11.5 -86q-10 -94 -10 -226v-160q0 -60 -2.5 -159.5t-2.5 -131.5q0 -15 -0.5 -26.5t-1 -25t-1 -67t-0.5 -143.5q0 -53 7 -84.5t26.5 -50t45 -25.5t72.5 -11q14 -1 22 -9t8 -17 q0 -29 -56 -29q-20 0 -92 6t-121 6q-27 0 -79 -6t-91 -6q-20 0 -31.5 8t-11.5 17q0 16 16.5 24.5t38 13t45 25t34.5 56.5q13 43 21 204t9.5 272.5t1.5 186.5q0 237 -13 237q-21 0 -80 -115l-299 -581l-113 -225q-38 -79 -48.5 -93t-29.5 -14q-14 0 -73 128l-340 767 q-35 81 -42.5 94.5t-14.5 13.5t-17.5 -35t-12.5 -55q-17 -142 -71.5 -427t-54.5 -347q0 -34 18.5 -54t44.5 -26.5t52 -10t44.5 -11t18.5 -23.5q0 -25 -42 -25q-40 0 -111.5 3.5t-80.5 3.5q-4 0 -50 -4t-99 -4q-48 0 -48 26zM60 1174q0 27 7 46l24 62q17 45 34 110 q9 34 28 44t66 10q33 0 148.5 -3.5t380.5 -3.5q209 0 392 4l182 4q27 0 41 -7t16 -14t2 -20q0 -70 3.5 -143t3.5 -83q0 -48 -39 -48q-10 0 -14.5 2.5t-7.5 12t-5 21.5t-9.5 39t-18.5 57q-6 17 -12 27t-21.5 18.5t-31.5 12t-54 6t-76 3t-110 0.5h-92q-49 0 -59.5 -21.5 t-21.5 -129.5l-8 -78q-19 -183 -48 -404l-44 -349q-15 -127 -15 -172q0 -46 18 -72.5t43.5 -33.5t51.5 -10t44 -10t18 -25q0 -31 -50 -31q-14 0 -91 7t-128 7q-36 0 -99 -6t-78 -6q-66 0 -66 29q0 20 16.5 27.5t38.5 7t49.5 10.5t43.5 36q15 23 23 83q140 1080 140 1116 q0 23 -27 28t-118 5q-138 0 -209.5 -8.5t-94.5 -20.5t-48 -41q-21 -24 -34 -52.5t-17 -46t-13.5 -30t-26.5 -12.5q-27 0 -27 46z" />
</font>
</defs>
</svg>
